<svg width="60" height="61" viewBox="0 0 60 61" fill="none" xmlns="http://www.w3.org/2000/svg">
<circle cx="29.86" cy="30.5" r="29.36" fill="white" stroke="#6AA5F8"/>
<path d="M36.0394 39.75H23.6794C21.9794 39.75 20.6094 38.37 20.6094 36.68V24.32C20.6094 22.62 21.9894 21.25 23.6794 21.25H36.0394C37.7394 21.25 39.1094 22.63 39.1094 24.32V36.68C39.1094 38.37 37.7294 39.75 36.0394 39.75Z" stroke="#6AA5F8" stroke-linecap="round" stroke-linejoin="round"/>
<path d="M20.6094 35.9499L24.1394 32.4199C24.7394 31.8199 25.7194 31.8199 26.3194 32.4199L27.2194 33.3199C27.8194 33.9199 28.7994 33.9199 29.3994 33.3199L33.3894 29.3299C33.9894 28.7299 34.9694 28.7299 35.5694 29.3299L39.0994 32.8599" stroke="#6AA5F8" stroke-linecap="round" stroke-linejoin="round"/>
<path d="M26.0083 24.4099C25.1683 24.4099 24.4883 25.0899 24.4883 25.9299C24.4883 26.7699 25.1683 27.4499 26.0083 27.4499C26.8483 27.4499 27.5283 26.7699 27.5283 25.9299C27.5283 25.0899 26.8383 24.4099 26.0083 24.4099Z" fill="#6AA5F8"/>
</svg>
