<svg width="158" height="158" viewBox="0 0 158 158" fill="none" xmlns="http://www.w3.org/2000/svg">
<circle cx="79" cy="79" r="79" fill="#6AA5F8"/>
<g clip-path="url(#clip0_5547_7223)">
<path d="M54.0973 63.2638C60.3797 59.8244 64.9722 55.8879 68.014 52.8263C71.0756 49.7646 75.0121 45.192 78.4515 38.9096" stroke="white" stroke-width="3.25097" stroke-miterlimit="10" stroke-linecap="round"/>
<path d="M102.825 63.2638C96.5427 59.8244 91.9502 55.8879 88.9085 52.8263C85.8667 49.7646 81.9104 45.192 78.4709 38.9096" stroke="white" stroke-width="3.25097" stroke-miterlimit="10" stroke-linecap="round"/>
<path d="M49.3058 78.9299C59.9023 73.9795 70.4989 66.3651 77.159 54.5757C77.5566 53.8799 77.9145 53.1841 78.2724 52.4882" stroke="white" stroke-width="3.25097" stroke-miterlimit="10" stroke-linecap="round"/>
<path d="M108.471 78.9299C102.746 76.2062 94.9522 71.6137 87.477 63.9993C83.5406 60.0032 80.5385 56.0072 78.2721 52.4882" stroke="white" stroke-width="3.25097" stroke-miterlimit="10" stroke-linecap="round"/>
<path d="M78.4709 117.219V40.6179" stroke="white" stroke-width="3.25097" stroke-miterlimit="10" stroke-linecap="round"/>
<path d="M49.3058 94.6948C59.9023 89.7444 70.4989 82.13 77.159 70.3406C77.5566 69.6448 77.9145 68.9489 78.2724 68.2531" stroke="white" stroke-width="3.25097" stroke-miterlimit="10" stroke-linecap="round"/>
<path d="M108.471 94.6948C102.746 91.9711 94.9522 87.3786 87.477 79.7642C83.5406 75.7681 80.5385 71.772 78.2721 68.2531" stroke="white" stroke-width="3.25097" stroke-miterlimit="10" stroke-linecap="round"/>
<path d="M49.3058 109.228C59.9023 104.278 70.4989 96.6637 77.159 84.8742C77.5566 84.1784 77.9145 83.4826 78.2724 82.7867" stroke="white" stroke-width="3.25097" stroke-miterlimit="10" stroke-linecap="round"/>
<path d="M108.471 109.228C102.746 106.505 94.9522 101.912 87.477 94.2978C83.5406 90.3018 80.5385 86.3057 78.2721 82.7867" stroke="white" stroke-width="3.25097" stroke-miterlimit="10" stroke-linecap="round"/>
</g>
<defs>
<clipPath id="clip0_5547_7223">
<rect width="61.1539" height="80.2992" fill="white" transform="translate(48.3115 37.9154)"/>
</clipPath>
</defs>
</svg>
