<svg width="158" height="158" viewBox="0 0 158 158" fill="none" xmlns="http://www.w3.org/2000/svg">
<circle cx="79" cy="79" r="79" fill="#FDFBE9"/>
<g clip-path="url(#clip0_5547_7224)">
<path d="M23.0271 101.654C29.6853 97.8428 35.1974 94.4034 39.3479 91.7194C50.9933 84.1912 55.6995 80.1701 57.2128 78.8553C60.8198 75.719 63.6048 72.8945 65.4607 70.9154C66.3985 71.0646 67.3362 71.2137 68.274 71.3628C68.274 71.3628 75.7739 96.5649 103.84 110.135L136.055 92.9825C136.055 92.9825 106.621 83.4506 94.4373 64.7391L90.4533 64.3669L64.5623 70.234C58.2356 76.854 52.3809 81.5318 48.0332 84.6607C43.3332 88.0446 39.2481 90.444 35.8185 92.4588C30.0735 95.8341 25.0813 98.3912 21.3585 100.192C21.9143 100.68 22.4713 101.166 23.0271 101.654Z" fill="#A3C7FA"/>
<path d="M23.2693 103.061C22.3833 103.615 23.7832 102.825 22.6987 103.437C22.8047 103.34 22.9661 103.217 23.2693 103.061Z" fill="#1B1B1B"/>
<path d="M22.1611 101.639C23.6128 100.783 25.3343 99.8673 27.0793 98.9122C28.8267 97.9596 30.5963 96.9627 32.154 95.9756C32.5212 95.7501 32.1096 96.1223 32.9365 95.6022C35.9273 93.6404 40.774 90.7789 44.402 88.3648L44.2023 88.5398C44.8961 88.0826 45.6676 87.4196 46.3848 86.9107C46.402 86.9218 46.174 87.098 46.354 86.9994C46.5006 86.8244 47.6195 86.037 47.8882 85.7757C48.179 85.5835 48.179 85.6426 48.5536 85.39L48.9122 85.0302C49.9227 84.0542 51.5888 82.9389 52.9937 81.6413C52.9333 81.7116 52.7965 81.8422 52.9222 81.7559C54.0609 80.7306 55.3437 79.5796 56.6376 78.3732C57.9316 77.168 59.2354 75.9073 60.4319 74.6837C60.3518 74.7958 60.2927 74.9153 60.4529 74.7921C60.5219 74.622 61.2551 73.8605 61.8799 73.1901C62.0487 73.0656 62.3088 72.7699 62.623 72.4125C62.936 72.0527 63.2971 71.6263 63.6791 71.2467L63.6286 71.3244C63.6705 71.2701 63.7111 71.2184 63.7518 71.1703C63.7999 71.1149 63.8442 71.0631 63.8874 71.0126C63.965 70.9916 64.0389 70.9719 64.1104 70.9534C64.1733 70.9386 64.2336 70.9239 64.2916 70.9103C64.4099 70.8844 64.5208 70.8598 64.6304 70.8351C64.851 70.7858 65.0654 70.7292 65.3156 70.6281L65.8184 70.5591C66.1326 70.3755 66.9472 70.3286 67.572 70.1179L67.5461 70.1031C68.1413 69.9269 68.4666 69.8973 69.02 69.7408L69.0754 69.7384C70.3743 69.3835 71.1469 69.2454 71.0964 69.1777C71.5696 69.1234 69.8382 69.5252 70.5788 69.4328C74.8537 68.2694 79.2851 67.1678 83.6081 66.0747C84.1072 65.981 84.4214 65.912 84.5397 65.9133C84.9674 65.7888 86.1627 65.4893 86.546 65.3501C86.4018 65.3883 86.8343 65.3193 87.0648 65.2651C87.8596 65.095 87.9027 64.9644 88.7752 64.7808C88.4363 64.888 88.3267 64.9422 88.4487 64.941C88.9009 64.7869 89.4481 64.6378 90.0211 64.4862C90.3723 64.5035 90.7284 64.5195 91.0673 64.5368C90.9268 64.5417 90.71 64.5368 90.742 64.5626C91.7266 64.554 92.5289 64.6896 93.3915 64.6982L93.0661 64.7241C93.7575 64.7955 93.8561 64.7771 93.9411 64.7561C93.9633 64.7512 93.9842 64.745 94.0126 64.7413C94.0274 64.7389 94.0434 64.7376 94.0643 64.7352C94.0742 64.7352 94.0865 64.7327 94.0964 64.7352C94.1038 64.7426 94.1111 64.7524 94.1198 64.761C94.1543 64.7992 94.1986 64.8547 94.2603 64.9348C94.3157 65.0075 94.3835 65.0999 94.471 65.2232C94.2874 65.0013 94.333 65.0925 94.2874 65.0617C94.4722 65.2737 94.6755 65.5226 94.89 65.7925C94.9959 65.928 95.1056 66.0673 95.2165 66.209C95.272 66.2805 95.3274 66.352 95.3829 66.4234L95.5603 66.6317C95.7957 66.9102 96.0311 67.1899 96.2529 67.4524C96.3638 67.583 96.4723 67.71 96.5746 67.8307C96.6768 67.9515 96.7754 68.0649 96.874 68.1635C96.8247 68.1191 96.8272 68.1401 96.8272 68.1401C97.2412 68.5849 97.6565 69.0446 98.0854 69.5141C98.5265 69.9713 98.9936 70.4248 99.4754 70.8857C99.8081 71.2393 99.2733 70.8659 100.228 71.7273C100.242 71.678 100.65 72.0416 100.991 72.3435C101.161 72.4951 101.318 72.6294 101.404 72.6848C101.488 72.7428 101.496 72.7292 101.371 72.5863C101.782 72.9486 102.312 73.4168 102.809 73.8555C103.315 74.2819 103.801 74.6627 104.094 74.8796C103.687 74.5986 104.443 75.3023 103.726 74.7379L104.231 75.2123C104.127 75.1778 103.684 74.7576 103.826 74.9326C103.917 75.0028 104.05 75.1063 104.205 75.2271C104.359 75.3479 104.537 75.4822 104.718 75.6104C105.076 75.8691 105.428 76.1267 105.588 76.2549C105.944 76.4865 106.29 76.701 106.699 76.94C107.106 77.1828 107.559 77.4712 108.125 77.8581C107.849 77.6905 107.912 77.762 107.994 77.8495C108.078 77.9345 108.187 78.0294 107.999 77.9148L109.69 78.8279C110.072 79.0756 109.733 78.9438 110.303 79.2765C110.287 79.2371 110.537 79.3776 110.718 79.4687C110.787 79.518 111.191 79.7657 111.593 80.0233C111.998 80.2747 112.405 80.531 112.466 80.621C112.621 80.754 111.818 80.2562 112.236 80.5421C112.598 80.7577 112.791 80.8637 112.984 80.9697C113.176 81.0769 113.369 81.1841 113.736 81.3899L113.743 81.4084C114.221 81.6955 115.189 82.1848 114.687 81.8434C114.352 81.6499 114.788 81.963 114.304 81.6573C114.488 81.7313 114.793 81.8853 115.144 82.0739C115.498 82.2587 115.901 82.4694 116.271 82.6703C116.012 82.5471 116.03 82.584 115.916 82.5508C116.942 83.0338 118.016 83.565 119.157 84.1084C119.194 84.0788 118.7 83.9704 118.546 83.8619C118.897 84.064 119.269 84.2415 119.637 84.4227C120.008 84.6001 120.377 84.7776 120.743 84.9415C121.476 85.2668 122.171 85.5921 122.769 85.9051C122.564 85.8201 122.685 85.8004 122.695 85.8176C123.402 86.1454 123.345 86.1886 123.816 86.3771C123.846 86.4326 124.406 86.6236 124.889 86.8232C125.147 86.907 125.008 86.8947 124.588 86.7148C125.262 86.992 127.973 88.0703 129.525 88.721C129.503 88.6902 130.524 89.0093 130.883 89.1486H130.722C131.039 89.3076 131.941 89.5935 131.984 89.6612C132.384 89.7709 131.631 89.5134 130.913 89.2632C130.197 89.0093 129.513 88.7703 130.047 88.944C130.301 89.0919 131.535 89.4111 131.283 89.3963C131.649 89.5294 132.014 89.6464 132.372 89.766C132.732 89.883 133.084 90.0063 133.427 90.1554C133.226 90.0753 132.806 90.0186 133.4 90.2244C134.449 90.5731 133.705 90.3033 134.561 90.5731L135.102 90.7297C135.155 90.6902 136.038 91.0414 135.667 90.8566C135.682 90.8677 135.717 90.8825 135.766 90.9009C135.791 90.9096 135.819 90.9207 135.851 90.9317C135.89 90.9441 135.934 90.9589 135.98 90.9736C136.19 91.0377 136.45 91.1191 136.7 91.1955C137.253 91.3594 137.751 91.5097 137.554 91.4986L137.19 91.4666C137.314 91.5011 137.434 91.5344 137.55 91.5615C137.55 91.5639 137.558 91.5664 137.55 91.5689L137.536 91.5787L137.506 91.5984C137.486 91.6108 137.467 91.6243 137.448 91.6366C137.41 91.6625 137.373 91.6872 137.337 91.7118C137.263 91.7636 137.193 91.8129 137.124 91.8609C136.981 91.962 136.831 92.0679 136.648 92.1838C136.558 92.2269 136.385 92.307 136.407 92.2811C136.407 92.2972 136.382 92.3218 136.339 92.3551C136.298 92.3859 136.226 92.4327 136.16 92.4721C136.058 92.535 135.92 92.6114 135.766 92.694C135.46 92.8591 135.099 93.0513 134.871 93.2263C133.975 93.6835 132.642 94.4685 132.195 94.641C131.538 95.0465 130.941 95.4248 130.161 95.8339C130.31 95.739 130.519 95.6195 130.55 95.5739C130.052 95.8154 129.947 95.9078 129.514 96.1691C129.604 96.1001 128.517 96.6522 127.963 96.9183C127.31 97.3213 127.567 97.2449 127.518 97.3139C126.853 97.5616 125.661 98.4316 124.846 98.7742C125.071 98.6313 125.798 98.1815 125.227 98.4686C124.562 98.7163 124.032 99.2289 123.019 99.7354L123.305 99.6787C122.838 99.8759 121.876 100.536 121.933 100.4C121.619 100.613 120.755 101.024 120.907 101.039C119.248 101.881 116.985 103.283 115.912 103.703C115.687 103.846 115.1 104.157 115.24 104.13C115.651 103.956 115.763 103.798 115.922 103.747C115.715 103.865 115.68 103.912 115.666 103.934C115.152 104.199 114.751 104.415 115.192 104.084C114.044 104.663 114.108 104.861 112.665 105.628C112.712 105.561 112.597 105.609 112.182 105.848L111.42 106.344C110.49 106.847 110.856 106.565 110.803 106.524C110.315 106.809 109.71 107.144 109.509 107.309L108.872 107.577C109.335 107.382 108.484 107.835 108.259 107.978L108.484 107.835C108.38 107.864 107.818 108.197 107.534 108.364C107.62 108.359 108.209 108.047 108.533 107.88C108.294 108.045 107.898 108.258 107.58 108.473C107.662 108.358 106.756 108.884 106.36 109.099C105.904 109.339 105.88 109.429 105.748 109.5C105.734 109.489 105.551 109.591 105.41 109.667C105.354 109.696 105.246 109.754 105.22 109.764C105.188 109.778 105.227 109.748 105.34 109.672C105.488 109.577 105.705 109.503 105.945 109.336C105.791 109.409 105.716 109.429 105.605 109.478C105.55 109.503 105.485 109.534 105.397 109.583C105.346 109.612 105.289 109.646 105.222 109.684C105.181 109.709 105.138 109.734 105.091 109.762C105.068 109.775 105.043 109.79 105.018 109.806C105.006 109.813 104.993 109.822 104.98 109.829C104.967 109.835 104.953 109.821 104.938 109.818C104.601 109.679 104.622 109.721 104.59 109.73C104.557 109.738 104.475 109.715 104.024 109.486C104.272 109.583 104.326 109.582 104.521 109.648L103.675 109.223L103.616 109.256C103.506 109.19 103.588 109.223 103.537 109.191C103.398 109.158 103.068 109.011 102.745 108.868C102.422 108.725 102.106 108.587 101.998 108.564C101.569 108.352 101.118 108.073 100.714 107.861L100.794 107.897C100.313 107.612 99.6381 107.308 99.2154 107.103H99.2437C98.98 106.953 98.3466 106.611 97.9979 106.454C97.6713 106.248 97.6405 106.172 97.5949 106.103C97.5715 106.068 97.5444 106.035 97.4754 105.989C97.4051 105.943 97.2918 105.886 97.1032 105.789C96.4353 105.386 96.0052 105.24 96.2566 105.434C95.9609 105.244 95.6515 105.054 95.3373 104.866C95.1808 104.771 95.0206 104.678 94.8629 104.581C94.7076 104.481 94.5523 104.381 94.397 104.281C93.7784 103.882 93.1709 103.489 92.6546 103.091C92.4771 102.992 92.5732 103.077 92.2269 102.847C91.8092 102.544 91.3766 102.238 90.9429 101.934L90.6163 101.706C90.5103 101.627 90.4043 101.547 90.2996 101.468C90.0889 101.309 89.8794 101.151 89.6723 100.996C89.2607 100.682 88.8541 100.382 88.4869 100.077C88.1221 99.7687 87.782 99.4705 87.4825 99.1907C87.9594 99.5518 87.5478 99.1735 87.5589 99.1414C87.1473 98.8666 87.1338 98.7274 86.9428 98.6793C86.9489 98.7483 86.8947 98.736 87.3309 99.1193C87.2102 99.0244 87.082 98.9221 86.9489 98.8173C86.8824 98.7644 86.8146 98.7101 86.7456 98.6559C86.679 98.5992 86.6113 98.5401 86.5435 98.4822C86.2724 98.2468 85.9939 98.0028 85.7277 97.7711C85.4628 97.537 85.2126 97.3127 84.9982 97.1167C84.7887 96.9146 84.6161 96.7409 84.4991 96.6152C84.7332 96.8654 84.5299 96.6965 84.3229 96.5228C84.4424 96.5252 83.7868 95.8992 83.2705 95.4482L83.1682 95.4137L82.8872 95.0637C82.69 94.8887 82.6099 94.9294 82.1601 94.4167C82.1491 94.3785 82.1343 94.3379 82.0554 94.2405C81.7855 94.0076 81.475 93.7131 81.1644 93.4075C80.8539 93.1019 80.5446 92.7852 80.2944 92.4906C80.1675 92.3218 80.048 92.1456 79.9247 91.9743C79.7004 91.734 79.3012 91.3483 79.6709 91.7944C78.8206 90.7925 78.2907 90.1295 78.0676 89.7734C77.8741 89.5676 77.6622 89.3544 77.4601 89.1178C77.2568 88.8812 77.0448 88.6347 76.8279 88.3821C76.3904 87.8768 75.9591 87.3186 75.5204 86.7505C75.4107 86.6088 75.3011 86.4658 75.1914 86.3229L74.8735 85.8842C74.6627 85.5909 74.452 85.2976 74.2437 85.008C74.0379 84.7159 73.8432 84.4202 73.6485 84.1343C73.4575 83.8459 73.2604 83.5674 73.0866 83.2877L73.1593 83.3333C72.8056 82.7196 72.9079 83.0585 72.6627 82.6296C72.8155 82.8034 72.4347 82.1355 72.7699 82.5803C72.6417 82.3622 72.5296 82.1872 72.4298 82.0381C72.3324 81.8865 72.2449 81.7621 72.1624 81.6475C71.996 81.4183 71.8481 81.231 71.6694 80.9537C71.577 80.8933 71.9714 81.3899 71.8531 81.3123C71.8185 81.2679 71.6386 80.9672 71.4624 80.6579C71.2862 80.3486 71.1001 80.0381 71.0299 79.9888C70.9263 79.7559 71.0718 79.9001 71.1654 80.0036C71.0533 79.831 70.9362 79.6598 70.8265 79.4848C70.6824 79.1323 70.9165 79.4946 71.1679 79.8409C71.4156 80.1896 71.6633 80.531 71.5092 80.1638L71.2135 79.677C71.0077 79.1718 72.0404 80.9327 71.3478 79.6893C71.0065 79.173 70.6676 78.754 70.9042 79.2543C70.2658 78.1341 70.4581 78.8181 69.816 77.5858C69.6768 77.2296 70.3422 78.5655 70.2708 78.3017C70.1438 77.9986 69.9836 77.7127 69.8247 77.4354C69.6657 77.1594 69.5141 76.887 69.3921 76.6233C69.6571 77.2136 69.3478 76.7576 69.1481 76.3879C68.8721 75.7348 69.4069 76.7724 68.9818 75.8654C68.8708 75.7361 68.4519 74.9129 68.7649 75.6461C68.5246 75.3577 68.3483 74.6874 68.0661 74.2141C67.9959 73.8888 68.6182 75.1014 68.2091 74.0774C68.2128 74.2671 67.6053 72.8524 67.7408 73.4292C67.5954 73.0176 67.6274 72.9572 67.779 73.2369C67.7285 73.0792 67.6545 72.9104 67.5831 72.7391L67.5276 72.6121L67.4993 72.5493C67.4931 72.5357 67.4919 72.5357 67.487 72.5283C67.4746 72.5086 67.4623 72.4889 67.45 72.4704C67.4278 72.4704 67.4081 72.4716 67.3921 72.4704C67.3834 72.4704 67.376 72.4704 67.3686 72.468C67.3452 72.4643 67.3243 72.4606 67.3033 72.4581C67.1961 72.4396 67.1148 72.415 67.0717 72.3805L66.8548 72.4187C66.6675 72.3731 66.3964 72.3238 66.0907 72.2498C65.9293 72.2289 65.7075 72.2092 65.4795 72.1882C65.3649 72.1784 65.2491 72.1673 65.1369 72.1574L65.0987 72.1537H65.0864H65.063C65.0482 72.1537 65.0334 72.1525 65.0199 72.1512C65.0075 72.166 64.9964 72.1784 64.9854 72.1894C64.9792 72.1944 64.9743 72.1993 64.9693 72.2042C64.9656 72.2079 64.9669 72.2055 64.9595 72.2129C64.9521 72.2203 64.9447 72.2264 64.9373 72.2338C64.8818 72.2843 64.8461 72.3053 64.8387 72.2856C64.7303 72.4224 63.8886 73.3269 64.262 73.0225C64.5393 72.7551 64.6773 72.5826 64.7943 72.447C64.8523 72.3792 64.904 72.3201 64.9632 72.2622L64.9854 72.24C64.9952 72.2313 64.9915 72.235 64.9964 72.2326C65.0014 72.2301 65.0063 72.2289 65.0112 72.2277C65.0211 72.2252 65.0334 72.2264 65.0433 72.2313C65.0322 72.2301 65.0186 72.2338 65.0063 72.24C65.0075 72.235 64.9743 72.2695 64.9521 72.2917L64.8806 72.3657C64.7869 72.4655 64.6982 72.5678 64.6144 72.6701C64.4468 72.8758 64.294 73.0792 64.1523 73.2517L64.0759 73.2788C63.9058 73.4821 63.4832 73.9221 63.3981 74.0687C63.5214 73.9061 63.4302 73.9652 63.2786 74.1119L63.1295 74.3522C62.4049 75.1495 62.8818 74.4655 62.1658 75.2283L62.6871 74.627C62.5725 74.7576 62.2878 74.9782 61.9502 75.3479C61.8528 75.5241 61.6408 75.8285 61.5509 75.9764C61.1516 76.4114 61.3229 76.1218 60.9495 76.5703L61.4424 75.9874C61.5115 75.8938 61.0198 76.2906 60.4603 76.8427C60.1152 77.2087 59.6051 77.8063 60.1966 77.274C59.9131 77.55 59.4917 77.9123 59.6913 77.6659C59.0579 78.2993 59.8158 77.6264 59.2797 78.1834C59.0271 78.3781 58.2766 79.0152 57.8046 79.3788L58.3358 78.7663L57.9427 79.1311C58.4035 78.6086 57.6481 79.3295 57.8847 79.0103C57.6099 79.2506 57.3006 79.5673 57.0529 79.8187C57.4879 79.5032 57.2945 79.7349 57.0295 80.0294C56.7646 80.324 56.422 80.6789 56.5736 80.616C56.0326 81.1139 55.8132 81.2137 55.6025 81.3308C55.3905 81.4478 55.186 81.5846 54.6524 82.1404C54.8631 82.0012 54.3616 82.5286 55.0516 81.9112C54.3443 82.4879 54.645 82.393 53.7824 83.0412C54.3739 82.5039 53.0491 83.4935 53.9019 82.7184C53.8649 82.7948 54.4158 82.3326 54.5464 82.2119C54.2297 82.4189 54.5365 82.0788 53.8156 82.6703C53.3819 83.0375 52.7731 83.5243 52.8963 83.4996C52.9542 83.5329 53.5704 82.95 53.3252 83.2273C52.4539 83.9556 52.242 83.9901 51.9413 84.3697C52.4995 83.9199 52.6807 83.8595 52.6967 83.9002L52.0571 84.4362L52.1594 84.3031C51.0861 85.0992 51.8945 84.605 50.8605 85.3876L50.3269 85.6882C50.5327 85.4504 51.8415 84.5681 51.5888 84.6174C50.9209 85.1275 50.7348 85.3444 50.0829 85.7979C50.2197 85.6858 50.4058 85.533 50.5414 85.4221C50.2974 85.5995 49.9708 85.6648 49.0626 86.451C48.5857 86.8479 48.9554 86.5817 48.9689 86.6248C47.8944 87.4418 47.59 87.708 46.8912 88.2268C46.9886 88.0568 45.638 89.1153 46.3687 88.4881C46.7569 88.2712 48.3343 87.119 48.667 86.7665C48.2123 86.9785 49.5284 86.1491 49.6972 85.8903C48.8297 86.5385 48.8112 86.4252 48.6337 86.4782C48.3897 86.6531 48.1729 86.8479 48.0348 86.9625C47.9683 87.0869 48.2838 86.8528 48.338 86.8885C47.3558 87.5897 46.4353 88.3008 45.9263 88.7333C45.5813 88.944 45.6491 88.8208 46.0348 88.5386C45.4556 88.9637 44.8542 89.3988 44.2516 89.8177C43.6503 90.238 43.055 90.6508 42.4882 91.0279C43.2682 90.6076 41.2509 91.9114 41.7907 91.6379C42.4044 91.2411 42.9614 90.9404 42.6558 91.2066C42.2762 91.4616 42.6435 91.1634 42.4746 91.2546C42.0261 91.6292 41.6822 91.6983 41.2596 92.0926C42.3206 91.3212 41.4013 91.8486 41.5565 91.6477C40.8024 92.2208 41.5602 91.5824 40.7888 92.1086C40.0322 92.6742 39.0968 93.3557 38.2355 93.9509C37.103 94.6238 35.4603 95.7945 34.4769 96.4377C33.9408 96.7409 34.2428 96.4402 33.6747 96.7914C33.0191 97.2178 34.2132 96.5548 33.2187 97.1513L33.3025 97.0761C33.0203 97.2856 31.4848 98.1753 31.2618 98.4649L31.5119 98.1926C31.3259 98.301 31.1681 98.4279 31.0227 98.5327C30.9993 98.5117 30.7713 98.6239 31.0572 98.4168C30.4189 98.7459 29.7953 99.2302 29.1385 99.6455L29.592 99.4261C28.4878 100.173 27.7028 100.596 26.6184 101.288L26.6221 101.222L25.9875 101.65C26.1181 101.507 25.5019 101.845 25.1803 102.094L26.8057 100.938C27.2925 100.676 26.3276 101.312 26.6504 101.175C26.9253 101.06 27.9308 100.421 28.0664 100.273C27.6757 100.508 27.6634 100.531 27.3738 100.734C27.2062 100.748 27.7953 100.386 28.059 100.162C27.8581 100.29 27.5574 100.45 27.5266 100.498C27.9037 100.218 28.3042 99.9646 28.9647 99.5481C28.5322 99.855 29.2334 99.4347 29.0756 99.5604C29.0929 99.4705 29.714 99.0576 30.5384 98.5561C31.162 98.2517 32.0406 97.5407 32.992 96.9516C32.6481 97.2548 32.1897 97.6134 31.6315 98.004C32.2415 97.654 32.2883 97.5801 32.8995 97.2289C33.1571 97.0009 33.3197 96.805 34.0702 96.28L34.1392 96.2948C34.8219 95.8203 34.7813 95.7575 35.671 95.1882C37.1954 94.2122 38.7444 93.1758 39.8868 92.4007L39.9582 92.413C40.5362 91.8967 42.0495 90.933 42.8727 90.3045C44.344 89.3359 45.9682 88.0605 46.7471 87.5983C49.2363 85.74 51.3867 84.0813 53.8859 82.0615L53.5137 82.4608C53.9253 82.0541 53.8292 82.2562 54.2593 81.889C53.722 82.2575 54.815 81.332 55.0862 81.0362C56.215 80.1564 57.5249 78.8624 58.4122 77.9567L58.4824 77.9592C59.3487 77.009 60.5022 76.0022 61.6298 74.8697C61.7739 74.7539 62.0081 74.5789 62.3359 74.2326C62.8769 73.5499 63.1948 73.2271 64.018 72.2597C64.2225 72.0366 64.4641 71.7742 64.7623 71.4501C65.0038 71.4833 65.2589 71.5178 65.5202 71.5536C65.7297 71.5831 65.9441 71.614 66.1536 71.6435C66.5738 71.7051 66.9817 71.7655 67.3169 71.8198C67.4081 71.8284 67.4993 71.8382 67.5905 71.8469C67.7026 71.8592 67.816 71.8715 67.9294 71.8838L68.0933 72.3188L68.2116 72.6097C68.2929 72.8019 68.373 72.9942 68.4543 73.1864C68.6182 73.5709 68.7907 73.9529 68.9633 74.3361C69.142 74.7169 69.3145 75.1014 69.5006 75.481C69.593 75.6707 69.6842 75.8618 69.7766 76.0528C69.8715 76.2425 69.9676 76.4311 70.0637 76.6209C70.8302 78.1366 71.6694 79.6363 72.5986 81.0954L72.6849 81.3493C73.6584 82.8108 74.749 84.4325 75.8618 85.9631C76.1452 86.3414 76.4249 86.7172 76.701 87.0869C76.77 87.1793 76.839 87.2705 76.9068 87.3617C76.977 87.4517 77.0473 87.5404 77.1175 87.6291C77.258 87.8066 77.396 87.9804 77.5328 88.1529C78.0726 88.8479 78.6197 89.4752 79.1126 90.0383L78.8501 89.8818C78.9956 90.0667 79.1558 90.2601 79.3123 90.4438C79.4737 90.6224 79.6327 90.7913 79.7682 90.9293C80.0406 91.2066 80.2254 91.3655 80.1724 91.2522C80.3228 91.4333 80.499 91.6317 80.6814 91.8338C80.865 92.0371 81.0671 92.2355 81.2544 92.4327C81.6327 92.8246 81.9753 93.1894 82.1515 93.4346C82.817 94.1308 83.0178 94.2344 83.5921 94.7889C83.7572 94.9639 83.9162 95.1192 84.0665 95.2621C84.2157 95.4063 84.3549 95.5394 84.4868 95.6663C84.7529 95.9177 84.9895 96.1432 85.2249 96.365C85.4578 96.5893 85.7043 96.7939 85.9692 97.0256C86.2366 97.2548 86.5287 97.5062 86.8725 97.8019L86.5386 97.5012C86.3734 97.3866 86.3328 97.4076 86.6692 97.7095C86.801 97.8155 86.9834 97.9732 87.1744 98.1408C87.3716 98.3022 87.5811 98.4723 87.7573 98.6152C88.1122 98.8999 88.3427 99.0675 88.1196 98.8075C88.302 98.9677 88.493 99.1316 88.6914 99.2992C88.8898 99.4668 89.0944 99.6393 89.3125 99.8007C89.7475 100.127 90.1973 100.466 90.6459 100.804C91.0895 101.148 91.5578 101.456 91.9928 101.772C92.4303 102.083 92.8406 102.396 93.2177 102.679C93.1019 102.564 93.5036 102.82 93.6823 102.912C94.0372 103.145 94.3946 103.386 94.7495 103.625C94.9269 103.744 95.1032 103.864 95.2782 103.982C95.4568 104.094 95.6355 104.205 95.8105 104.316C96.163 104.535 96.5055 104.747 96.8358 104.946C97.0009 105.043 97.1636 105.139 97.3201 105.232C97.4766 105.324 97.6306 105.41 97.7835 105.485C98.0127 105.632 97.3792 105.324 97.9819 105.664C98.3466 105.853 98.0114 105.632 98.4612 105.861C98.7656 106.021 99.07 106.185 99.3731 106.352C99.6775 106.516 99.9745 106.692 100.285 106.845C100.9 107.16 101.51 107.481 102.113 107.8C102.264 107.879 102.412 107.961 102.565 108.035C102.718 108.109 102.869 108.182 103.021 108.254C103.324 108.4 103.625 108.544 103.923 108.687C104.221 108.829 104.517 108.968 104.808 109.106L104.923 109.161C104.935 109.164 104.946 109.176 104.957 109.173L104.989 109.155C105.101 109.092 105.212 109.03 105.322 108.968C109.198 106.728 113.29 104.477 117.029 102.375L116.998 102.419C118.207 101.638 119.985 100.857 120.918 100.177C121.225 100.031 122.055 99.553 121.857 99.7169C122.824 99.102 124.682 98.2073 126.085 97.3287C125.952 97.4002 125.878 97.447 125.73 97.5419C127.214 96.7729 128.464 95.9904 130.026 95.1734C129.874 95.2695 129.594 95.4346 129.561 95.4815C130.177 95.1894 130.919 94.6053 131.302 94.524C131.643 94.3329 131.517 94.3379 131.309 94.4574C132.232 93.9546 133.168 93.4358 134.112 92.9059C134.583 92.6397 135.057 92.3723 135.533 92.1037L135.872 91.9114L135.989 91.8424L136.102 91.7759L136.158 91.7426L136.185 91.7266L136.198 91.7192L136.205 91.7155C136.205 91.7155 136.208 91.713 136.205 91.7118L135.985 91.6527L135.685 91.5652C135.243 91.4284 134.802 91.2891 134.362 91.1449C133.484 90.859 132.61 90.5608 131.746 90.2527C130.402 89.7253 130.382 89.6526 130.421 89.6403C130.462 89.623 130.566 89.6551 129.487 89.2878C129.322 89.1991 129.346 89.2804 129.325 89.2459C128.909 89.1005 128.601 88.9453 128.324 88.8048C128.048 88.6631 127.803 88.5349 127.508 88.4486C127.715 88.6101 127.116 88.3328 127.083 88.3661C126.276 88.0099 125.801 87.7733 125.361 87.5725C124.924 87.3667 124.526 87.188 123.878 86.9341L123.989 86.9415C122.454 86.3746 120.764 85.5256 119.478 85.0166C115.433 83.0363 111.583 80.8539 107.932 78.4102C106.114 77.1754 104.343 75.8827 102.64 74.4963C100.947 73.0977 99.3177 71.6189 97.7748 70.0329C97.4766 69.7063 97.1784 69.3798 96.8814 69.0544C96.5856 68.7279 96.2813 68.4075 96.0064 68.0624C95.7242 67.7235 95.4433 67.3846 95.1623 67.0458L94.9516 66.7919C94.8838 66.7056 94.8185 66.6157 94.752 66.5282L94.3564 65.9995L93.9608 65.4709L93.8117 65.2725C93.8117 65.2725 93.808 65.2675 93.8043 65.27L92.5929 65.1948C91.7537 65.1431 90.9157 65.0913 90.0765 65.0395C87.6218 65.6594 85.1658 66.2805 82.6962 66.904C80.1995 67.5313 77.6868 68.1561 75.1458 68.7784C73.1248 69.1863 72.9769 69.227 70.7945 69.8185C70.8783 69.7803 71.0163 69.7421 70.866 69.7655C70.776 69.8715 69.3243 70.1623 69.1333 70.2904C68.2682 70.5073 67.4229 70.7193 66.5812 70.9288C65.7876 71.1309 64.9977 71.3318 64.2016 71.5339C63.9933 71.7581 63.7851 71.9837 63.5743 72.2104C63.3316 72.4729 63.0864 72.7378 62.8337 72.9991C62.5823 73.2616 62.3297 73.5265 62.0746 73.7952C61.8158 74.0601 61.5546 74.3263 61.2896 74.5974C61.6556 74.2129 61.7949 73.9775 61.3574 74.4298L60.931 74.9363L60.8398 74.9967C60.5429 75.3084 60.236 75.6683 60.5712 75.3725C57.6087 78.3732 54.4774 81.1582 51.2228 83.7498C47.9695 86.3438 44.5844 88.7333 41.1326 90.9897C39.4752 92.0359 37.1251 93.5282 35.3223 94.6497C32.605 96.2492 29.9913 97.7107 27.3479 99.1451C26.0257 99.8611 24.6972 100.571 23.3429 101.283C22.7896 101.573 22.2314 101.866 21.667 102.162L21.6423 102.174L21.63 102.18C21.63 102.18 21.6201 102.184 21.6263 102.188L21.6719 102.223L21.7618 102.294C21.8555 102.368 21.9504 102.442 22.0453 102.517C22.3546 102.762 22.6651 103.007 22.9781 103.256C22.9781 103.256 22.7834 103.166 22.3287 102.873C22.1118 102.735 21.7668 102.496 21.5326 102.339C21.4599 102.288 21.3835 102.235 21.3022 102.178C21.2246 102.145 21.3096 102.126 21.3404 102.101C21.3823 102.077 21.4242 102.052 21.4673 102.028C21.561 101.975 21.6583 101.919 21.7606 101.861C21.89 101.791 22.0256 101.716 22.1673 101.639H22.1611Z" fill="#1B1B1B"/>
<path d="M24.3412 102.404C24.5531 102.323 25.189 101.962 24.7195 102.311C24.6381 102.316 24.2943 102.474 24.3412 102.404Z" fill="#1B1B1B"/>
<path d="M40.9813 92.1746C40.9948 92.1499 41.2203 92.0316 41.2758 92.002C41.0786 92.1401 40.911 92.2953 40.741 92.3853C40.9406 92.246 40.8999 92.251 40.9825 92.1746H40.9813Z" fill="#1B1B1B"/>
<path d="M45.0952 89.3369C45.0558 89.4108 44.1969 90.0479 43.683 90.4151L45.0952 89.3369Z" fill="#1B1B1B"/>
<path d="M48.9543 86.7202C49.2968 86.5045 49.2167 86.5846 48.7805 86.9075C48.7374 86.9161 48.8754 86.8015 48.9543 86.7202Z" fill="#1B1B1B"/>
<path d="M49.1709 86.4584C49.4827 86.2268 49.6478 86.1294 49.8105 86.0308C49.7809 86.0173 49.1031 86.5841 49.1709 86.4584Z" fill="#1B1B1B"/>
<path d="M57.123 80.1711C57.3017 80.0035 57.6727 79.6289 57.8661 79.5032C57.6616 79.656 57.0208 80.3362 57.123 80.1711Z" fill="#1B1B1B"/>
<path d="M60.5131 76.899C60.6227 76.7943 60.6733 76.7561 60.7916 76.623C61.0011 76.4381 60.8113 76.6649 60.6449 76.8325L60.5131 76.8978V76.899Z" fill="#1B1B1B"/>
<path d="M124.014 99.2538L123.579 99.5175L123.627 99.4498L124.014 99.2538Z" fill="#1B1B1B"/>
<path d="M116.724 82.8354C116.269 82.6148 116.431 82.6382 116.359 82.5939C116.762 82.8083 116.191 82.5532 116.724 82.8354Z" fill="#1B1B1B"/>
<path d="M100.139 71.5058L100.252 71.6093L100.163 71.6278L100.139 71.5058Z" fill="#1B1B1B"/>
<path d="M24.386 104.028C24.0582 104.229 24.5979 103.983 24.1802 104.173C24.2122 104.123 24.2652 104.068 24.386 104.028Z" fill="#1B1B1B"/>
<path d="M100.322 109.943C99.1184 109.596 97.7357 108.706 96.4861 108.169C96.3419 108.101 96.5712 108.099 96.2434 107.951C95.0197 107.449 93.2624 106.332 91.9845 105.363L92.0818 105.39C91.9586 105.299 91.8046 105.226 91.6505 105.15C91.4977 105.071 91.3424 104.991 91.2118 104.895C91.2204 104.877 91.3129 104.929 91.2648 104.865C91.165 104.869 90.7657 104.562 90.6277 104.521C90.534 104.431 90.571 104.4 90.449 104.287L90.258 104.238C89.998 104.163 89.7478 103.974 89.4817 103.768C89.2167 103.562 88.937 103.335 88.6289 103.163C88.6658 103.171 88.7287 103.201 88.693 103.157C88.5722 103.084 88.4477 103.008 88.322 102.928C88.1988 102.845 88.0731 102.757 87.9462 102.668C87.6923 102.488 87.4335 102.298 87.1723 102.105C87.0417 102.007 86.9098 101.91 86.7792 101.811C86.6473 101.714 86.5167 101.614 86.3898 101.511C86.1334 101.307 85.8783 101.105 85.6319 100.909C85.6861 100.923 85.749 100.92 85.7083 100.853C85.6159 100.867 85.3041 100.632 85.0342 100.427C84.9603 100.28 84.5511 100.101 84.28 99.8064L84.3158 99.8163C84.0471 99.6782 84.0188 99.4959 83.7809 99.4047L83.6799 99.2395C83.516 99.2297 83.3977 98.9191 83.182 98.7971L83.1734 98.8181C82.9849 98.685 82.938 98.5605 82.7717 98.4287L82.7655 98.4065C82.3884 98.0836 82.2184 97.8433 82.1728 97.9086C82.0902 97.7435 82.54 98.2204 82.4057 97.9653C82.0964 97.6979 81.7895 97.4243 81.4839 97.1471C81.182 96.8661 80.8949 96.5666 80.6016 96.2721C80.312 95.9751 80.0211 95.6781 79.7328 95.3811C79.4494 95.0792 79.1795 94.7662 78.9034 94.4618C78.8024 94.3016 78.7309 94.2068 78.7248 94.1562C78.604 94.0453 78.3021 93.7064 78.1727 93.6214C78.2109 93.6608 78.132 93.5154 78.0778 93.4489C77.9028 93.2061 77.8017 93.2554 77.6181 92.9806C77.7167 93.0681 77.7648 93.0853 77.7598 93.0324C77.5356 92.8561 77.3039 92.5616 77.0784 92.3188C77.1215 92.3496 77.1782 92.4063 77.1893 92.3817C76.9058 92.1476 76.7814 91.8629 76.5448 91.6472L76.6557 91.7101C76.376 91.2812 76.4832 91.6559 76.233 91.2899C76.3094 91.365 76.3008 91.3244 76.3267 91.3281C76.01 91.0533 75.6242 90.5098 75.3519 90.2005C75.3716 90.2165 75.3778 90.2042 75.3778 90.2042C75.1042 89.8493 74.8479 89.4574 74.5275 89.0815C74.44 88.9238 74.6507 89.0643 74.366 88.6872C74.302 88.755 73.8731 88.0501 73.9495 88.3385C73.7252 88.0008 73.3999 87.4475 73.2237 87.2405C73.3543 87.3723 73.2077 87.015 73.3999 87.2898L73.305 87.0482C73.3568 87.0593 73.4393 87.2725 73.4344 87.1789C73.3383 87.0396 73.0327 86.6551 72.9674 86.5183C72.7529 86.2867 72.5102 86.1006 72.228 85.6804C72.3857 85.8615 72.2403 85.5128 72.3414 85.6409L71.8238 85.1307C71.7326 84.989 71.8669 85.0617 71.719 84.8658C71.7055 84.8892 71.6365 84.8066 71.581 84.7524C71.5539 84.6957 71.2039 84.1609 71.2458 84.0525C71.2397 83.9711 71.3999 84.2804 71.3345 84.103C71.178 83.8343 71.1435 83.838 70.987 83.5706L70.9944 83.5595C70.9008 83.3772 70.6654 83.0506 70.7295 83.2712C70.796 83.3981 70.7504 83.1972 70.8305 83.3944C70.7147 83.2934 70.5261 82.984 70.3746 82.7129C70.4387 82.7992 70.4534 82.7758 70.4966 82.8004C70.2292 82.4702 70.0012 82.0894 69.7572 81.6889C69.7165 81.7024 69.9075 81.806 69.9198 81.8774C69.6882 81.3229 69.2741 80.8176 69.1262 80.3333C69.1694 80.4023 69.0917 80.3999 69.1004 80.39C68.9747 80.13 69.0387 80.1127 68.9352 79.9538C68.9599 79.9217 68.8219 79.7467 68.727 79.5767C68.6592 79.4978 68.7208 79.5237 68.7984 79.674C68.6493 79.4473 68.1392 78.4923 67.9358 77.8995C67.9186 77.9205 67.6992 77.5853 67.6438 77.4522L67.7177 77.4805C67.6943 77.3487 67.5205 77.0418 67.5563 77.0011C67.369 76.7485 68.0812 78.0585 67.8668 77.6999C67.8668 77.5828 67.5513 77.2082 67.6573 77.2599C67.5415 76.9962 67.3751 76.7633 67.3172 76.4897C67.3406 76.5674 67.4799 76.6746 67.3862 76.4626C67.2186 76.0905 67.3147 76.3665 67.1718 76.0671L67.072 75.8822C67.0153 75.8896 66.9413 75.5396 66.9413 75.7048C66.9635 75.6419 66.6924 75.1625 66.7947 75.1675L66.8822 75.1946C66.8132 75.0319 66.7072 74.9518 66.6271 74.8335C66.6246 74.8101 66.6222 74.7608 66.6357 74.7645C66.563 74.7719 66.526 74.6092 66.4632 74.4379L66.4583 74.4219L66.4533 74.4059C66.4361 74.3541 66.3967 74.2839 66.3461 74.2555C66.2919 74.1212 66.1687 73.9906 66.0368 73.9216C65.9037 73.8513 65.7669 73.8304 65.6992 73.7984C65.5895 73.8168 65.4921 73.8575 65.4009 73.9093C65.3098 73.961 65.2235 74.0226 65.1323 74.1015C65.1582 74.0596 65.2062 74.014 65.2038 73.9869C65.1335 74.0226 65.0929 74.0633 65.0719 74.0978C65.0621 74.1114 65.0423 74.1459 65.0263 74.173C65.0091 74.2026 64.9906 74.2358 64.9647 74.2765C64.977 74.2334 64.6653 74.5624 64.4977 74.7177C64.351 74.9629 64.457 74.9222 64.4681 74.9678C64.3473 75.0368 64.2389 75.2069 64.1267 75.3844C64.0072 75.5569 63.8815 75.7343 63.7385 75.828C63.7903 75.743 63.9653 75.478 63.7915 75.6407C63.5414 75.7701 63.5155 76.0917 63.205 76.3776L63.3393 76.3579C63.2579 76.4109 63.168 76.5378 63.0928 76.6388C63.0189 76.7411 62.9523 76.8126 62.9338 76.767C62.8636 76.8915 62.5777 77.1108 62.6738 77.1355C62.4138 77.3647 62.139 77.6802 61.879 77.9636C61.6116 78.2396 61.3565 78.4824 61.1519 78.5785C61.0928 78.6586 60.9104 78.8225 60.9782 78.8188C61.1273 78.7363 61.1137 78.6315 61.1803 78.6118C61.1199 78.6759 61.1236 78.7067 61.126 78.7227C60.9621 78.8607 60.8389 78.9753 60.9289 78.7806C60.5567 79.0788 60.6947 79.2403 60.2314 79.6309C60.2264 79.5865 60.1833 79.6075 60.0589 79.7344L59.8592 80.0105C59.5659 80.2705 59.6423 80.1041 59.593 80.0659C59.4489 80.2175 59.2628 80.3913 59.2258 80.4911C59.1482 80.5317 59.0681 80.5687 58.988 80.6069C59.163 80.5243 58.8857 80.7486 58.8241 80.8263L58.8869 80.7499C58.8413 80.7573 58.6737 80.9298 58.5875 81.0173C58.6343 81.0259 58.8278 80.8719 58.9338 80.7905C58.8734 80.8817 58.7452 80.9889 58.6626 81.1072C58.6565 81.0308 58.3817 81.3044 58.2547 81.4104C58.1044 81.5287 58.1315 81.594 58.0896 81.6297C58.065 81.61 57.8555 81.8343 57.9368 81.7024C57.9787 81.6519 58.0674 81.626 58.1278 81.5336C58.0194 81.6002 57.9935 81.5496 57.8271 81.7542C57.7002 81.907 57.9454 81.8121 57.6398 82.0278C57.7039 81.9526 57.7027 81.923 57.7433 81.8565L57.4599 82.061L57.4845 82.1116C57.4402 82.1313 57.4611 82.1066 57.4402 82.1153C57.3995 82.2262 57.0495 82.4763 57.0323 82.5761C56.9029 82.6957 56.7279 82.7893 56.596 82.8941L56.617 82.8694C56.4408 82.9779 56.2498 83.1751 56.1401 83.3118V83.2971C56.0501 83.3648 55.853 83.5411 55.7655 83.6544C55.5215 83.8035 55.5597 83.5558 55.3625 83.8085C55.1431 83.9933 55.0803 84.1732 55.1912 84.1264C54.9805 84.2755 54.7784 84.4641 54.5713 84.639C54.3643 84.8128 54.1573 84.9804 53.9441 85.0962C53.8997 85.1603 53.9441 85.1418 53.8344 85.2466C53.5313 85.4733 53.2306 85.7383 52.9336 85.9761C52.6354 86.2127 52.347 86.4296 52.0759 86.5713C52.2361 86.4185 52.0537 86.5183 52.0315 86.4974C51.9182 86.6465 51.8282 86.5898 51.8282 86.697C51.8726 86.7254 51.8726 86.7549 52.0537 86.6416C51.8837 86.7907 51.6618 86.9694 51.4548 87.1259C51.2466 87.2811 51.0519 87.4118 50.9372 87.4684C51.0519 87.4118 50.9828 87.482 50.9126 87.5535C50.8917 87.4709 50.6181 87.6607 50.4332 87.8344V87.8948L50.273 87.9527C50.2053 88.023 50.2471 88.0982 50.0204 88.2103C49.9995 88.2029 49.976 88.1967 49.9317 88.2128C49.7481 88.4025 49.4893 88.6712 49.2367 88.8055L49.0074 88.8856C48.915 88.9632 48.7745 89.1173 48.9594 89.0076C48.5441 89.2578 48.2902 89.4365 48.1313 89.4771C47.8392 89.7827 47.4436 90.1056 47.0271 90.426C46.6094 90.7464 46.1657 91.0606 45.764 91.3293L45.7664 91.2837C45.5335 91.4045 45.6925 91.4119 45.5286 91.4944C45.5779 91.418 45.324 91.5462 45.467 91.3946C45.1404 91.5745 45.1096 91.7187 44.9211 91.8703C44.9174 91.9307 45.0628 91.7347 45.0591 91.8111C45.0345 91.8493 44.6167 92.0736 44.6093 92.166C44.5169 92.1956 44.5465 92.1118 44.5711 92.0588L44.4035 92.2153C44.1275 92.3041 44.8397 91.7347 44.5415 91.8136L44.3764 91.9418C44.1706 91.9935 44.7831 91.5585 44.337 91.8345C44.1694 91.991 44.0671 92.187 44.2519 92.0983C43.8711 92.3805 44.1669 92.3632 43.7418 92.6442C43.6025 92.6873 44.0732 92.4063 43.9586 92.4125C43.727 92.5 43.5779 92.7095 43.3905 92.813C43.6013 92.7021 43.4768 92.8746 43.3573 92.972C43.1244 93.0903 43.4583 92.8216 43.1502 93.0213C43.1231 93.089 42.8619 93.3047 43.1194 93.1654C43.0627 93.3183 42.7892 93.3589 42.6622 93.529C42.5255 93.5401 42.8915 93.1926 42.5378 93.3885C42.6265 93.4057 42.1718 93.736 42.4022 93.6966C42.2605 93.7693 42.2186 93.736 42.2925 93.6399C42.0831 93.7323 41.9007 94.0404 41.7688 93.9763L41.7405 94.0737C41.6702 94.0946 41.5766 94.1377 41.462 94.1722C41.2956 94.2832 40.9764 94.5999 40.937 94.5074C40.8889 94.5506 40.5069 94.7958 40.6905 94.7564C40.9493 94.6368 40.9345 94.537 41.1169 94.5284C40.9087 94.5752 40.7817 94.7588 40.6585 94.8697L40.6154 94.8525C40.5427 94.9178 40.3504 95.0336 40.3221 95.1014C40.3726 95.0423 40.3258 95.0423 40.2555 95.0768L40.2013 95.1815C39.8858 95.4218 40.0682 95.147 39.7552 95.3713L39.9758 95.1741C39.9277 95.2173 39.7885 95.2431 39.6443 95.359C39.6135 95.4428 39.5359 95.5697 39.5063 95.6362C39.3362 95.773 39.3929 95.6387 39.2426 95.7989L39.4434 95.5943C39.4693 95.5574 39.2376 95.6227 38.9949 95.7804C38.8495 95.895 38.6486 96.1156 38.9098 95.9813C38.7878 96.0602 38.5993 96.144 38.6757 96.0491C38.4083 96.2425 38.7422 96.0737 38.5217 96.2549C38.4046 96.2881 38.0743 96.4409 37.8636 96.5161L38.0657 96.282L37.8993 96.388C38.0756 96.1908 37.7613 96.4126 37.8427 96.2721C37.7243 96.335 37.5999 96.4434 37.5001 96.5284C37.8969 96.4188 37.2154 96.9018 37.3694 96.9326C36.9295 97.2456 36.9431 96.8883 36.5598 97.3331C36.6522 97.3073 36.4723 97.5192 36.7434 97.3122C36.4538 97.481 36.6091 97.5266 36.2505 97.6991C36.4748 97.5057 35.9252 97.7718 36.2505 97.4933C36.2456 97.5389 36.4649 97.3911 36.5142 97.3467C36.375 97.3849 36.4797 97.2383 36.1901 97.4219C36.0188 97.5414 35.7761 97.6942 35.8414 97.7213C35.882 97.7694 36.1088 97.5463 36.0287 97.6708C35.6861 97.9099 35.5777 97.8655 35.4889 98.0516C35.7083 97.9049 35.7982 97.9247 35.8167 97.9629L35.5703 98.1465L35.5986 98.0799C35.1661 98.3141 35.5148 98.2204 35.1057 98.4632L34.8728 98.5112C34.9319 98.3917 35.4766 98.1711 35.3447 98.1194C35.0798 98.2783 35.0231 98.3831 34.7606 98.5112C34.8112 98.4681 34.8839 98.4188 34.9332 98.3769C34.837 98.4324 34.6633 98.3621 34.3342 98.6677C34.158 98.8168 34.3047 98.7343 34.3219 98.7737C33.9054 99.0448 33.8019 99.1594 33.5332 99.3332C33.5456 99.2272 33.0465 99.6216 33.304 99.364C33.4679 99.3209 34.0779 98.9401 34.1851 98.7799C33.9793 98.7897 34.524 98.5876 34.5622 98.4459C34.2221 98.6529 34.1864 98.5593 34.0989 98.5383C34.0028 98.5926 33.9251 98.6714 33.8746 98.7146C33.866 98.791 33.9892 98.7146 34.0286 98.7626C33.6417 98.9807 33.2954 99.2346 33.1167 99.4108C32.9738 99.4626 32.9836 99.3862 33.1303 99.2901C32.6879 99.5797 32.2011 99.8655 31.7624 100.11C32.0914 100.027 31.2941 100.418 31.5258 100.373C31.7686 100.254 32.0027 100.195 31.898 100.309C31.7501 100.391 31.8807 100.27 31.8092 100.288C31.6527 100.445 31.479 100.386 31.3422 100.567C31.7402 100.292 31.3607 100.415 31.3976 100.304C31.1216 100.52 31.3816 100.25 31.0871 100.426C30.8111 100.642 30.4635 100.89 30.1394 101.1C29.6859 101.285 29.0833 101.724 28.7112 101.944C28.4968 102.025 28.5843 101.873 28.3649 101.984C28.1172 102.131 28.5966 101.957 28.2084 102.138L28.2355 102.102C28.1345 102.185 27.5294 102.444 27.4826 102.615L27.5491 102.467C27.4764 102.499 27.4234 102.556 27.3704 102.596C27.3519 102.572 27.2583 102.594 27.3606 102.511C27.1005 102.588 26.8861 102.796 26.6397 102.94L26.827 102.897C26.424 103.179 26.111 103.294 25.7093 103.544L25.6945 103.49L25.4653 103.657C25.4985 103.577 25.257 103.675 25.1486 103.787L25.7204 103.31C25.9126 103.237 25.5602 103.477 25.6969 103.461C25.814 103.449 26.1886 103.219 26.2244 103.139C26.0753 103.216 26.074 103.231 25.9705 103.312C25.8843 103.274 26.1073 103.151 26.1923 103.044C26.1172 103.089 25.9976 103.131 25.9927 103.162C26.1246 103.045 26.2724 102.954 26.5214 102.808C26.3673 102.932 26.6372 102.796 26.583 102.851C26.5694 102.781 26.7974 102.627 27.1153 102.467C27.3741 102.407 27.6674 102.09 28.0346 101.901C27.925 102.043 27.7672 102.197 27.5639 102.347C27.8042 102.248 27.8116 102.202 28.0531 102.101C28.1357 101.995 28.1739 101.882 28.4499 101.686L28.4906 101.72C28.742 101.544 28.7038 101.48 29.0464 101.295C29.6317 100.977 30.2232 100.63 30.6619 100.373L30.7038 100.407C30.8912 100.169 31.4938 99.889 31.7944 99.6511C32.3736 99.3554 32.9738 98.8822 33.3016 98.7799C34.2566 98.1502 35.086 97.5907 36.0989 96.977L35.9695 97.1446C36.1211 96.9869 36.1088 97.1064 36.2788 96.9856C36.0459 97.0645 36.4822 96.7675 36.5832 96.6517C37.0589 96.4175 37.5999 96.0047 37.9634 95.7077L38.0053 95.7398C38.3516 95.4046 38.8716 95.1717 39.3732 94.8623C39.441 94.8426 39.5556 94.8241 39.6998 94.7231C39.9228 94.4803 40.0658 94.3941 40.4305 94.0958C40.7176 93.9098 41.1896 93.6189 41.4965 93.4526C42.0005 93.0484 42.5365 92.6811 43.0751 92.3065C43.6148 91.9331 44.1657 91.5647 44.6931 91.1531L44.8065 91.1469C45.8022 90.3089 47.1664 89.4796 48.0228 88.7784L47.9957 88.9226C48.2939 88.7439 48.6193 88.4358 48.5059 88.4309C48.8041 88.251 49.1787 87.8825 49.4042 87.816C49.7 87.6176 49.7246 87.5177 49.9526 87.3304C50.5429 86.9324 50.7536 86.7734 51.2712 86.3483L51.1357 86.4444C51.0913 86.5072 51.111 86.5454 51.2478 86.4481C51.4289 86.2731 51.9921 85.9071 51.7222 85.965C52.0266 85.774 52.3482 85.5091 52.6687 85.2441C52.9854 84.9767 53.3021 84.713 53.6027 84.5331C53.5362 84.5442 53.6693 84.4296 53.7137 84.3667C54.2053 83.9785 54.7513 83.6039 55.1025 83.2428C55.19 83.1911 55.0162 83.387 55.2146 83.2268C55.3231 83.1208 55.19 83.1911 55.3218 83.0592C55.6965 82.7154 56.0933 82.3901 56.4864 82.0771C56.8782 81.7628 57.2738 81.4695 57.6078 81.1491C57.9011 80.862 58.2018 80.5773 58.5061 80.2939C58.6589 80.1534 58.8093 80.0105 58.9584 79.8651C59.1075 79.7209 59.2578 79.5767 59.407 79.4337C59.5561 79.2908 59.7064 79.1478 59.8543 79.0061L60.0773 78.7942C60.1488 78.7215 60.2203 78.6488 60.2918 78.5773C60.5764 78.2877 60.8574 78.0018 61.131 77.7221L61.1359 77.7516C61.2899 77.536 61.5142 77.3252 61.7249 77.1195C61.9369 76.9149 62.1365 76.7153 62.2265 76.5156C62.3275 76.4404 62.5543 76.1743 62.5272 76.2728C62.7478 75.913 63.3307 75.4238 63.6511 74.9062C63.6153 74.9493 63.6005 74.9777 63.5673 75.0319C63.778 74.8101 63.9456 74.5759 64.1193 74.3418C64.2056 74.2247 64.2931 74.1052 64.3843 73.9869C64.4299 73.9278 64.4779 73.8674 64.5272 73.807C64.5642 73.7602 64.6554 73.6542 64.7343 73.5901C64.7059 73.6246 64.6665 73.669 64.6332 73.7195C64.595 73.7725 64.5888 73.7971 64.5913 73.8131C64.6036 73.8021 64.6147 73.791 64.6258 73.7786C64.6406 73.7626 64.6566 73.7454 64.6726 73.7281C64.7035 73.6911 64.733 73.6628 64.7638 73.6283C64.8255 73.5642 64.8908 73.4977 64.961 73.4447C65.1003 73.335 65.2555 73.2722 65.3566 73.3067C65.5353 73.2635 65.4761 73.2204 65.3603 73.2487C65.7029 73.1686 66.0787 73.2155 66.3942 73.4016C66.5507 73.494 66.6875 73.616 66.7947 73.754C66.8489 73.823 66.8957 73.8957 66.9389 73.9709C66.982 74.0485 67.0153 74.1188 67.0498 74.2186V74.2223L67.0522 74.226C67.3887 75.0664 67.7695 75.9266 68.1465 76.7608C68.5027 77.7541 67.9913 76.8989 68.4053 77.6247C68.4127 77.6962 68.4657 77.6518 68.4485 77.6715C68.6062 77.9525 68.536 78.1817 68.6851 78.3604C68.7109 78.247 68.7837 78.4787 68.8256 78.4664C69.0523 79.0714 69.0548 79.2144 69.3246 79.6494L69.2741 79.6309C69.3628 79.7541 69.4454 79.886 69.5243 80.0216C69.6056 80.1559 69.6832 80.2939 69.7596 80.4295C69.9137 80.6993 70.0591 80.9593 70.2329 81.1528C71.0031 82.6033 71.8213 83.9872 72.6815 85.3316C73.5453 86.6736 74.4535 87.9737 75.4049 89.2565C75.6366 89.5757 75.8658 89.8961 76.1085 90.2054C76.3501 90.516 76.5842 90.8314 76.8319 91.1346C77.3322 91.7384 77.8313 92.3423 78.3316 92.9461C78.8529 93.5314 79.3766 94.1193 79.9016 94.7095C80.0298 94.8599 80.1678 95.0028 80.3046 95.1458C80.4414 95.29 80.5782 95.4329 80.7149 95.5771C80.9873 95.8667 81.2609 96.1587 81.5357 96.4508C81.7587 96.7589 81.8955 96.9092 82.0421 97.062C82.19 97.2124 82.3576 97.3578 82.6706 97.6289C82.6361 97.6178 82.5955 97.5845 82.625 97.6338C82.7101 97.6042 83.0514 98.0306 83.1611 98.0282C83.2671 98.1317 83.3718 98.2352 83.4778 98.335C83.5862 98.4324 83.6947 98.5285 83.8019 98.6246C84.0188 98.8156 84.2332 99.0042 84.4489 99.1939C84.6645 99.3825 84.8814 99.5723 85.102 99.7657C85.3238 99.9555 85.5579 100.14 85.7921 100.335C85.6381 100.219 85.5197 100.208 85.7009 100.35L85.919 100.463L85.935 100.505C86.0632 100.596 86.2209 100.674 86.1125 100.551C88.5192 102.444 90.8902 104.323 93.4633 105.884C93.7615 106.081 94.1336 106.302 94.5144 106.521C94.7054 106.63 94.8977 106.743 95.0875 106.844C95.2785 106.945 95.4633 107.043 95.6346 107.134C97.5866 108.35 99.4166 109.354 101.589 110.227C101.589 110.227 101.227 110.295 100.321 109.942L100.322 109.943Z" fill="#1B1B1B"/>
<path d="M24.7864 103.796C24.8776 103.791 25.1241 103.679 24.9626 103.83C24.9207 103.81 24.779 103.84 24.7864 103.796Z" fill="#1B1B1B"/>
<path d="M31.2116 100.547C31.2128 100.532 31.3077 100.508 31.3311 100.502C31.2572 100.55 31.2029 100.622 31.1315 100.64C31.2066 100.591 31.1857 100.582 31.2116 100.547Z" fill="#1B1B1B"/>
<path d="M32.7996 99.6123C32.7947 99.6579 32.473 99.8859 32.2759 100.01L32.7996 99.6123Z" fill="#1B1B1B"/>
<path d="M34.3391 98.8458C34.4808 98.794 34.455 98.8298 34.2849 98.9333C34.2627 98.9247 34.3133 98.8815 34.3391 98.8458Z" fill="#1B1B1B"/>
<path d="M34.3996 98.7117C34.5204 98.6366 34.5919 98.6168 34.6621 98.5984C34.6412 98.575 34.391 98.7881 34.3996 98.7117Z" fill="#1B1B1B"/>
<path d="M37.6112 96.8242C37.6851 96.7737 37.833 96.6456 37.9254 96.6345C37.8318 96.6616 37.5816 96.9056 37.6112 96.8242Z" fill="#1B1B1B"/>
<path d="M39.0394 95.8479C39.0875 95.8196 39.1109 95.8134 39.1602 95.7691C39.2551 95.7272 39.1787 95.8085 39.1072 95.8578L39.0394 95.8479Z" fill="#1B1B1B"/>
<path d="M63.521 76.1068L63.4138 76.2608L63.4039 76.2164L63.521 76.1068Z" fill="#1B1B1B"/>
<path d="M70.2228 82.5925C70.3337 82.7453 70.2561 82.7232 70.2671 82.7527C70.1821 82.6061 70.3362 82.786 70.2228 82.5925Z" fill="#1B1B1B"/>
<path d="M74.3269 88.8106L74.2936 88.765L74.3638 88.7379L74.3269 88.8106Z" fill="#1B1B1B"/>
<path d="M98.4871 112.299C98.9898 112.505 98.2455 112.121 98.8235 112.418C98.7446 112.415 98.6399 112.392 98.4871 112.299Z" fill="#1B1B1B"/>
<path d="M68.7449 90.0075C67.1848 90.8171 64.9716 91.4776 63.2303 92.2848C63.0245 92.3735 63.2476 92.1677 62.7842 92.3748C61.1083 93.1844 58.3528 94.1666 56.2061 94.8825L56.3232 94.8061C55.914 94.9429 55.4593 95.2239 55.0292 95.3767C55.0182 95.3607 55.1549 95.2978 55.0465 95.3126C54.9602 95.4087 54.2886 95.6367 54.1235 95.7476C53.9473 95.792 53.9473 95.7427 53.7205 95.8031L53.5012 95.9596C52.8825 96.3699 51.8548 96.5893 50.9614 97.0255C51.0008 96.9935 51.0871 96.9467 51.0082 96.9615C49.5615 97.6281 47.7019 98.3343 46.058 99.0133C46.1159 98.9652 46.1615 98.9024 46.0543 98.9159C45.9976 99.0133 45.4923 99.2289 45.0536 99.415C44.8281 99.4261 44.3155 99.7724 43.7807 99.9387L43.8189 99.9067C43.4615 100.127 43.2323 100.089 42.9525 100.295L42.6876 100.338C42.5545 100.498 42.1121 100.507 41.8126 100.678L41.8299 100.694C41.5391 100.835 41.3641 100.848 41.093 100.971H41.0622C40.4201 101.25 40.0209 101.345 40.0652 101.413C39.8138 101.443 40.6863 101.14 40.2944 101.193C38.181 102.105 35.9653 102.952 33.8087 103.795C33.5524 103.861 33.3922 103.913 33.3269 103.907C33.1174 104.005 32.521 104.237 32.3398 104.35C32.4113 104.321 32.1858 104.368 32.0712 104.408C31.6682 104.534 31.6744 104.656 31.2307 104.792C31.3946 104.705 31.4427 104.659 31.3749 104.654C31.0299 104.854 30.5345 105.037 30.1069 105.225C30.1697 105.187 30.272 105.138 30.2461 105.122C29.7963 105.372 29.3736 105.446 28.9731 105.649L29.1124 105.546C28.9386 105.599 28.8437 105.635 28.7908 105.662C28.7353 105.69 28.7144 105.711 28.6959 105.733C28.6589 105.776 28.6207 105.823 28.3102 105.927C28.4691 105.849 28.4235 105.848 28.458 105.814C28.3151 105.892 28.1376 105.976 27.9466 106.061C27.8505 106.103 27.7519 106.145 27.6509 106.188C27.5523 106.228 27.4414 106.278 27.3551 106.307C27.0076 106.433 26.6588 106.559 26.3939 106.655C26.4321 106.639 26.4407 106.63 26.4407 106.63C26.3717 106.655 26.3027 106.68 26.2325 106.704L26.1807 106.723L26.1548 106.731C26.1462 106.731 26.1363 106.724 26.1265 106.72L26.0143 106.668C25.8652 106.598 25.7137 106.528 25.5609 106.456C25.2836 106.386 25.5609 106.311 25.6496 106.238C25.7679 106.166 25.8776 106.092 25.9675 106.025C26.0673 105.967 26.1462 105.943 26.2325 105.912C26.2768 105.896 26.3237 105.878 26.3828 105.853C26.4457 105.826 26.5184 105.791 26.6034 105.745C26.6552 105.717 26.7155 105.683 26.7858 105.641C26.4087 105.748 27.7125 105.071 27.0606 105.321C27.3748 105.15 27.7803 104.93 28.1598 104.724C28.2473 104.675 28.3323 104.628 28.4137 104.581C28.4839 104.54 28.5517 104.501 28.6158 104.465C28.7427 104.391 28.8511 104.323 28.9288 104.269C28.7242 104.428 29.2258 104.226 28.8191 104.471L29.1568 104.339C29.1296 104.398 28.8314 104.513 28.9534 104.497C29.158 104.375 29.7372 103.993 29.9282 103.899C30.2794 103.63 30.5739 103.333 31.1814 102.959C30.9116 103.16 31.3971 102.948 31.2086 103.079L31.9726 102.418C32.1735 102.292 32.0539 102.454 32.3361 102.257C32.3078 102.246 32.4286 102.156 32.5087 102.085C32.59 102.048 33.3392 101.556 33.4736 101.579C33.5808 101.556 33.1532 101.796 33.3947 101.686C33.7681 101.458 33.7693 101.422 34.1415 101.192L34.155 101.198C34.4089 101.058 34.8611 100.719 34.5666 100.842C34.3941 100.944 34.6603 100.848 34.3929 100.981C34.5383 100.83 34.9647 100.552 35.3368 100.321C35.2173 100.412 35.2456 100.423 35.2074 100.476C35.6695 100.104 36.1871 99.7563 36.7281 99.383C36.7146 99.3411 36.563 99.5801 36.4681 99.6109C37.2124 99.2117 37.8939 98.614 38.5298 98.3071C38.4373 98.3762 38.4447 98.2899 38.4583 98.2948C38.8021 98.0804 38.8206 98.142 39.0301 97.9794C39.072 97.9966 39.3036 97.7896 39.5255 97.6343C39.629 97.5357 39.5945 97.6109 39.3973 97.7427C39.6992 97.5123 40.9389 96.6374 41.6968 96.1962C41.6697 96.1851 42.0961 95.824 42.2637 95.7156L42.2292 95.8055C42.4005 95.7316 42.7874 95.4272 42.8429 95.4494C43.1633 95.1537 41.4972 96.4155 41.9519 96.0495C42.1035 96.0052 42.5754 95.5258 42.5138 95.6589C42.8503 95.4346 43.1374 95.1598 43.4874 94.9873C43.39 95.0427 43.2594 95.2362 43.528 95.0501C43.9975 94.7186 43.6488 94.9355 44.0234 94.6583L44.2526 94.4746C44.2378 94.4192 44.6802 94.1912 44.4695 94.2615C44.5533 94.259 45.1399 93.7624 45.1424 93.8708L45.1177 93.9756C45.3186 93.8301 45.4085 93.681 45.5515 93.5442C45.5823 93.5319 45.6439 93.506 45.6402 93.5221C45.6094 93.4087 46.1344 93.193 46.3242 92.9515C46.7703 92.6804 47.4049 92.1875 47.6452 92.1012C47.9508 91.8412 48.2219 91.5923 48.6052 91.3421C48.5374 91.4037 48.4388 91.4801 48.4314 91.5146C48.6816 91.3717 48.7222 91.3064 48.9231 91.1388C48.8849 91.1856 49.4259 90.8541 49.7019 90.6927C50.0014 90.4277 49.856 90.4622 49.8671 90.4092C50.222 90.2761 50.726 89.6834 51.145 89.4825C51.0464 89.5799 50.7149 89.8756 50.9959 89.6994C51.3495 89.5626 51.5282 89.188 52.0236 88.8701L51.8548 88.8873C52.0951 88.7715 52.5055 88.3192 52.5141 88.4277C52.6472 88.2798 53.0723 88.0198 52.9676 87.9914C53.3656 87.7191 53.8203 87.3494 54.2344 87.0056C54.6485 86.6618 55.0329 86.3549 55.3114 86.2255C55.4088 86.1269 55.6824 85.9174 55.5986 85.9273C55.3928 86.0382 55.3755 86.159 55.288 86.1885C55.3817 86.1072 55.3866 86.0715 55.3891 86.0542C55.6331 85.8792 55.8118 85.7264 55.6466 85.968C56.1864 85.5736 56.0693 85.406 56.7323 84.8786C56.7274 84.9304 56.7853 84.8995 56.9689 84.7332L57.2758 84.3721C57.691 84.016 57.5617 84.2242 57.6122 84.2612C57.8217 84.0566 58.0903 83.8188 58.1569 83.6956C58.2616 83.634 58.3688 83.576 58.4711 83.512C58.2456 83.65 58.6202 83.3185 58.7089 83.2125L58.6202 83.3185C58.6769 83.3 58.911 83.0548 59.0293 82.9315C58.9739 82.9315 58.7139 83.1583 58.5697 83.2803C58.6596 83.157 58.8322 83.0018 58.9529 82.8416C58.9468 82.9303 59.3276 82.5434 59.5001 82.3881C59.7034 82.2143 59.6763 82.1392 59.733 82.0862C59.7601 82.1034 60.0411 81.7806 59.9265 81.9592C59.8698 82.0307 59.7601 82.0849 59.6738 82.2119C59.8131 82.1034 59.8377 82.1564 60.0657 81.8693C60.237 81.6524 59.9314 81.836 60.3245 81.4922C60.2395 81.6006 60.2382 81.6351 60.1803 81.7251L60.5451 81.3998L60.5204 81.3468C60.5771 81.3098 60.5476 81.3455 60.5747 81.3283C60.6042 81.2568 60.7324 81.1213 60.8556 80.9882C60.9739 80.8514 61.0898 80.7158 61.1033 80.653C61.2648 80.4681 61.4804 80.2981 61.6443 80.1292L61.6172 80.165C61.7257 80.0701 61.8415 79.9493 61.9462 79.8261C62.0485 79.7016 62.136 79.5722 62.2001 79.4687V79.486C62.3048 79.3701 62.5365 79.0818 62.6376 78.9117C62.9222 78.6357 62.8877 78.945 63.1095 78.5605C63.3523 78.2389 63.4139 77.9973 63.2882 78.1046C63.4053 77.9665 63.5199 77.8199 63.6333 77.6683C63.69 77.5919 63.7454 77.5155 63.8021 77.4391C63.8304 77.4009 63.8526 77.3664 63.9032 77.3085C63.9475 77.2579 63.9882 77.216 64.0362 77.1742C64.2236 77.0103 64.4577 76.9006 64.698 76.8673C64.9383 76.8316 65.1811 76.8747 65.3758 76.977C65.4423 76.9942 65.4583 76.9918 65.4904 76.9979C65.52 77.0078 65.5717 77.0201 65.6925 77.1014C65.8059 77.1914 65.9032 77.2974 65.9821 77.412C66.0215 77.4699 66.0585 77.5291 66.0893 77.5907C66.1226 77.6548 66.1484 77.7114 66.1768 77.794V77.7977L66.1792 77.8014C66.4898 78.5975 66.857 79.4022 67.0382 80.0491C66.8965 79.7756 66.979 80.0516 66.9531 80.0701C67.0985 80.2845 67.0271 80.3708 67.1404 80.4213C67.1762 80.3782 67.2082 80.3917 67.1084 80.1095C67.3783 80.6813 67.7726 81.5563 67.8811 81.8939C67.8281 81.7251 67.8996 81.8422 67.971 81.9605C67.8786 81.9518 68.0647 82.3807 68.2446 82.6863L68.3099 82.7109L68.3641 82.9389C68.4368 83.0548 68.5206 83.0289 68.6353 83.3628C68.6266 83.3875 68.6192 83.4134 68.6353 83.4774C68.8312 83.788 69.1282 84.2119 69.2748 84.5828C69.3032 84.69 69.3352 84.7948 69.3648 84.902C69.4523 85.0474 69.6236 85.2779 69.5003 85.0068C69.7801 85.6229 69.9945 86.0025 70.0438 86.2206C70.7425 87.1633 71.6199 88.6014 72.3605 89.7327L72.3088 89.7191C72.4801 90.0408 72.4653 89.8411 72.5861 90.0654C72.4912 89.9865 72.6797 90.3365 72.4838 90.1233C72.745 90.5756 72.9089 90.6446 73.116 90.912C73.1837 90.9268 72.936 90.7062 73.0235 90.7259C73.0691 90.7641 73.4043 91.3372 73.5103 91.3606C73.5633 91.4826 73.461 91.4308 73.3969 91.3902L73.6101 91.6292C73.7678 91.9952 72.9742 90.9933 73.127 91.3852L73.307 91.6194C73.408 91.8917 72.7882 91.034 73.1936 91.6502C73.408 91.8917 73.6532 92.0519 73.5128 91.8017C73.9194 92.3279 73.8307 91.9521 74.2497 92.5288C74.3322 92.7112 73.9009 92.0753 73.9354 92.2207C74.0882 92.5264 74.3643 92.7445 74.5282 92.9946C74.3495 92.7137 74.5762 92.8936 74.7167 93.0562C74.9114 93.3643 74.5196 92.9108 74.8264 93.3224C74.9114 93.3643 75.2257 93.718 74.9977 93.3779C75.1862 93.4666 75.3045 93.8166 75.5411 93.9854C75.5966 94.1555 75.0852 93.6724 75.4192 94.1284C75.4118 94.0199 75.9306 94.6114 75.8135 94.3218C75.9404 94.5042 75.9158 94.5535 75.7827 94.4537C75.954 94.7236 76.3594 94.9713 76.3298 95.1327L76.4481 95.1746C76.495 95.2646 76.5726 95.3841 76.649 95.532C76.8191 95.755 77.3083 96.1481 77.2146 96.1962C77.2824 96.2566 77.7026 96.7335 77.5905 96.5043C77.3576 96.1826 77.2504 96.1987 77.1727 95.9744C77.3021 96.2319 77.5597 96.3921 77.731 96.5449L77.7273 96.5979C77.8283 96.6891 78.0317 96.9282 78.1179 96.9639C78.0329 96.9011 78.0489 96.959 78.1155 97.0453L78.2535 97.1118C78.4482 97.3077 78.4507 97.3484 78.4519 97.3903C78.4519 97.431 78.4482 97.4741 78.6429 97.6602C78.5369 97.5739 78.4309 97.4852 78.3311 97.3928C78.3644 97.4223 78.4014 97.4815 78.4543 97.5542C78.5086 97.6257 78.5788 97.7107 78.6762 97.797C78.7846 97.8327 78.9608 97.9239 79.0508 97.9572C79.2775 98.158 79.1025 98.0952 79.349 98.2714L79.0311 98.0348C78.9781 98.004 79.1518 98.285 79.4353 98.5746C79.6287 98.7483 79.9627 98.9825 79.699 98.6694C79.8407 98.8149 80.0157 99.0416 79.8764 98.9529C80.2104 99.2696 79.874 98.8703 80.1747 99.1303C80.2671 99.2671 80.5973 99.6516 80.7834 99.8993L80.4224 99.6763L80.622 99.8673C80.3139 99.6713 80.7156 100.031 80.5185 99.9461C80.6466 100.085 80.8303 100.225 80.9757 100.337C80.659 99.8697 81.5351 100.645 81.4932 100.455C81.7742 100.706 81.8186 100.831 81.8777 100.948C81.9356 101.065 82.0096 101.172 82.362 101.369C82.2844 101.262 82.6171 101.447 82.2413 101.155C82.5838 101.475 82.5518 101.284 82.935 101.685C82.5986 101.447 83.1914 102.06 82.7058 101.716C82.7601 101.716 82.4766 101.475 82.4015 101.424C82.5185 101.584 82.2992 101.479 82.659 101.798C82.8858 101.986 83.1877 102.251 83.1815 102.169C83.2123 102.114 82.8414 101.877 83.0238 101.954C83.4723 102.328 83.4958 102.451 83.7508 102.524C83.4613 102.296 83.4317 102.188 83.4637 102.159L83.8112 102.412L83.72 102.391C84.2302 102.851 83.9246 102.463 84.4299 102.894L84.6184 103.155C84.452 103.108 83.8913 102.514 83.9098 102.678C84.2413 102.958 84.3892 103.004 84.6849 103.287C84.6085 103.236 84.5112 103.16 84.4348 103.111C84.4939 103.161 84.5284 103.241 84.6159 103.349C84.7047 103.455 84.839 103.596 85.1138 103.748C85.3886 103.915 85.2062 103.768 85.2383 103.738C85.7977 104.152 85.9887 104.243 86.3473 104.512C86.2857 104.517 86.441 104.64 86.5568 104.731C86.6739 104.821 86.7515 104.88 86.526 104.768C86.3744 104.589 85.5759 103.981 85.3307 103.893C85.4724 104.124 84.9018 103.554 84.7293 103.531C85.1631 103.885 85.0867 103.938 85.1175 104.045C85.2382 104.143 85.3738 104.214 85.4539 104.263C85.5426 104.256 85.3812 104.132 85.4108 104.076C85.8975 104.466 86.388 104.815 86.7022 104.967C86.8538 105.112 86.7651 105.122 86.5605 104.983C86.8674 105.192 87.1804 105.415 87.4872 105.638C87.7941 105.861 88.0923 106.089 88.3819 106.29C88.0602 105.955 89.0473 106.71 88.8354 106.469C88.5347 106.24 88.3055 106 88.5027 106.081C88.6949 106.217 88.4718 106.111 88.5421 106.184C88.8206 106.307 88.881 106.516 89.1718 106.61C88.5926 106.259 88.9956 106.636 88.8489 106.631C89.279 106.869 88.8009 106.665 89.2026 106.936C89.6278 107.18 90.1577 107.462 90.6235 107.739C90.7578 107.845 90.9155 107.956 91.0856 108.068C91.2569 108.178 91.443 108.283 91.6253 108.387C91.9926 108.595 92.3573 108.789 92.6198 108.943C92.8774 109.133 92.6469 109.103 92.9415 109.285C93.2964 109.481 92.7246 109.057 93.2298 109.383L93.1707 109.37C93.3395 109.439 94.1023 109.961 94.3229 109.927L94.1146 109.924C94.2095 109.983 94.3118 110.013 94.3993 110.047C94.3882 110.077 94.4917 110.162 94.3204 110.094C94.6186 110.323 95.0154 110.449 95.3741 110.632C95.305 110.577 95.2373 110.518 95.1695 110.463C95.485 110.604 95.7437 110.73 95.9964 110.863C96.2502 110.994 96.4955 111.133 96.8023 111.264L96.7604 111.304L97.1338 111.444C97.0241 111.45 97.3396 111.636 97.5479 111.685L96.5546 111.366C96.3094 111.212 96.8664 111.441 96.7271 111.314C96.6076 111.209 96.0494 110.945 95.936 110.948C96.1455 111.059 96.1615 111.053 96.334 111.117C96.371 111.221 96.0506 111.058 95.8682 111.023C95.9803 111.076 96.1295 111.175 96.1627 111.165C95.9286 111.09 95.7043 110.985 95.3395 110.807C95.5996 110.903 95.2262 110.698 95.3297 110.725C95.2693 110.772 94.9169 110.608 94.4806 110.358C94.3401 110.24 94.1257 110.142 93.8829 110.035C93.6439 109.924 93.3752 109.805 93.1263 109.653C93.3654 109.709 93.655 109.81 93.9778 109.955C93.6747 109.749 93.6217 109.759 93.3186 109.552C93.1399 109.51 92.992 109.516 92.5594 109.311L92.5619 109.255C92.175 109.06 92.1392 109.122 91.6722 108.83C91.4713 108.705 91.2704 108.58 91.0708 108.457C90.8712 108.333 90.6777 108.204 90.4879 108.083C90.1084 107.84 89.7535 107.612 89.4503 107.418L89.4552 107.361C89.0646 107.227 88.3264 106.649 87.8532 106.387C87.4946 106.1 87.083 105.819 86.7195 105.567C86.5383 105.44 86.3671 105.323 86.2241 105.212C86.0824 105.098 85.9653 104.995 85.8852 104.906C85.2346 104.426 84.6122 103.989 84.022 103.501C83.7237 103.26 83.4243 103.018 83.1187 102.771C82.8143 102.52 82.5198 102.244 82.2067 101.966L82.4655 102.098C82.2055 101.939 82.3472 101.938 82.1205 101.75C82.3349 102.018 81.7643 101.536 81.5795 101.43C81.3146 101.166 81.0114 100.865 80.6996 100.591C80.3891 100.313 80.0761 100.055 79.8185 99.8426L79.8345 99.7896C79.7655 99.7403 79.6965 99.6873 79.63 99.6307C79.5647 99.5727 79.4994 99.5111 79.434 99.4483C79.3034 99.3213 79.1728 99.1846 79.0422 99.0404C78.7797 98.7545 78.5123 98.4439 78.2276 98.1396C78.1771 98.0558 78.1019 97.919 77.9343 97.7366C77.5732 97.4544 77.4192 97.2745 76.9386 96.8123C76.7772 96.6312 76.5677 96.3909 76.3619 96.1469C76.1659 95.8943 75.9725 95.6392 75.827 95.4395C74.559 94.1185 73.4856 92.5867 72.3556 91.0624L72.3273 90.9157C71.7542 90.1923 71.1935 89.3322 70.6747 88.4856C70.1621 87.6353 69.6864 86.8022 69.281 86.1294L69.4424 86.2132C69.2268 85.7708 68.8817 85.2409 68.878 85.3851C68.6673 84.9377 68.2606 84.3154 68.1928 83.9987C67.9858 83.5378 67.8724 83.4676 67.679 83.0942C67.4756 82.6308 67.3352 82.3141 67.1947 82.0048C67.0505 81.6968 66.91 81.3961 66.7079 80.9648L66.7979 81.1829C66.8607 81.2691 66.9038 81.2605 66.8127 81.0412C66.6426 80.7282 66.3222 79.8298 66.3493 80.202C66.125 79.5464 65.7726 78.7885 65.4891 78.0503L65.483 78.0318L65.4768 78.0134C65.4731 78.0023 65.4583 77.9665 65.446 77.9419C65.4325 77.9148 65.4189 77.8889 65.4029 77.863C65.3721 77.8125 65.3388 77.7669 65.3018 77.7287C65.2304 77.6511 65.1527 77.5981 65.064 77.5586C65.0837 77.582 65.0578 77.5833 65.0184 77.5833C64.979 77.5845 64.9284 77.587 64.8989 77.5993C64.7732 77.5993 64.6438 77.6449 64.5353 77.7225C64.5095 77.7422 64.4823 77.7657 64.4614 77.7866L64.4478 77.8002L64.4404 77.8076L64.4269 77.8236L64.3739 77.8889C64.3037 77.9752 64.2346 78.0614 64.1669 78.1464C63.8921 78.4853 63.6468 78.8168 63.441 79.1101C63.3363 79.2087 63.5445 78.9019 63.3067 79.1779C63.1773 79.3504 63.3363 79.2087 63.1786 79.4244C62.9555 79.7115 62.7226 79.9949 62.4823 80.271C62.2334 80.5371 61.9807 80.7996 61.7306 81.0559C61.6049 81.1841 61.4804 81.3123 61.356 81.4392C61.229 81.5624 61.1021 81.6832 60.9764 81.804C60.7262 82.0455 60.4847 82.2833 60.2567 82.5212C58.6387 84.2156 56.7816 85.8016 55.0637 87.2311L55.0687 87.1966C54.5548 87.7524 53.6453 88.228 53.2658 88.7111C53.1142 88.8048 52.7285 89.1227 52.8037 89.0044C52.588 89.2127 52.2479 89.4554 51.8844 89.7204C51.702 89.8522 51.5134 89.9902 51.3311 90.132C51.1462 90.2712 50.9688 90.4142 50.8086 90.5596C50.8726 90.514 50.9059 90.4832 50.9737 90.4203C50.2466 90.8997 49.6773 91.4197 48.9046 91.9176C48.9736 91.8547 49.1055 91.7488 49.1141 91.713C48.8011 91.8843 48.4955 92.2897 48.27 92.3107C48.1073 92.4315 48.1874 92.4426 48.286 92.3674C46.6298 93.5036 44.9132 94.7889 43.1941 95.9781C41.9088 96.7507 43.0092 95.8659 42.0739 96.593C41.9815 96.6275 42.0406 96.6682 42.0135 96.6583C41.6512 96.9393 41.3493 96.9442 41.1176 97.1673C41.2667 97.1549 40.9636 97.3164 40.9784 97.357C40.1872 97.8191 39.9999 97.8672 39.4207 98.3022L39.4466 98.2418C39.1188 98.5154 38.7417 98.773 38.3794 99.0219C38.0146 99.2696 37.6659 99.5099 37.396 99.7527C35.6141 100.888 33.858 101.988 32.102 103.061C31.2246 103.599 30.3447 104.127 29.4636 104.652L28.8018 105.043L28.7193 105.092L28.6823 105.114H28.6798L28.6712 105.123L28.6564 105.135C28.6379 105.15 28.6281 105.159 28.6232 105.165C28.6207 105.17 28.6133 105.172 28.6195 105.175C28.617 105.18 28.6195 105.191 28.6232 105.191C28.6281 105.191 28.6343 105.188 28.6429 105.186C28.6589 105.181 28.6798 105.172 28.6983 105.165C29.6669 104.785 30.6343 104.406 31.6041 104.026C33.6831 103.213 35.7706 102.401 37.9087 101.602C38.9401 101.305 39.0141 101.275 40.0936 100.81C40.0554 100.842 39.9876 100.872 40.0665 100.858C40.0923 100.762 40.8342 100.55 40.9106 100.438C42.488 99.8389 43.9273 99.2536 45.5441 98.6226C45.2915 98.7311 45.1867 98.842 45.4886 98.7187L45.7881 98.5462H45.8485C46.0518 98.455 46.2638 98.3293 46.0395 98.3885C50.0766 96.7396 54.1321 95.3323 58.1039 93.7611C59.0614 93.4235 60.3947 92.8702 61.4151 92.4549C64.4971 91.3692 67.2711 90.3797 70.3346 89.1042C70.3346 89.1042 70.0068 89.4566 68.7486 89.9989L68.7449 90.0075Z" fill="#1B1B1B"/>
<path d="M97.8868 112.042C97.7956 111.959 97.4616 111.777 97.7586 111.857C97.7771 111.906 97.9385 112.026 97.8868 112.042Z" fill="#1B1B1B"/>
<path d="M89.237 106.769C89.2197 106.772 89.1273 106.675 89.1039 106.652C89.2086 106.719 89.3245 106.756 89.3947 106.828C89.2887 106.76 89.2937 106.788 89.237 106.769Z" fill="#1B1B1B"/>
<path d="M87.1309 105.279C87.1838 105.273 87.6484 105.571 87.9146 105.759L87.1309 105.279Z" fill="#1B1B1B"/>
<path d="M85.3036 103.714C85.1582 103.564 85.2137 103.586 85.4343 103.756C85.438 103.783 85.3591 103.735 85.3036 103.714Z" fill="#1B1B1B"/>
<path d="M85.1188 103.675C84.9586 103.556 84.897 103.474 84.8354 103.397C84.8292 103.411 84.9204 103.482 85.0042 103.547C85.0892 103.611 85.1644 103.671 85.12 103.675H85.1188Z" fill="#1B1B1B"/>
<path d="M81.2505 100.189C81.1581 100.104 80.9412 99.9392 80.8845 99.8295C80.9597 99.9404 81.3565 100.216 81.2505 100.189Z" fill="#1B1B1B"/>
<path d="M79.4868 98.5302C79.4338 98.4722 79.4165 98.4451 79.3463 98.386C79.2588 98.2714 79.382 98.3613 79.4695 98.4464L79.4868 98.5289V98.5302Z" fill="#1B1B1B"/>
<path d="M51.5321 89.168L51.7293 88.993L51.7206 89.0448L51.5321 89.168Z" fill="#1B1B1B"/>
<path d="M35.513 100.125C35.3023 100.284 35.3392 100.192 35.2998 100.211C35.4994 100.083 35.2493 100.295 35.513 100.125Z" fill="#1B1B1B"/>
<path d="M26.2853 105.804L26.3641 105.759L26.6217 105.698L26.2853 105.804Z" fill="#1B1B1B"/>
<path d="M37.3123 49.5321H36.5052V52.1921H37.3123V49.5321Z" fill="black"/>
<path d="M40.5325 52.7856H37.8933V53.5991H40.5325V52.7856Z" fill="black"/>
<path d="M37.3123 54.1918H36.5052V56.8517H37.3123V54.1918Z" fill="black"/>
<path d="M35.9158 52.7856H33.2766V53.5991H35.9158V52.7856Z" fill="black"/>
<path d="M52.9268 61.7134H52.1198V63.9016H52.9268V61.7134Z" fill="black"/>
<path d="M55.5096 64.3176H53.3385V65.131H55.5096V64.3176Z" fill="black"/>
<path d="M52.9268 65.5442H52.1198V67.7324H52.9268V65.5442Z" fill="black"/>
<path d="M51.7084 64.3176H49.5374V65.131H51.7084V64.3176Z" fill="black"/>
<g clip-path="url(#clip1_5547_7224)">
<path d="M73.8675 67.9828C73.6898 67.6648 73.919 68.1745 73.7428 67.7801C73.7787 67.8144 73.8239 67.8705 73.866 67.9828H73.8675Z" fill="black"/>
<path d="M143.095 109.137C143.358 108.992 143.643 108.844 143.924 108.66C144.063 108.567 144.201 108.466 144.317 108.336C144.371 108.269 144.423 108.197 144.451 108.113C144.48 108.031 144.476 107.935 144.44 107.854C144.365 107.691 144.212 107.58 144.064 107.49C143.911 107.399 143.749 107.331 143.586 107.271C143.257 107.153 142.923 107.072 142.604 107.017C142.454 106.988 142.657 106.961 142.317 106.903C141.065 106.729 139.101 106.458 137.573 106.264L137.666 106.253C137.375 106.216 137.015 106.249 136.706 106.217C136.704 106.205 136.806 106.208 136.736 106.185C136.655 106.216 136.174 106.161 136.042 106.182C135.92 106.16 135.934 106.13 135.777 106.105L135.598 106.136C135.099 106.205 134.402 106.058 133.727 106.077C133.76 106.069 133.827 106.065 133.774 106.052C132.692 106.058 131.342 105.995 130.132 105.981C130.18 105.966 130.225 105.942 130.155 105.923C130.094 105.965 129.72 105.965 129.398 105.965C129.253 105.915 128.841 105.991 128.462 105.957L128.495 105.948C128.213 105.988 128.079 105.91 127.85 105.963L127.672 105.924C127.547 105.985 127.267 105.882 127.034 105.91L127.042 105.924C126.824 105.935 126.71 105.903 126.507 105.909L126.489 105.901C126.013 105.91 125.737 105.87 125.748 105.92C125.583 105.878 126.208 105.909 125.948 105.846C124.384 105.875 122.772 105.851 121.199 105.85C121.02 105.829 120.906 105.823 120.867 105.804C120.71 105.814 120.275 105.814 120.133 105.84C120.186 105.84 120.031 105.815 119.947 105.812C119.66 105.795 119.635 105.868 119.321 105.848C119.445 105.834 119.487 105.818 119.445 105.8C119.311 105.82 119.155 105.829 118.992 105.836C118.911 105.839 118.828 105.84 118.745 105.843C118.661 105.851 118.577 105.832 118.499 105.828C118.549 105.826 118.625 105.831 118.616 105.814C118.267 105.814 117.991 105.722 117.685 105.711L117.802 105.697C117.322 105.597 117.651 105.737 117.235 105.655C117.336 105.661 117.303 105.644 117.322 105.636C117.124 105.633 116.867 105.603 116.611 105.569C116.355 105.53 116.101 105.486 115.905 105.461C115.928 105.461 115.924 105.452 115.924 105.452C115.498 105.388 115.063 105.282 114.595 105.212C114.43 105.164 114.664 105.154 114.22 105.069C114.221 105.098 114.033 105.064 113.872 105.036C113.713 105.006 113.585 104.983 113.708 105.047C113.521 104.997 113.278 104.931 113.052 104.871C112.826 104.808 112.616 104.749 112.488 104.726C112.662 104.749 112.324 104.609 112.636 104.687L112.41 104.59C112.45 104.576 112.65 104.663 112.583 104.613C112.505 104.595 112.35 104.559 112.199 104.521C112.05 104.481 111.902 104.44 111.833 104.415C111.537 104.367 111.255 104.344 110.792 104.199C111.016 104.249 110.689 104.097 110.84 104.136C110.615 104.099 110.391 104.054 110.165 104.012C110.012 103.959 110.148 103.959 109.925 103.887C109.931 103.906 109.833 103.876 109.761 103.862C109.735 103.848 109.576 103.789 109.42 103.723C109.265 103.653 109.113 103.575 109.092 103.535C109.036 103.486 109.339 103.63 109.183 103.539C108.91 103.419 108.888 103.435 108.62 103.304V103.294C108.531 103.248 108.399 103.19 108.308 103.159C108.221 103.125 108.176 103.118 108.263 103.184C108.385 103.248 108.232 103.131 108.406 103.235C108.266 103.207 107.954 103.048 107.691 102.905C107.784 102.948 107.781 102.928 107.825 102.934C107.638 102.856 107.452 102.761 107.262 102.663C107.078 102.556 106.883 102.45 106.695 102.325C106.674 102.343 106.86 102.382 106.908 102.428C106.448 102.078 105.906 101.765 105.589 101.391C105.65 101.442 105.594 101.449 105.596 101.439C105.396 101.241 105.43 101.226 105.293 101.104C105.298 101.075 105.129 100.944 105 100.806C104.927 100.741 104.975 100.764 105.087 100.883C104.992 100.792 104.766 100.552 104.543 100.253C104.323 99.9505 104.107 99.5919 103.994 99.3067C103.982 99.3269 103.787 98.9871 103.739 98.853L103.79 98.892C103.765 98.7641 103.63 98.4477 103.658 98.4149C103.595 98.2762 103.68 98.5537 103.787 98.8078C103.896 99.0603 104.015 99.2942 103.918 99.1149C103.912 99.0603 103.84 98.9387 103.789 98.8327C103.739 98.7267 103.698 98.641 103.736 98.6753C103.639 98.4118 103.533 98.153 103.508 97.8833C103.521 97.9613 103.608 98.0953 103.555 97.8755C103.483 97.4842 103.513 97.768 103.457 97.4484L103.418 97.2473C103.38 97.2364 103.397 96.8887 103.368 97.0415C103.385 96.9916 103.332 96.4569 103.396 96.499L103.44 96.5551C103.443 96.3836 103.397 96.2729 103.39 96.1357C103.396 96.1139 103.408 96.0687 103.415 96.0781C103.346 96.0438 103.457 95.6681 103.441 95.4592C103.517 95.1037 103.636 94.5581 103.728 94.4069C103.787 94.1356 103.845 93.8862 103.974 93.5962C103.959 93.657 103.929 93.7396 103.937 93.7615C104.024 93.5822 104.027 93.5323 104.085 93.3608C104.077 93.4013 104.278 93.0132 104.398 92.8276C104.501 92.5735 104.426 92.6406 104.417 92.6063C104.588 92.413 104.746 91.9001 104.969 91.6662C104.925 91.752 104.791 92.0248 104.922 91.8393C105.111 91.6631 105.143 91.3825 105.405 91.0707L105.301 91.119C105.43 90.9912 105.631 90.6171 105.653 90.6872C105.725 90.5687 105.948 90.3286 105.879 90.3302C105.932 90.2694 105.987 90.2039 106.04 90.1353C106.09 90.0636 106.143 89.9888 106.194 89.914C106.246 89.8376 106.297 89.7612 106.349 89.6832C106.395 89.6037 106.444 89.5258 106.489 89.4478C106.585 89.2951 106.667 89.1438 106.743 89.0129C106.782 88.9474 106.819 88.8882 106.857 88.8336C106.889 88.779 106.922 88.7307 106.953 88.6902C106.983 88.6029 107.087 88.3971 107.041 88.4283C106.949 88.5546 106.972 88.6309 106.93 88.6746C106.963 88.5982 106.957 88.5764 106.953 88.5655C107.052 88.3909 107.103 88.2428 107.081 88.4376C107.27 88.0323 107.167 87.9793 107.323 87.4477C107.34 87.4773 107.357 87.4383 107.39 87.2778C107.399 87.1749 107.395 87.0689 107.398 86.966C107.43 86.7898 107.435 86.7384 107.455 86.7337C107.473 86.7275 107.491 86.7664 107.51 86.7633C107.511 86.6667 107.519 86.5575 107.518 86.4624C107.511 86.3673 107.504 86.2863 107.488 86.2426L107.51 86.1241L107.522 86.0041C107.505 86.1787 107.483 85.8467 107.462 85.7578C107.471 85.7874 107.476 85.817 107.482 85.8467C107.501 85.8077 107.444 85.5894 107.42 85.4787C107.398 85.5115 107.44 85.7344 107.443 85.8591C107.421 85.7625 107.387 85.6144 107.346 85.4912C107.398 85.524 107.299 85.181 107.25 85.036C107.198 84.8676 107.15 84.863 107.134 84.8146C107.151 84.8022 107.02 84.5527 107.101 84.6665C107.131 84.7195 107.142 84.7975 107.19 84.8848C107.165 84.771 107.2 84.7694 107.078 84.559C106.985 84.4031 107.038 84.6307 106.897 84.3173C106.949 84.3922 106.969 84.3999 107.016 84.4545L106.88 84.1599L106.843 84.1661C106.827 84.124 106.846 84.149 106.84 84.1287C106.797 84.0975 106.73 83.9946 106.663 83.8948C106.59 83.7982 106.518 83.7062 106.481 83.6891C106.383 83.5597 106.288 83.4053 106.19 83.2837L106.211 83.304C106.155 83.2261 106.08 83.1434 106.006 83.0655C105.929 82.9891 105.847 82.9252 105.781 82.8753H105.792C105.723 82.7973 105.532 82.6383 105.423 82.5651C105.237 82.3749 105.438 82.4076 105.184 82.2517C104.969 82.0849 104.808 82.0444 104.882 82.127C104.507 81.8152 104.015 81.5627 103.653 81.2898C103.586 81.2665 103.619 81.2961 103.491 81.2322C102.877 80.8627 102.133 80.5727 101.637 80.2828C101.834 80.3529 101.664 80.2562 101.669 80.236C101.499 80.1955 101.491 80.1237 101.413 80.1487C101.416 80.1845 101.396 80.1892 101.575 80.2828C101.176 80.1269 100.571 79.8899 100.356 79.7808C100.462 79.8369 100.373 79.8135 100.281 79.7886C100.328 79.7512 100.033 79.6373 99.8009 79.5734L99.7588 79.5906L99.6216 79.5111C99.5312 79.4908 99.5063 79.5376 99.2896 79.4347C99.2818 79.4191 99.2724 79.4035 99.2335 79.3817C98.9903 79.3271 98.6457 79.2632 98.3947 79.1603L98.1968 79.0543C98.0845 79.0262 97.8912 78.9982 98.083 79.0668C97.6496 78.9124 97.3643 78.8329 97.2333 78.7581C96.4445 78.6412 95.3283 78.3839 94.4272 78.2016L94.4584 78.1844C94.2199 78.1158 94.3243 78.1984 94.1591 78.1517C94.2417 78.1454 93.9829 78.0706 94.1793 78.08C93.8364 77.9911 93.7241 78.0363 93.4965 78.0067C93.4575 78.0301 93.682 78.0192 93.6306 78.0488C93.59 78.0519 93.1535 77.9443 93.0927 77.9802C93.0086 77.949 93.0818 77.9272 93.1317 77.9163L92.9166 77.9053C92.664 77.8118 93.523 77.9053 93.2611 77.7978L93.0631 77.7728C92.8823 77.6964 93.5932 77.8025 93.1005 77.7074C92.8807 77.6918 92.6952 77.7479 92.8838 77.7853C92.4302 77.7541 92.6656 77.8726 92.1776 77.8227C92.0467 77.7838 92.5689 77.8539 92.4785 77.8071C92.2525 77.7495 92.0155 77.7838 91.8128 77.751C92.0373 77.79 91.8409 77.8165 91.6928 77.8118C91.4465 77.7666 91.8581 77.7838 91.5073 77.7463C91.4465 77.7666 91.1222 77.7432 91.3982 77.7978C91.2641 77.8399 91.0349 77.7339 90.8385 77.7541C90.7294 77.698 91.2111 77.7058 90.8291 77.6341C90.8853 77.6824 90.3459 77.6263 90.5423 77.712C90.3926 77.6809 90.3817 77.6466 90.4955 77.6372C90.3895 77.6107 90.2554 77.6123 90.1416 77.6091C90.0278 77.6029 89.9327 77.5904 89.9031 77.5452L89.8236 77.5733C89.7581 77.5483 89.663 77.5234 89.557 77.4829C89.3684 77.4501 88.9381 77.4361 88.9662 77.3769C88.9038 77.3769 88.4767 77.2833 88.6326 77.3597C88.8945 77.4423 88.9459 77.3878 89.0847 77.4704C88.9023 77.3956 88.6965 77.4065 88.539 77.3893L88.5188 77.3613C88.4252 77.3519 88.2148 77.3036 88.1524 77.3176C88.2257 77.3176 88.193 77.2942 88.1197 77.274L88.0152 77.2896C87.638 77.2303 87.9404 77.2116 87.5756 77.143C87.6691 77.1571 87.7627 77.1633 87.8578 77.1742C87.797 77.1664 87.6785 77.1118 87.5055 77.0791C87.4306 77.0947 87.2966 77.104 87.2326 77.115C87.0253 77.0791 87.15 77.0557 86.9427 77.0401L87.2139 77.0651C87.256 77.0651 87.0502 76.9684 86.779 76.9029C86.6028 76.8718 86.3207 76.8531 86.5904 76.9372C86.4532 76.9076 86.2708 76.8297 86.383 76.8375C86.0743 76.7626 86.4142 76.8827 86.1445 76.8281C86.0416 76.7767 85.7158 76.6504 85.5225 76.5615L85.8124 76.5865L85.63 76.5335C85.8795 76.5569 85.5209 76.4664 85.6659 76.4586C85.5443 76.4165 85.3884 76.39 85.2668 76.3604C85.6051 76.5491 84.8319 76.3277 84.916 76.4275C84.665 76.3558 84.6011 76.2903 84.531 76.2357C84.4608 76.1811 84.3844 76.1375 84.1132 76.0923C84.1911 76.1406 83.9323 76.1001 84.2472 76.1952C83.9464 76.0767 84.0165 76.1843 83.6673 76.0253C83.9432 76.097 83.407 75.8553 83.8045 75.9582C83.7702 75.9707 84.0118 76.0533 84.0726 76.0689C83.9557 75.9987 84.121 76.0128 83.8123 75.899C83.6205 75.8351 83.3618 75.7415 83.3851 75.7883C83.3789 75.8288 83.6767 75.8912 83.541 75.8834C83.1591 75.7556 83.1232 75.6651 82.9408 75.6683C83.1778 75.7602 83.2215 75.8226 83.2074 75.846L82.9268 75.7478H82.9907C82.5589 75.5467 82.8426 75.7353 82.4186 75.5529L82.2424 75.4157C82.3578 75.4266 82.852 75.6963 82.8037 75.5981C82.5277 75.4827 82.4217 75.4796 82.1738 75.3424C82.2331 75.3643 82.3126 75.3954 82.3718 75.4173C82.2752 75.3705 82.2175 75.238 81.8075 75.1117C81.5986 75.04 81.7436 75.1117 81.7264 75.1335C81.2884 74.9355 81.1527 74.8872 80.8721 74.7547C80.9516 74.7422 80.392 74.4928 80.7178 74.6082C80.8425 74.7095 81.4645 75.0197 81.6391 75.0493C81.5082 74.92 81.9774 75.2146 82.0975 75.199C81.7482 75.0384 81.7919 74.9901 81.7545 74.9277C81.6594 74.8825 81.5596 74.8498 81.5004 74.8264C81.4442 74.8404 81.5674 74.9028 81.5581 74.9418C81.1823 74.7376 80.8004 74.5785 80.579 74.4912C80.4621 74.4055 80.5213 74.3946 80.671 74.4725C80.4465 74.3525 80.2127 74.2293 79.9882 74.0984C79.7668 73.9628 79.5486 73.8256 79.3459 73.6962C79.5766 73.9175 78.886 73.414 79.0372 73.573C79.2446 73.7305 79.4129 73.8848 79.2757 73.8318C79.1401 73.7398 79.2945 73.8115 79.2446 73.7632C79.0528 73.6775 79.0045 73.5403 78.8065 73.4732C79.2072 73.7133 78.9234 73.4592 79.0232 73.467C78.7286 73.3049 79.0544 73.4452 78.7784 73.2643C78.6319 73.1833 78.476 73.0819 78.3139 72.9806C78.1517 72.8793 77.9896 72.7702 77.84 72.6595C77.4939 72.3446 76.9186 71.919 76.6084 71.6384C76.4634 71.4747 76.6084 71.5355 76.4431 71.3655C76.242 71.1753 76.5507 71.5511 76.2716 71.2486L76.3075 71.2673C76.2046 71.1956 75.8008 70.7123 75.659 70.678L75.7915 70.7279C75.7416 70.6702 75.6824 70.6282 75.6356 70.5845C75.6481 70.5689 75.6013 70.491 75.6933 70.5752C75.553 70.3616 75.33 70.1901 75.1523 69.9796L75.2412 70.1371C74.9091 69.8004 74.7439 69.526 74.4617 69.169L74.4976 69.1596L74.3245 68.9507C74.3884 68.9866 74.2668 68.7699 74.1639 68.6654C74.3167 68.8463 74.4742 69.0209 74.6347 69.1908C74.7345 69.3592 74.4742 69.0458 74.5194 69.1627C74.5568 69.2641 74.8187 69.5946 74.8904 69.6242C74.7922 69.4964 74.7813 69.4948 74.6971 69.4028C74.7033 69.3311 74.8483 69.5275 74.9512 69.5992C74.8966 69.5353 74.8327 69.434 74.8109 69.4278C74.9325 69.5416 75.0354 69.671 75.2147 69.8799C75.079 69.7505 75.2583 69.9765 75.2006 69.9313C75.249 69.9188 75.4236 70.1137 75.6465 70.3694C75.7089 70.4754 75.8227 70.5876 75.9583 70.7061C76.0908 70.8246 76.2405 70.954 76.3792 71.0927C76.2327 71.0148 76.0643 70.8947 75.885 70.7342C76.044 70.9244 76.0752 70.9337 76.2405 71.1192C76.3512 71.1785 76.4431 71.205 76.6926 71.4092L76.6848 71.4435C76.9155 71.6243 76.942 71.5947 77.2179 71.841C77.4564 72.0515 77.7028 72.2604 77.9444 72.4443C78.1814 72.6361 78.4152 72.7982 78.6116 72.9416L78.6085 72.9775C78.7363 73.0305 78.9265 73.1505 79.1261 73.2784C79.3241 73.4078 79.5299 73.5465 79.6951 73.6245C79.9508 73.7991 80.2423 73.9674 80.5073 74.1031C80.7692 74.2449 80.9984 74.3696 81.1293 74.4616C82.1115 74.9433 82.997 75.3003 84.0555 75.6979L83.8606 75.676C84.0633 75.715 83.9744 75.7462 84.1646 75.8086C83.9635 75.6932 84.439 75.8631 84.5824 75.8772C84.8163 75.9722 85.0906 76.0595 85.3588 76.1375C85.6285 76.2154 85.8982 76.2653 86.1164 76.3137L86.1242 76.3495C86.5716 76.4243 87.083 76.5927 87.6271 76.7361C87.6863 76.7658 87.7798 76.8156 87.9451 76.8453C88.2553 76.8562 88.4112 76.892 88.854 76.9497C89.1751 77.009 89.6958 77.1056 90.02 77.1804C90.3256 77.2116 90.6343 77.2412 90.9429 77.2724C91.2516 77.3067 91.5603 77.3472 91.8736 77.3722C92.1854 77.4002 92.4988 77.4283 92.8153 77.4564L92.9462 77.4688L93.0662 77.4844L93.3048 77.5187C93.4638 77.5421 93.6228 77.5639 93.7834 77.5873L93.8691 77.6403C95.1163 77.7806 96.6004 78.2 97.6386 78.4479L97.5217 78.4822C97.8382 78.5882 98.2591 78.6739 98.1905 78.6069C98.507 78.7176 99.0027 78.8189 99.1898 78.9358C99.5125 79.0543 99.5983 79.0387 99.8711 79.1245C100.515 79.3708 100.753 79.4612 101.36 79.6935L101.212 79.628C101.14 79.6155 101.124 79.6373 101.273 79.7013C101.505 79.7745 102.085 80.0661 101.895 79.9008C102.513 80.2142 103.38 80.5618 103.937 80.9625C103.898 80.9157 104.048 80.9983 104.116 81.0248C104.643 81.3428 105.147 81.7528 105.547 82.0428C105.616 82.1145 105.404 81.9695 105.597 82.1317C105.716 82.2221 105.619 82.1114 105.764 82.2236C106.551 82.855 107.164 83.7405 107.521 84.6026C107.854 85.3618 107.979 86.2473 107.85 87.0782C107.828 87.2887 107.773 87.4898 107.73 87.694C107.7 87.7938 107.671 87.892 107.641 87.9902C107.613 88.09 107.58 88.1866 107.541 88.2817C107.505 88.3768 107.469 88.4719 107.434 88.567C107.391 88.659 107.351 88.751 107.309 88.8414C107.231 89.0269 107.133 89.1968 107.044 89.3699L107.039 89.3465C106.836 89.836 106.353 90.3505 106.165 90.7277C106.077 90.8244 105.881 91.0816 105.912 90.9959C105.703 91.3264 105.237 91.8767 105.008 92.4067C105.034 92.3615 105.047 92.3335 105.072 92.2773C104.757 92.7637 104.574 93.2439 104.327 93.7989C104.341 93.7381 104.38 93.6336 104.372 93.6102C104.253 93.8176 104.236 94.1528 104.127 94.2525C104.088 94.3819 104.133 94.3554 104.157 94.2759C103.937 94.9042 103.801 95.5839 103.773 96.2698C103.751 96.9573 103.834 97.6495 104.043 98.2949C104.171 98.7641 104.161 98.786 104.136 98.7828C104.116 98.7782 104.093 98.7501 104.274 99.0931C104.289 99.1554 104.319 99.1227 104.311 99.1383C104.458 99.3971 104.458 99.5919 104.599 99.7525C104.59 99.6559 104.698 99.8554 104.723 99.8461C104.796 99.977 104.863 100.077 104.919 100.166C104.975 100.253 105.02 100.328 105.072 100.393C105.17 100.527 105.263 100.646 105.443 100.806L105.401 100.795C105.829 101.162 106.308 101.606 106.738 101.821C107.998 102.721 109.417 103.337 110.854 103.828C111.577 104.066 112.308 104.275 113.046 104.461C113.786 104.638 114.53 104.807 115.284 104.944C116.026 105.093 116.773 105.212 117.518 105.321C117.891 105.376 118.265 105.419 118.639 105.469L118.691 105.475H118.738L118.879 105.474L119.165 105.471L119.734 105.468C121.252 105.461 122.777 105.468 124.328 105.503C125.054 105.574 125.109 105.572 125.907 105.56C125.874 105.569 125.825 105.571 125.878 105.581C125.918 105.532 126.44 105.586 126.517 105.538C127.664 105.563 128.721 105.586 129.901 105.611C129.714 105.611 129.619 105.65 129.842 105.653L130.076 105.627L130.113 105.642C130.264 105.639 130.431 105.619 130.275 105.599C133.244 105.652 136.157 105.884 139.058 106.161C139.744 106.252 140.727 106.35 141.476 106.464C142.027 106.573 142.563 106.691 143.09 106.849C143.353 106.928 143.614 107.016 143.871 107.133C144 107.192 144.128 107.256 144.253 107.34C144.376 107.426 144.507 107.525 144.602 107.698C144.649 107.781 144.678 107.892 144.674 107.998C144.672 108.107 144.633 108.2 144.593 108.28C144.502 108.436 144.387 108.542 144.273 108.635C144.041 108.816 143.796 108.95 143.547 109.072C143.048 109.315 142.529 109.51 141.992 109.703C141.992 109.703 142.053 109.649 142.222 109.552C142.39 109.452 142.667 109.315 143.093 109.12L143.095 109.137Z" fill="black"/>
<path d="M74.0922 68.3599C74.1124 68.4394 74.2371 68.6639 74.0984 68.5095C74.1046 68.4753 74.0579 68.349 74.0922 68.3599Z" fill="black"/>
<path d="M78.7595 73.3878C78.772 73.3878 78.8359 73.4502 78.8531 73.4673C78.7798 73.4221 78.7019 73.3956 78.652 73.3473C78.7252 73.3941 78.7206 73.3769 78.7611 73.3894L78.7595 73.3878Z" fill="black"/>
<path d="M80.2625 74.3337C80.2454 74.3369 80.1518 74.2963 80.0365 74.2418C79.9227 74.1856 79.7917 74.1093 79.6951 74.0531C79.8821 74.1513 80.0708 74.2464 80.2625 74.3337Z" fill="black"/>
<path d="M81.6919 75.1769C81.815 75.2548 81.7729 75.2471 81.5983 75.166C81.5905 75.1488 81.6513 75.1707 81.6919 75.1769Z" fill="black"/>
<path d="M81.8212 75.1827C81.9475 75.2404 82.0036 75.2809 82.0582 75.3199C82.0613 75.2996 81.762 75.1983 81.8212 75.1827Z" fill="black"/>
<path d="M85.1514 76.5407C85.234 76.5657 85.4179 76.6062 85.4881 76.6498C85.4055 76.6124 85.0781 76.5501 85.1514 76.5407Z" fill="black"/>
<path d="M86.7694 76.9607C86.8209 76.9747 86.8427 76.9841 86.905 76.9934C86.9986 77.0262 86.8926 77.0184 86.8115 77.0012L86.771 76.9623L86.7694 76.9607Z" fill="black"/>
<path d="M105.15 91.375L105.242 91.2191L105.245 91.2534L105.15 91.375Z" fill="black"/>
<path d="M107.521 102.859C107.685 102.939 107.619 102.942 107.644 102.959C107.502 102.878 107.71 102.966 107.521 102.859Z" fill="black"/>
<path d="M114.279 105.147L114.226 105.138L114.254 105.095L114.279 105.147Z" fill="black"/>
</g>
</g>
<defs>
<clipPath id="clip0_5547_7224">
<rect width="116.804" height="69.6259" fill="white" transform="translate(20.7924 42.8077)"/>
</clipPath>
<clipPath id="clip1_5547_7224">
<rect width="71.0664" height="41.9436" fill="white" transform="translate(73.6122 67.7777)"/>
</clipPath>
</defs>
</svg>
