<svg width="158" height="158" viewBox="0 0 158 158" fill="none" xmlns="http://www.w3.org/2000/svg">
<circle cx="79" cy="79" r="79" fill="#A3C7FA"/>
<g clip-path="url(#clip0_5547_7222)">
<path d="M54.3219 63.8753C60.6043 60.4359 65.1968 56.4995 68.2386 53.4378C71.3002 50.3761 75.2367 45.8035 78.6761 39.5211" stroke="white" stroke-width="3.25097" stroke-miterlimit="10" stroke-linecap="round"/>
<path d="M103.05 63.8753C96.7674 60.4359 92.1749 56.4995 89.1331 53.4378C86.0913 50.3761 82.135 45.8035 78.6956 39.5211" stroke="white" stroke-width="3.25097" stroke-miterlimit="10" stroke-linecap="round"/>
<path d="M49.5304 79.5414C60.127 74.5911 70.7235 66.9767 77.3836 55.1873C77.7813 54.4914 78.1391 53.7956 78.497 53.0998" stroke="white" stroke-width="3.25097" stroke-miterlimit="10" stroke-linecap="round"/>
<path d="M108.696 79.5414C102.97 76.8178 95.1768 72.2253 87.7016 64.6108C83.7652 60.6148 80.7631 56.6187 78.4967 53.0998" stroke="white" stroke-width="3.25097" stroke-miterlimit="10" stroke-linecap="round"/>
<path d="M78.6956 117.831V41.2295" stroke="white" stroke-width="3.25097" stroke-miterlimit="10" stroke-linecap="round"/>
<path d="M49.5304 95.3063C60.127 90.356 70.7235 82.7416 77.3836 70.9522C77.7813 70.2563 78.1391 69.5605 78.497 68.8647" stroke="white" stroke-width="3.25097" stroke-miterlimit="10" stroke-linecap="round"/>
<path d="M108.696 95.3063C102.97 92.5826 95.1768 87.9901 87.7016 80.3757C83.7652 76.3797 80.7631 72.3836 78.4967 68.8647" stroke="white" stroke-width="3.25097" stroke-miterlimit="10" stroke-linecap="round"/>
<path d="M49.5304 109.84C60.127 104.89 70.7235 97.2752 77.3836 85.4858C77.7813 84.7899 78.1391 84.0941 78.497 83.3983" stroke="white" stroke-width="3.25097" stroke-miterlimit="10" stroke-linecap="round"/>
<path d="M108.696 109.84C102.97 107.116 95.1768 102.524 87.7016 94.9093C83.7652 90.9133 80.7631 86.9172 78.4967 83.3983" stroke="white" stroke-width="3.25097" stroke-miterlimit="10" stroke-linecap="round"/>
</g>
<defs>
<clipPath id="clip0_5547_7222">
<rect width="61.1539" height="80.2992" fill="white" transform="translate(48.5361 38.5269)"/>
</clipPath>
</defs>
</svg>
