<svg xmlns="http://www.w3.org/2000/svg" width="13" height="13" viewBox="0 0 13 13" fill="none">
<path d="M6.16082 4.28953C6.72803 4.28953 7.18785 3.82972 7.18785 3.2625C7.18785 2.69529 6.72803 2.23547 6.16082 2.23547C5.59361 2.23547 5.13379 2.69529 5.13379 3.2625C5.13379 3.82972 5.59361 4.28953 6.16082 4.28953Z" fill="#6AA5F8"/>
<path d="M6.16082 7.87315C6.72803 7.87315 7.18785 7.41334 7.18785 6.84612C7.18785 6.27891 6.72803 5.81909 6.16082 5.81909C5.59361 5.81909 5.13379 6.27891 5.13379 6.84612C5.13379 7.41334 5.59361 7.87315 6.16082 7.87315Z" fill="#6AA5F8"/>
<path d="M6.16082 11.4569C6.72803 11.4569 7.18785 10.9971 7.18785 10.4299C7.18785 9.86265 6.72803 9.40283 6.16082 9.40283C5.59361 9.40283 5.13379 9.86265 5.13379 10.4299C5.13379 10.9971 5.59361 11.4569 6.16082 11.4569Z" fill="#6AA5F8"/>
</svg>