<svg width="24" height="24" viewBox="0 0 24 24" fill="none" xmlns="http://www.w3.org/2000/svg">
<path d="M20.2193 16.6195C20.2193 17.4695 19.5293 18.1595 18.6793 18.1595H5.31931C4.46931 18.1595 3.7793 17.4695 3.7793 16.6195C3.7793 15.7695 4.46931 15.0795 5.31931 15.0795H5.82928V9.93953C5.82928 6.53953 8.5893 3.76953 11.9993 3.76953C13.6993 3.76953 15.2393 4.45953 16.3593 5.57953C17.4793 6.68953 18.1693 8.22953 18.1693 9.93953V15.0795H18.6793C19.5293 15.0795 20.2193 15.7695 20.2193 16.6195Z" stroke="black" stroke-width="1.5" stroke-linecap="round" stroke-linejoin="round"/>
<path d="M12 3.78V2.75" stroke="black" stroke-width="1.5" stroke-linecap="round" stroke-linejoin="round"/>
<path d="M15.0799 18.1699C15.0799 19.8799 13.6999 21.2499 11.9999 21.2499C10.2999 21.2499 8.91992 19.8699 8.91992 18.1699H15.0799Z" stroke="black" stroke-width="1.5" stroke-linecap="round" stroke-linejoin="round"/>
<circle cx="18" cy="7" r="3.5" fill="#6AA5F8" stroke="black"/>
</svg>
