<svg width="14" height="13" viewBox="0 0 14 13" fill="none" xmlns="http://www.w3.org/2000/svg">
<path d="M4.83725 5.77595C5.74326 5.77595 6.47773 5.06933 6.47773 4.19767C6.47773 3.326 5.74326 2.61938 4.83725 2.61938C3.93124 2.61938 3.19678 3.326 3.19678 4.19767C3.19678 5.06933 3.93124 5.77595 4.83725 5.77595Z" stroke="black" stroke-width="0.50142" stroke-linecap="round" stroke-linejoin="round"/>
<path d="M1.52539 10.1441V9.24525C1.52539 8.20002 2.40538 7.35339 3.49179 7.35339H6.43597C7.52238 7.35339 8.40237 8.20002 8.40237 9.24525V10.1441" stroke="black" stroke-width="0.50142" stroke-linecap="round" stroke-linejoin="round"/>
<path d="M8.92674 6.22582C9.59875 6.22582 10.1435 5.7017 10.1435 5.05517C10.1435 4.40864 9.59875 3.88452 8.92674 3.88452C8.25473 3.88452 7.70996 4.40864 7.70996 5.05517C7.70996 5.7017 8.25473 6.22582 8.92674 6.22582Z" stroke="black" stroke-width="0.50142" stroke-linecap="round" stroke-linejoin="round"/>
<path d="M9.27441 7.39685H10.1109C10.9149 7.39685 11.5667 8.02398 11.5667 8.79745V9.46639" stroke="black" stroke-width="0.50142" stroke-linecap="round" stroke-linejoin="round"/>
</svg>
