<svg width="105" height="105" viewBox="0 0 105 105" fill="none" xmlns="http://www.w3.org/2000/svg">
<g clip-path="url(#clip0_5120_51161)">
<path d="M49.1068 61.8108C49.3627 61.3033 48.8596 62.019 49.2456 61.4638C49.2499 61.5549 49.2326 61.672 49.1068 61.8108Z" fill="#1B1B1B"/>
<path d="M50.5623 60.1885C51.6424 58.6834 53.603 57.2476 54.8913 55.7078C55.0474 55.5343 54.9737 55.8813 55.325 55.4822C56.5352 53.951 58.8342 51.9384 60.669 50.4376L60.6039 50.572C60.9509 50.2857 61.2285 49.7826 61.5886 49.4703C61.6146 49.492 61.5148 49.6091 61.6233 49.5657C61.6363 49.4096 62.2088 48.9324 62.2999 48.7372C62.4648 48.6331 62.5081 48.7069 62.712 48.5681L62.8248 48.2948C63.1718 47.5704 64.1608 47.0282 64.8027 46.2084C64.7854 46.2604 64.729 46.3472 64.8027 46.3082C65.8785 45.0329 67.388 43.6102 68.6806 42.2742C68.6545 42.3566 68.6589 42.4564 68.7717 42.413C68.75 42.2612 69.1403 41.8404 69.4787 41.4804C69.7303 41.4153 70.0079 40.8037 70.4763 40.448L70.459 40.5044C70.6759 40.1097 70.9708 40.114 71.1096 39.7584L71.3742 39.6369C71.3829 39.381 71.8861 39.2682 72.0813 38.9559L72.0466 38.9385C72.2591 38.674 72.4456 38.6176 72.6495 38.379H72.6842C73.1743 37.8325 73.5517 37.6069 73.4389 37.5201C73.6992 37.4204 72.9661 38.0493 73.3695 37.8845C74.9918 36.1148 76.7919 34.4101 78.5226 32.7271C78.7612 32.5753 78.8956 32.4668 78.9781 32.4582C79.1299 32.2716 79.6114 31.8075 79.7198 31.6036C79.6634 31.66 79.8846 31.5429 79.98 31.4605C80.3314 31.1916 80.2143 31.0181 80.609 30.7274C80.4962 30.8879 80.4832 30.9617 80.5656 30.9573C80.7825 30.593 81.1902 30.2243 81.5156 29.8599C81.4765 29.9293 81.4028 30.0204 81.4462 30.0378C81.7411 29.5823 82.1575 29.3784 82.4482 29.0011C82.4221 29.0575 82.4004 29.1225 82.3744 29.1789C83.0077 28.7712 82.4308 28.897 82.9904 28.5456C82.8732 28.6497 82.9383 28.6497 82.934 28.6931C83.1422 28.4632 83.4675 28.2203 83.8275 28.0381C84.1832 27.8516 84.5649 27.7085 84.8555 27.6087C84.8208 27.6304 84.8382 27.6477 84.8382 27.6477C85.4801 27.4439 86.1828 27.3875 86.9202 27.3571C87.1848 27.4092 86.8248 27.5436 87.5188 27.5783C87.5188 27.4916 87.8138 27.535 88.0654 27.561C88.3126 27.5957 88.5165 27.6434 88.3343 27.4916C88.4818 27.5436 88.6466 27.5957 88.8201 27.6607C88.9893 27.7345 89.1628 27.8126 89.3319 27.8906C89.6573 28.0641 89.9609 28.2246 90.1431 28.3201C89.8828 28.2246 90.2819 28.6454 89.8611 28.3851L90.1214 28.6671C90.039 28.6931 89.8178 28.4415 89.8698 28.576C89.9696 28.6454 90.1865 28.7408 90.3773 28.8796C90.5638 29.0184 90.759 29.1486 90.8241 29.2353C91.2058 29.4739 91.6699 29.6474 92.0993 30.285C91.8478 30.0247 92.0646 30.5496 91.9042 30.3631C92.0473 30.4759 92.1731 30.6017 92.3032 30.7318C92.4333 30.8619 92.5635 30.9964 92.6762 31.1439C92.7847 31.3781 92.5852 31.2436 92.7587 31.5689C92.7934 31.5342 92.8671 31.6817 92.9322 31.7815C92.9625 31.8726 93.2488 32.8182 93.0753 32.9526C93.0276 33.0698 92.9929 32.5492 92.9712 32.8355C93.0276 33.2953 93.0927 33.3083 93.1013 33.7768L93.0796 33.7855C93.071 34.0891 93.0927 34.7007 93.2098 34.371C93.2315 34.1542 93.11 34.4448 93.1794 34.1281C93.2141 34.2409 93.2401 34.4361 93.2315 34.666C93.2054 34.8916 93.1881 35.1561 93.123 35.386C93.1404 35.2212 93.0927 35.2299 93.0623 35.1561C93.0493 35.8068 92.8584 36.4835 92.5461 37.1515C92.6155 37.1992 92.5505 36.8435 92.6329 36.7697C92.5158 36.9693 92.3943 37.1688 92.2728 37.3727C92.1644 37.5809 92.0299 37.7761 91.9042 37.9669C91.8391 38.058 91.7827 38.1665 91.6873 38.2619C91.6179 38.34 91.5441 38.418 91.4747 38.4918C91.3316 38.6393 91.1841 38.765 91.028 38.8691C91.1017 38.7737 91.1494 38.8995 91.1277 38.8908C90.8241 39.1858 90.759 39.0947 90.5942 39.3203C90.5291 39.2942 90.3643 39.5805 90.1778 39.7974C90.1084 39.9362 90.104 39.8278 90.2732 39.6456C90.0346 39.9666 88.9849 41.1594 88.2736 41.7406C88.3169 41.758 87.9873 42.2481 87.8355 42.3956L87.8225 42.2655C87.6446 42.3609 87.3323 42.773 87.2456 42.7383C87.0157 43.1417 88.3907 41.437 88.0307 41.9358C87.8615 41.9879 87.5448 42.6472 87.5448 42.4607C87.2499 42.7643 87.0417 43.133 86.6903 43.3542C86.7858 43.2805 86.8335 43.0159 86.5993 43.2632C86.1872 43.7013 86.5125 43.4193 86.1915 43.788L86.005 44.0352C86.057 44.1177 85.6189 44.4083 85.8532 44.3259C85.7447 44.3259 85.2719 44.9808 85.2025 44.8247L85.1722 44.6772C84.9943 44.8681 84.9683 45.0719 84.8642 45.2585C84.8338 45.2758 84.7644 45.3062 84.7601 45.2801C84.8685 45.445 84.3133 45.7096 84.2005 46.0306C83.7711 46.3689 83.2202 47.0065 82.9557 47.1063C82.7041 47.4446 82.4828 47.7656 82.1142 48.0736C82.1705 47.9912 82.2573 47.8957 82.2443 47.848C81.9927 48.0215 81.9754 48.1083 81.8062 48.3251C81.8279 48.2601 81.303 48.6722 81.0211 48.8587C80.7695 49.1927 80.943 49.1666 80.9604 49.2404C80.557 49.3749 80.2186 50.16 79.7632 50.3768C79.8456 50.2554 80.1232 49.8824 79.8456 50.0906C79.4422 50.225 79.4031 50.7325 78.9087 51.1056H79.1255C78.8653 51.2357 78.553 51.8169 78.4836 51.6564C78.3795 51.843 77.937 52.1336 78.0932 52.1943C77.2907 52.8189 76.4232 53.9857 75.7899 54.233C75.7075 54.3544 75.4342 54.5887 75.5427 54.593C75.7726 54.4846 75.7335 54.3111 75.8376 54.2894C75.7509 54.3848 75.7595 54.4325 75.7639 54.4585C75.5166 54.6537 75.3345 54.8229 75.4559 54.5236C74.8964 54.9487 75.1349 55.2176 74.4669 55.8032C74.4496 55.7295 74.3845 55.7598 74.211 55.9507L73.9421 56.3758C73.5213 56.7661 73.6081 56.5059 73.5213 56.4365C73.3175 56.6664 73.0485 56.931 73.0095 57.0828L72.6495 57.252C72.9097 57.1305 72.5193 57.4775 72.4369 57.599L72.5193 57.4775C72.4456 57.4862 72.2157 57.7551 72.1029 57.8939C72.181 57.9113 72.4543 57.6727 72.6061 57.5469C72.528 57.6901 72.3502 57.8549 72.2417 58.0414C72.2157 57.92 71.8383 58.3407 71.6562 58.5055C71.4436 58.6877 71.5 58.7962 71.4393 58.8525C71.3959 58.8178 71.1096 59.1692 71.2094 58.961C71.2658 58.8829 71.4002 58.8439 71.4783 58.7007C71.3178 58.8005 71.2658 58.7181 71.0489 59.0391C70.8841 59.282 71.2484 59.1345 70.819 59.4728C70.9014 59.3514 70.8884 59.3036 70.9405 59.1995L70.5414 59.5249L70.5934 59.6073C70.5284 59.6376 70.5544 59.5986 70.524 59.6116C70.4893 59.7895 69.9949 60.1885 69.9949 60.349C69.8214 60.5399 69.5654 60.6874 69.3833 60.8522L69.4093 60.8131C69.1577 60.9866 68.9018 61.299 68.7673 61.5202V61.4941C68.6415 61.6069 68.3769 61.8932 68.2728 62.0797C67.9302 62.3226 67.9171 61.9236 67.6786 62.3313C67.3836 62.6306 67.3402 62.9256 67.5007 62.8475C66.9195 63.3376 66.425 64.062 65.8264 64.4524C65.7787 64.5565 65.8438 64.5261 65.7006 64.6996C64.8895 65.4631 64.1261 66.4477 63.367 66.9422C63.5665 66.6863 63.3149 66.8598 63.2716 66.8251C63.1458 67.0767 62.9809 66.9899 63.02 67.1591C63.1024 67.2024 63.1111 67.2502 63.3583 67.055C62.9245 67.5581 62.2132 68.2738 61.8965 68.4777C62.057 68.3736 61.9746 68.4951 61.8879 68.6165C61.8228 68.4864 61.4628 68.816 61.2372 69.1153L61.2589 69.2108L61.029 69.3192C60.9466 69.4407 61.0464 69.5578 60.7254 69.7573C60.6907 69.7486 60.6516 69.74 60.5866 69.7703C60.3654 70.0913 60.0704 70.5554 59.7234 70.8027L59.5586 70.8807C59.5065 70.9068 59.4545 70.9285 59.3677 70.9848C59.3417 71.0152 59.3113 71.0499 59.2809 71.089C59.1725 71.1584 59.0511 71.2451 59.0467 71.2668C59.038 71.2841 59.038 71.2928 59.0597 71.2972C59.0684 71.2972 59.0858 71.2972 59.1031 71.2885C59.1291 71.2798 59.1768 71.2625 59.2246 71.2408C58.8732 71.3796 58.5869 71.4924 58.357 71.5834C58.1402 71.6659 57.9753 71.7179 57.8495 71.7179C56.8779 72.503 55.299 73.3098 54.0238 73.9344L54.0324 73.8607C53.6637 73.9778 53.9066 74.0472 53.6464 74.1296C53.7288 74.0212 53.3297 74.1426 53.564 73.9431C53.0478 74.1296 52.9871 74.3595 52.6834 74.546C52.6748 74.6458 52.9133 74.3682 52.9003 74.494C52.8613 74.546 52.1976 74.7759 52.1759 74.9277C52.0328 74.9451 52.0848 74.815 52.1282 74.7369L51.8593 74.9408C51.4299 74.9928 52.5707 74.2858 52.1065 74.3161L51.8419 74.4723C51.521 74.4853 52.5013 73.9735 51.7899 74.2814C51.521 74.4896 51.3475 74.7803 51.6381 74.6978C51.0308 75.0449 51.4863 75.1143 50.8139 75.4396C50.597 75.4656 51.3431 75.1533 51.1653 75.1273C50.8052 75.1967 50.558 75.496 50.263 75.6087C50.597 75.496 50.3888 75.7389 50.198 75.8647C49.8293 75.9818 50.3672 75.6478 49.877 75.8777C49.8293 75.9818 49.4129 76.2551 49.8163 76.1076C49.7165 76.3418 49.2958 76.3201 49.0876 76.5674C48.8793 76.5413 49.4649 76.0772 48.9054 76.2941C49.0398 76.3505 48.3198 76.7626 48.6755 76.7669C48.4543 76.845 48.3935 76.7756 48.5107 76.6368C48.181 76.7235 47.8817 77.1833 47.6865 77.0358L47.6345 77.1876C47.526 77.2006 47.3785 77.244 47.2007 77.2657C46.9404 77.3958 46.4286 77.8296 46.3765 77.6648C46.2985 77.7212 45.6999 78.0161 45.9862 78.0074C46.3896 77.886 46.3722 77.7125 46.6498 77.7559C46.3288 77.7689 46.125 78.0421 45.9298 78.1896L45.8647 78.1463C45.7476 78.233 45.4483 78.3718 45.4006 78.4759C45.483 78.3935 45.4093 78.3761 45.3008 78.4152L45.2141 78.5757C44.7196 78.8836 45.0102 78.4759 44.52 78.7579L44.8671 78.4933C44.789 78.5496 44.5764 78.554 44.3509 78.7015C44.2988 78.8316 44.173 79.0224 44.1253 79.1266C43.8607 79.3087 43.9518 79.0962 43.7132 79.3261L44.0299 79.0398C44.0733 78.9834 43.7132 79.0268 43.3359 79.222C43.106 79.3738 42.7893 79.6818 43.1971 79.5343C43.0062 79.6341 42.7156 79.7165 42.837 79.5777C42.4206 79.8249 42.9368 79.6384 42.5898 79.877C42.4076 79.8986 41.8958 80.0591 41.5705 80.1242L41.8914 79.7902L41.6312 79.9203C41.9088 79.6384 41.4186 79.9203 41.5488 79.7078C41.3623 79.7772 41.1714 79.9247 41.0153 80.0418C41.3189 80.0071 41.2061 80.1416 41.05 80.302C41.0109 80.3411 40.9675 80.3845 40.9285 80.4235C40.8895 80.4625 40.8027 80.5233 40.755 80.558C40.6466 80.6404 40.5772 80.6924 40.6596 80.7228C40.3342 80.8269 40.1 80.7835 39.9482 80.7315C39.792 80.6751 39.7053 80.597 39.6229 80.5233C39.5405 80.4495 39.4667 80.3801 39.3366 80.2977C39.2108 80.211 39.0286 80.1112 38.7857 79.8683C38.8248 79.9767 38.7293 79.916 38.6773 79.903C38.6382 79.8856 38.6079 79.968 38.9332 80.276C38.6382 79.955 38.5602 79.8249 38.4517 79.6861C38.365 79.5386 38.2262 79.3608 38.3042 78.8099C38.3216 79.222 38.378 78.9921 38.443 78.8403C38.4777 78.7622 38.5168 78.7015 38.5428 78.7232C38.5688 78.7448 38.5688 78.8533 38.6035 79.0962C38.5732 79.0658 38.5602 79.2003 38.5905 79.3608C38.6209 79.5213 38.7033 79.6991 38.751 79.7598C38.712 79.5993 38.7684 79.595 38.7901 79.5473C38.8204 79.4953 38.7901 79.4042 38.764 79.0615C38.751 78.8489 38.7814 78.58 38.8768 78.4108C38.9505 78.2504 38.9592 78.1853 38.9072 78.1766C38.8811 78.1679 38.8551 78.1853 38.8291 78.22C38.8161 78.2373 38.8031 78.2547 38.7901 78.2764C38.7727 78.3067 38.7554 78.3414 38.738 78.3718C38.6686 78.4976 38.6556 78.606 38.6469 78.4325C38.6729 78.3761 38.699 78.3241 38.7293 78.272C38.7467 78.2373 38.764 78.207 38.7814 78.1766C38.8161 78.1246 38.8421 78.0768 38.8725 78.0335C38.9289 77.9511 38.9766 77.886 39.0156 77.8339C39.0937 77.7255 39.1327 77.6431 39.111 77.4826C38.9332 77.8253 38.7857 77.8556 38.725 77.8123L38.9072 77.4002L38.9289 77.513C39.3323 76.91 38.9202 77.2614 39.2845 76.6628L39.5708 76.4502C39.5969 76.6585 39.0199 77.3048 39.2542 77.3004C39.4884 76.91 39.4711 76.7279 39.7313 76.3808C39.701 76.4719 39.6402 76.589 39.6055 76.6801C39.6923 76.5413 40.0046 76.5327 40.1911 75.8907C40.3039 75.5697 40.1738 75.7779 40.113 75.7345C40.4557 75.0882 40.4947 74.8627 40.7203 74.4463C40.7984 74.6024 41.1454 73.7306 41.0196 74.2554C40.8244 74.4202 40.3082 75.3398 40.3039 75.6348C40.5858 75.4916 39.9959 76.1206 40.074 76.3461C40.3689 75.8386 40.5034 75.9471 40.6466 75.9211C40.7333 75.7822 40.7723 75.6218 40.8027 75.5307C40.7463 75.4179 40.6422 75.6044 40.5381 75.561C40.8895 75.0058 41.1497 74.4333 41.2365 74.0689C41.3883 73.9041 41.449 74.0168 41.3276 74.2467C41.6876 73.5571 42.1127 72.8413 42.5031 72.2167C42.117 72.5464 42.8761 71.4793 42.5898 71.6919C42.3599 72.0172 42.0823 72.2514 42.1257 72.0215C42.2601 71.8133 42.1864 72.0649 42.2688 71.9955C42.3426 71.6745 42.6419 71.6442 42.6679 71.3015C42.3643 71.9478 42.7807 71.5271 42.837 71.7049C43.0236 71.2234 42.9108 71.77 43.1624 71.3319C43.3489 70.8504 43.6091 70.2778 43.8651 69.7703C44.3292 69.2151 44.7629 68.2044 45.0753 67.6492C45.3008 67.3933 45.3225 67.6666 45.522 67.3673C45.7302 66.9986 45.2227 67.5581 45.5958 67.0463V67.1157C45.6565 66.9335 46.2551 66.1658 46.1553 65.8968L46.203 66.1484C46.2724 66.053 46.2941 65.9402 46.3288 65.8491C46.3765 65.8708 46.4893 65.7797 46.4243 65.9619C46.7149 65.6843 46.8103 65.2462 47.0185 64.8775L46.7973 65.064C47.0879 64.4003 47.4132 64.0273 47.7299 63.407L47.8036 63.4721L47.9598 63.0817C47.9901 63.2162 48.233 62.9169 48.2721 62.687L47.9424 63.741C47.7429 63.9709 48.0031 63.3984 47.8296 63.5155C47.6778 63.6109 47.3785 64.1878 47.4089 64.3223C47.539 64.1141 47.5303 64.0924 47.5954 63.9102C47.7516 63.9059 47.5607 64.2268 47.5477 64.435C47.6084 64.3179 47.7342 64.1791 47.7125 64.1358C47.6431 64.3873 47.526 64.6172 47.3178 64.9859C47.4132 64.7127 47.1703 65.0814 47.1877 64.9686C47.2744 65.0553 47.1053 65.424 46.8146 65.8621C46.511 66.118 46.4026 66.76 46.0686 67.2675C46.0859 66.9942 46.1597 66.6733 46.3028 66.3306C46.0599 66.6299 46.0946 66.6993 45.8517 67.0029C45.8387 67.2068 45.8907 67.389 45.6912 67.8488L45.6001 67.8271C45.4136 68.2391 45.5264 68.3042 45.2227 68.79C44.6979 69.6228 44.1991 70.499 43.8174 71.141L43.7263 71.1236C43.6829 71.5791 43.0973 72.3642 42.8934 72.8934C42.3469 73.6828 41.9392 74.7369 41.5618 75.0882C41.1714 75.8343 40.8027 76.537 40.434 77.2397C40.2432 77.591 40.048 77.9424 39.8528 78.2981C39.7573 78.4629 39.6619 78.6321 39.5665 78.8012C39.5188 78.9183 39.5101 79.0528 39.5405 79.1916C39.4841 79.1439 39.432 79.0745 39.3886 79.0008C39.4364 79.1179 39.4277 79.1526 39.4103 79.196C39.393 79.2393 39.3626 79.2914 39.4277 79.4042C39.419 79.2523 39.4797 79.3304 39.5665 79.4172C39.6576 79.5083 39.8051 79.5777 39.8831 79.569C39.9786 79.6427 40.1217 79.6818 40.2648 79.6601C40.3342 79.6514 40.408 79.6297 40.473 79.595L40.7507 79.4389C41.1237 79.222 41.4794 78.9877 41.7657 78.7882L41.8307 78.8533C42.3773 78.3892 43.1841 78.1463 43.9735 77.7776C44.0776 77.7645 44.2555 77.7689 44.481 77.6431C44.8367 77.3048 45.0622 77.2006 45.6391 76.8103C46.0903 76.5847 46.8363 76.2464 47.3178 76.0642C48.9184 75.0318 50.7055 74.2684 52.4102 73.2751L52.5837 73.3011C54.1886 72.2428 56.3791 71.3622 57.7801 70.5251L57.7194 70.755C58.1922 70.5771 58.7604 70.1781 58.5479 70.1434C58.5609 70.1434 58.5739 70.139 58.5869 70.1347L58.613 70.113L58.6563 70.0696C58.704 70.0219 58.7518 69.9698 58.7995 69.9221C58.8949 69.818 58.9903 69.7139 59.0814 69.6142C59.2679 69.419 59.4458 69.2455 59.5976 69.1891C59.9923 68.8421 59.9923 68.6772 60.2829 68.3519C61.068 67.6536 61.3326 67.3673 62.0093 66.6429L61.8271 66.8077C61.7794 66.9118 61.8271 66.9726 62.005 66.8077C62.2305 66.5128 62.9939 65.8795 62.5862 65.9923C63.419 65.3286 64.2519 64.1748 65.0934 63.5632C64.9892 63.5849 65.1671 63.394 65.2148 63.2899C65.8654 62.6306 66.6375 62.0233 67.0887 61.4291C67.2144 61.3467 66.9932 61.6633 67.2622 61.4031C67.4053 61.2296 67.2144 61.3467 67.3836 61.1298C68.3639 59.989 69.6045 59.0521 70.5457 58.0631C72.1767 56.263 74.0028 54.5063 75.6294 52.8449L75.6424 52.8927C76.0762 52.2247 77.0478 51.7128 77.3124 51.1012C77.4729 50.9971 77.8199 50.6154 77.7809 50.7716C78.1366 50.251 79.0822 49.6178 79.6114 48.876C79.5506 48.9324 79.5246 48.9715 79.4682 49.0495C80.1709 48.4726 80.6437 47.8176 81.3768 47.1974C81.3204 47.2798 81.2076 47.4142 81.2163 47.462C81.5329 47.2581 81.7064 46.7159 81.9927 46.7159C82.1402 46.5641 82.0274 46.5381 81.9407 46.6335C83.4718 45.2064 84.9553 43.5277 86.4561 41.9532C87.6403 40.9339 86.7684 42.1267 87.5275 41.1464C87.6273 41.103 87.5275 41.038 87.5665 41.0553C87.8615 40.6779 88.2519 40.6909 88.408 40.3786C88.2215 40.3873 88.5121 40.1748 88.4644 40.114C89.1931 39.4938 89.41 39.4374 89.8741 38.8388L89.8828 38.9255C90.1257 38.5482 90.4467 38.1925 90.7547 37.8498C90.8284 37.7631 90.9065 37.6763 90.9802 37.5939C91.028 37.5375 91.0149 37.5505 91.0453 37.4985L91.1234 37.3727C91.2188 37.2035 91.3142 37.043 91.3446 36.8695C91.9215 35.9629 92.2034 34.8959 92.1904 33.8462C92.1774 32.7921 91.8564 31.7641 91.3012 30.9009C90.1908 29.1486 88.0697 28.2073 86.0484 28.4632C85.5495 28.5153 85.0551 28.6237 84.5909 28.8189C84.3524 28.897 84.1398 29.0314 83.9143 29.1399C83.7061 29.2787 83.4848 29.3958 83.2983 29.565C83.0988 29.7081 82.9166 29.8946 82.7301 30.0768L82.1142 30.6754L80.8606 31.8943C79.1906 33.5209 77.5076 35.1431 75.7552 36.7611C74.8313 37.416 74.7749 37.4768 73.9421 38.379C73.9594 38.3269 74.0072 38.2662 73.9291 38.3053C73.9855 38.4484 73.3175 38.9169 73.3305 39.0947C72.0465 40.3006 70.9101 41.4587 69.6088 42.721C69.804 42.5127 69.8257 42.3262 69.5871 42.5735L69.3963 42.8858L69.3269 42.8988C69.175 43.0766 69.0406 43.3022 69.2444 43.1677C66.0606 46.4253 62.6426 49.3402 59.4631 52.4676C58.6607 53.1616 57.6153 54.2503 56.8085 55.0701C54.2276 57.3083 51.9113 59.3384 49.517 61.8412C49.517 61.8412 49.5864 61.2643 50.5537 60.2059L50.5623 60.1885Z" fill="#1B1B1B"/>
<path d="M48.7841 62.4075C48.6626 62.4769 48.4327 62.8023 48.5065 62.4813C48.5845 62.4813 48.7494 62.3381 48.7841 62.4075Z" fill="#1B1B1B"/>
<path d="M42.907 71.2406C42.9201 71.2623 42.8073 71.3577 42.7812 71.3794C42.842 71.2623 42.8507 71.1278 42.9331 71.0541C42.8723 71.1712 42.9114 71.1712 42.907 71.2363V71.2406Z" fill="#1B1B1B"/>
<path d="M41.5346 73.5864C41.4999 73.5213 41.7428 72.9921 41.9076 72.6928L41.5346 73.5864Z" fill="#1B1B1B"/>
<path d="M40.0374 75.6488C39.8812 75.8137 39.8856 75.7443 40.0374 75.4927C40.0764 75.4927 40.046 75.5838 40.0374 75.6488Z" fill="#1B1B1B"/>
<path d="M40.0658 75.8542C39.9617 76.0364 39.8793 76.1101 39.7969 76.1795C39.8489 76.2012 40.0094 75.7414 40.0658 75.8542Z" fill="#1B1B1B"/>
<path d="M41.2 80.5615C41.3171 80.4965 41.547 80.323 41.6858 80.3273C41.5427 80.3446 41.148 80.6873 41.2 80.5615Z" fill="#1B1B1B"/>
<path d="M43.4184 79.3234C43.4921 79.2887 43.5268 79.2843 43.6049 79.2279C43.7524 79.1846 43.6309 79.2973 43.5182 79.3624L43.4141 79.3234H43.4184Z" fill="#1B1B1B"/>
<path d="M79.4209 50.738L79.2517 50.9549L79.2344 50.8812L79.4209 50.738Z" fill="#1B1B1B"/>
<path d="M93.1797 35.6982C93.2187 35.4032 93.2881 35.516 93.3098 35.4683C93.2491 35.7285 93.2578 35.3555 93.1797 35.6982Z" fill="#1B1B1B"/>
<path d="M87.4375 27.3838L87.5243 27.3881L87.4765 27.5139L87.4375 27.3838Z" fill="#1B1B1B"/>
<path d="M57.048 71.3946C51.5566 74.1707 46.0652 76.9468 40.5737 79.7272C40.1877 79.918 39.7366 79.8356 39.4633 79.5407C39.2377 79.2978 39.1683 78.9421 39.2768 78.6168L48.1646 63.0664L57.0523 71.399L57.048 71.3946Z" fill="#77A3F2"/>
<path d="M57.034 71.6521C57.1858 71.5437 56.8952 71.6001 57.1208 71.5524C57.1208 71.6088 57.1078 71.6608 57.034 71.6521Z" fill="#1B1B1B"/>
<path d="M56.7063 70.8451C56.0427 70.6759 55.6957 69.8908 55.071 69.5959C55.006 69.5525 55.2098 69.4788 55.0537 69.392C54.4117 69.1448 53.7871 68.3466 53.3577 67.67H53.4271C53.3447 67.5355 53.0974 67.5355 52.9977 67.414C53.0193 67.388 53.0671 67.414 53.0714 67.3533C52.9716 67.401 52.8328 67.1928 52.7331 67.2058C52.7157 67.1321 52.7764 67.0801 52.7461 66.9933L52.6029 67.015C52.2299 67.0453 52.1735 66.5856 51.8308 66.4598C51.8612 66.4511 51.9002 66.4598 51.9002 66.4207C51.3884 66.1692 50.9113 65.679 50.4211 65.3103C50.4688 65.2973 50.5339 65.2583 50.5382 65.1975C50.4341 65.2669 50.2736 65.1585 50.1392 65.0674C50.1739 64.9243 49.8572 64.959 49.7618 64.7768L49.7922 64.7681C49.597 64.7681 49.6924 64.5686 49.4972 64.6076V64.4731C49.3324 64.5599 49.4148 64.2649 49.2673 64.2519L49.2456 64.2823C49.1372 64.2389 49.1545 64.1348 49.0591 64.0871L49.0678 64.0654C48.9593 63.996 48.9073 63.9309 48.8682 63.8919C48.8292 63.8529 48.8032 63.8399 48.7685 63.9049C48.7685 63.7531 48.942 64.0003 48.9507 63.7878C48.6514 63.5969 48.4171 63.4148 48.1829 63.2152C47.9877 63.5883 47.8012 63.9006 47.593 64.2649C47.5019 64.317 47.4585 64.356 47.4021 64.3474C47.3891 64.4298 47.2763 64.6206 47.3024 64.7161C47.3154 64.69 47.2156 64.7247 47.1896 64.7594C47.0725 64.8592 47.246 64.972 47.1115 65.0804C47.1115 65.0067 47.0811 64.9676 47.0291 64.959C47.0551 65.1281 46.951 65.2799 46.9033 65.4361C46.8946 65.4014 46.9033 65.3624 46.8599 65.345C46.8816 65.5575 46.6778 65.6096 46.6691 65.7831L46.63 65.692C46.4218 65.8568 46.7385 65.8395 46.5823 65.9956C46.5823 65.9393 46.5476 65.9393 46.5259 65.9132C46.552 66.1605 46.3524 66.4164 46.296 66.6116C46.296 66.5942 46.27 66.5856 46.27 66.5856C46.1789 66.7808 46.0271 66.9543 45.962 67.1928C45.8883 67.2492 45.8059 67.0714 45.7191 67.2839C45.8623 67.3577 45.5847 67.6526 45.8102 67.6266C45.6888 67.7827 45.4849 68.0213 45.4676 68.1645C45.4589 68.056 45.2507 68.1514 45.3201 67.9996L45.1726 68.056C45.1249 68.0083 45.255 67.9562 45.1639 67.9519C45.1292 68.0257 45.0685 68.2642 45.0078 68.3163C45.0208 68.4984 45.1075 68.7067 45.0078 68.9322C45.0078 68.8021 44.8212 68.9018 44.8343 68.8194L44.934 69.2705C44.8993 69.3443 44.8169 69.2228 44.7909 69.3443C44.8299 69.3616 44.8299 69.418 44.8386 69.4657C44.8082 69.4831 44.7041 69.778 44.5523 69.7303C44.4786 69.7303 44.587 69.6002 44.4959 69.6479C44.4222 69.778 44.4656 69.8127 44.3962 69.9429L44.3745 69.9342C44.3051 70.0079 44.2877 70.2205 44.4179 70.1728C44.4569 70.1164 44.3224 70.1467 44.4135 70.0817C44.4569 70.1901 44.3962 70.3506 44.3224 70.4851C44.3224 70.4287 44.2877 70.4113 44.2574 70.3723C44.266 70.6109 44.1923 70.8147 44.1272 71.036C44.1923 71.075 44.0492 70.8928 44.1012 70.8841C43.867 71.0837 43.932 71.4741 43.6805 71.6085C43.6891 71.5695 43.7846 71.6432 43.7629 71.6345C43.6848 71.7517 43.5937 71.6909 43.585 71.7907C43.5243 71.7647 43.546 71.8991 43.5156 71.9902C43.533 72.0553 43.4766 71.9946 43.5113 71.9208C43.4939 72.0596 43.3204 72.5628 43.0905 72.7753C43.1296 72.7927 43.1339 73.0139 43.0949 73.0703L43.0211 72.9966C42.9387 73.0226 42.9127 73.2004 42.8346 73.1701C42.865 73.3566 43.0255 72.6235 43.0081 72.8447C42.9084 72.8447 43.0081 73.1657 42.9127 73.0616C42.8476 73.1831 42.878 73.3566 42.7305 73.426C42.7652 73.4 42.6655 73.2612 42.6177 73.3609C42.5353 73.5431 42.6308 73.4347 42.5787 73.5865L42.5657 73.6949C42.6481 73.747 42.4659 73.8424 42.5961 73.8294C42.5136 73.812 42.4963 74.1026 42.3662 74.0072L42.2707 73.9205C42.236 73.9985 42.3184 74.107 42.3315 74.1937C42.3141 74.1937 42.2837 74.2024 42.2664 74.1937C42.4269 74.3022 42.1493 74.3629 42.2317 74.5234C42.0842 74.6449 42.0018 74.9138 41.8543 74.9268C41.837 75.0743 41.837 75.2174 41.7199 75.3345C41.7199 75.2998 41.7372 75.2565 41.7025 75.2304C41.6027 75.2868 41.6374 75.3345 41.6201 75.4256C41.6071 75.3953 41.4249 75.5427 41.3121 75.6035C41.2948 75.7509 41.4075 75.7596 41.4553 75.8073C41.2297 75.8203 41.3685 76.2021 41.143 76.2541C41.143 76.2021 41.1603 76.0329 41.0605 76.111C40.835 76.124 41.0605 76.4016 40.8784 76.5274L41.0388 76.5621C40.9087 76.5924 40.9694 76.8657 40.8393 76.7659C40.8567 76.8527 40.6745 76.9481 40.822 77.0045C40.5444 77.2257 40.4923 77.7419 40.1496 77.7809C40.1496 77.833 40.0672 77.9241 40.1496 77.9414C40.2624 77.9154 40.1496 77.8156 40.2147 77.82C40.1974 77.859 40.2277 77.8894 40.2451 77.9024C40.1627 77.9761 40.1149 78.0369 40.0499 77.8894C39.8547 78.0412 40.1583 78.2234 39.9631 78.4489C39.9154 78.4056 39.8807 78.4142 39.8503 78.4923L39.8634 78.6875C39.7462 78.8393 39.6855 78.7092 39.5901 78.6571C39.5771 78.6918 39.5597 78.7309 39.5467 78.7656L39.5727 78.7049C39.5727 78.7526 39.5727 78.7916 39.6248 78.8176C39.5771 78.835 39.5294 78.8567 39.4816 78.8827C39.5814 78.8263 39.5424 78.9434 39.5771 78.9695L39.5467 78.9391C39.499 78.9521 39.538 79.0345 39.5597 79.0649C39.6204 79.0389 39.6335 78.9695 39.6552 78.9304C39.7029 78.9564 39.6985 78.9955 39.7593 79.0128C39.6508 79.0302 39.7115 79.1126 39.7202 79.1473C39.7246 79.1993 39.8243 79.1343 39.8287 79.143C39.7853 79.1777 39.8634 79.195 39.7853 79.2254C39.7593 79.2254 39.8026 79.169 39.7506 79.1777C39.7332 79.221 39.6595 79.2904 39.7593 79.2904C39.833 79.2818 39.885 79.1256 39.9024 79.221C39.872 79.234 39.846 79.2644 39.807 79.2818C39.82 79.3121 39.833 79.3468 39.8547 79.3772L39.9024 79.2948C39.9024 79.3208 39.8894 79.3251 39.8894 79.3382C39.9501 79.2601 40.0282 79.3512 40.0629 79.2384C40.0932 79.234 40.1366 79.3121 40.18 79.3165L40.1713 79.3251C40.2321 79.3772 40.3015 79.3165 40.3058 79.2384L40.3145 79.2601C40.3145 79.2601 40.4619 79.1777 40.4923 79.0996C40.6485 79.0996 40.6962 79.4032 40.7786 79.2297C40.9 79.1646 40.8914 78.9738 40.8133 78.9434C41.0649 78.8914 41.2471 78.6224 41.5203 78.6528C41.5333 78.6008 41.503 78.5921 41.5594 78.5357C41.902 78.4056 42.197 78.0846 42.544 78.1236C42.4659 78.206 42.583 78.2147 42.6091 78.2624C42.6481 78.1453 42.7435 78.2971 42.7045 78.1496C42.6568 78.0759 42.6481 78.0325 42.5397 78.0499C42.7132 77.9111 43.0081 77.7593 43.1556 77.7766C43.0819 77.7679 43.1122 77.7246 43.1426 77.6768C43.1903 77.807 43.3421 77.7549 43.4289 77.6552L43.4072 77.5727L43.5156 77.6161C43.546 77.5727 43.4809 77.4339 43.6241 77.4513C43.6458 77.4773 43.6674 77.5033 43.6978 77.5164C43.7802 77.3992 43.8843 77.2127 44.0405 77.2171L44.1966 77.2778C44.2443 77.2387 44.2964 77.1303 44.188 77.1433C44.4309 77.1043 44.5697 77.0436 44.6824 77.1086C44.921 76.6965 45.4372 76.4233 45.8623 76.2281L45.8796 76.2931C46.0184 76.2931 45.8883 76.163 45.9837 76.163C45.9751 76.2368 46.1269 76.2368 46.0748 76.3495C46.2657 76.3278 46.231 76.1457 46.3221 76.0676C46.3004 75.9852 46.2613 76.1587 46.2353 76.0546C46.2353 76.0199 46.4869 76.0025 46.4522 75.8767C46.5129 75.9028 46.5259 75.9982 46.5259 76.0546L46.5953 75.9505C46.7819 76.0199 46.4435 76.3235 46.6474 76.4233L46.7298 76.3582C46.8773 76.4319 46.5606 76.6098 46.8035 76.5361C46.8729 76.4319 46.8773 76.2237 46.7645 76.2194C46.951 76.0849 46.7255 75.9028 46.9467 75.803C47.0421 75.8377 46.7775 75.9071 46.8686 75.9808C47.0161 76.0199 47.0508 75.8247 47.1592 75.8117C47.0334 75.8203 47.0638 75.6642 47.1202 75.6078C47.259 75.6078 47.1028 75.7509 47.2633 75.6815C47.2547 75.6035 47.3761 75.482 47.2286 75.4994C47.2113 75.3215 47.4151 75.456 47.4412 75.2998C47.5453 75.3779 47.3978 75.6208 47.6017 75.5861C47.5236 75.4994 47.7491 75.3432 47.58 75.2391C47.6624 75.2348 47.7101 75.3085 47.6928 75.3953C47.8229 75.4083 47.8359 75.0916 47.9704 75.2738L47.953 75.1567C48.0007 75.174 48.0571 75.1784 48.1352 75.2087C48.2219 75.1654 48.3434 74.9311 48.4128 75.0873C48.4301 75.0569 48.6297 74.9658 48.5039 74.8964C48.3477 74.8964 48.4041 75.0439 48.261 74.9355C48.4041 75.0092 48.4301 74.8314 48.4779 74.7576L48.5212 74.8097C48.5516 74.7663 48.6557 74.7273 48.647 74.6535C48.634 74.7056 48.6687 74.7359 48.7121 74.7316V74.6188C48.8596 74.4887 48.8292 74.7576 48.9854 74.6492L48.8943 74.7837C48.916 74.7533 49.0114 74.8097 49.0765 74.7403C49.0634 74.6405 49.0765 74.5147 49.0678 74.4366C49.1415 74.3542 49.1589 74.5104 49.2066 74.3759L49.1372 74.5364C49.1328 74.5711 49.289 74.6318 49.4104 74.5668C49.4755 74.4974 49.5406 74.3152 49.3888 74.3325C49.4495 74.2978 49.5623 74.3065 49.5449 74.3933C49.6707 74.2935 49.4798 74.3152 49.5796 74.2024C49.6577 74.2328 49.8529 74.2328 49.9874 74.2631L49.931 74.467L50.0177 74.4236C49.9657 74.5885 50.1175 74.48 50.1131 74.6275C50.1825 74.6188 50.2303 74.5407 50.2693 74.4844C50.0047 74.3846 50.33 74.133 50.1956 73.9855C50.4038 73.8207 50.5512 74.3282 50.6597 73.9378C50.599 73.9118 50.6467 73.7253 50.5252 73.8467C50.6814 73.7947 50.5382 73.6255 50.7421 73.6082C50.651 73.7426 50.9633 73.7123 50.8332 73.9075C50.8158 73.8424 50.7117 73.9161 50.69 73.9465C50.7811 73.9812 50.7638 74.1243 50.9113 74.0506C50.9937 73.9899 51.1151 73.9248 51.0544 73.8424C51.0024 73.747 50.9199 73.9248 50.9286 73.7947C51.0891 73.6689 51.1975 73.8034 51.1845 73.5908C51.0761 73.6602 50.998 73.5735 50.9677 73.5084L51.0804 73.4L51.0891 73.478C51.3233 73.4173 51.0891 73.3306 51.306 73.2438L51.4665 73.3219C51.4752 73.4563 51.1412 73.4216 51.2713 73.5865C51.4101 73.5257 51.4058 73.413 51.5576 73.3956C51.5359 73.426 51.5012 73.4477 51.4838 73.478C51.5359 73.4607 51.705 73.6732 51.8222 73.439C51.8916 73.3349 51.8178 73.3609 51.7831 73.2915C51.987 73.1614 52.0174 73.0616 52.1475 72.9792C52.1865 73.1267 52.3991 72.8664 52.3123 73.079C52.2039 73.0356 51.8959 73.2004 51.8829 73.3653C52.039 73.4824 51.705 73.4303 51.7354 73.6082C51.9089 73.5257 51.9783 73.6819 52.0564 73.7687C52.1084 73.7513 52.1345 73.6862 52.1518 73.6559C52.1258 73.5518 52.0607 73.5821 52.0087 73.4867C52.2125 73.4173 52.373 73.2698 52.4294 73.1223C52.5162 73.1354 52.5465 73.2395 52.4728 73.2872C52.6853 73.144 52.9369 73.0356 53.1668 72.9532C52.9499 72.8708 53.388 72.7927 53.2319 72.7146C53.0974 72.7406 52.9413 72.6799 52.9716 72.5758C53.0497 72.5498 53.002 72.6452 53.0497 72.6626C53.0974 72.5324 53.2623 72.7233 53.2839 72.5454C53.1018 72.7016 53.3403 72.7537 53.362 72.8968C53.4791 72.7537 53.4011 72.9879 53.5485 72.9098C53.6656 72.7667 53.8218 72.6192 53.9736 72.5107C54.2426 72.5194 54.5028 72.2462 54.6893 72.1464C54.8195 72.1594 54.8195 72.3286 54.9409 72.2982C55.0624 72.2331 54.7761 72.1984 54.9886 72.1681V72.2028C55.0233 72.142 55.3703 72.1247 55.3226 71.8991L55.34 72.077C55.379 72.077 55.3964 72.0249 55.418 71.9946C55.4441 72.0423 55.5048 72.064 55.4658 72.1247C55.6306 72.1681 55.6957 71.9859 55.8171 71.9208L55.6913 71.8731C55.8692 71.6953 56.0557 71.7126 56.2422 71.5782L56.2812 71.6692L56.3767 71.5565C56.3897 71.6562 56.5285 71.6519 56.5588 71.5478L56.3506 71.9165C56.2379 71.9122 56.394 71.7647 56.2942 71.7083C56.2118 71.6562 56.034 71.7777 56.0427 71.8731C56.1207 71.8471 56.1121 71.8254 56.1554 71.7647C56.2379 71.8731 56.1294 71.9252 56.1121 72.0293C56.1468 72.0032 56.2205 72.0163 56.2075 71.9729C56.1641 72.0683 56.0904 72.116 55.9689 72.1811C56.0296 72.09 55.8865 72.129 55.8995 72.0813C55.9429 72.1898 55.8388 72.2852 55.674 72.3329C55.5048 72.2678 55.4267 72.5585 55.2315 72.6148C55.2489 72.4717 55.2966 72.3416 55.3833 72.2418C55.2445 72.2418 55.2619 72.3069 55.1231 72.3112C55.1101 72.4197 55.1318 72.5585 55.0103 72.6799L54.9626 72.6062C54.8498 72.7146 54.9105 72.8274 54.7284 72.8925C54.4204 73.0009 54.1254 73.1484 53.8999 73.2525L53.8522 73.1787C53.8131 73.4086 53.4748 73.4477 53.349 73.6038C53.0324 73.6689 52.7764 73.9855 52.5682 73.9248C52.1041 74.2328 51.7007 74.5104 51.1759 74.7446L51.2062 74.5885C51.1585 74.7186 51.1151 74.5538 51.0327 74.6145C51.1802 74.6535 50.9677 74.7967 50.9416 74.8964C50.6684 74.9225 50.4255 75.1697 50.265 75.3519L50.2172 75.2781C50.0871 75.5297 49.7791 75.521 49.5102 75.6295C49.4668 75.6121 49.3801 75.5601 49.3107 75.6078C49.2369 75.803 49.1589 75.8334 48.9984 76.0155C48.8509 76.0893 48.595 76.1804 48.4215 76.2064C47.9573 76.6662 47.3284 76.8397 46.8079 77.2387L46.7211 77.1693C46.2613 77.6508 45.4806 77.82 45.0511 78.1627L45.0164 77.9805C44.8429 78.0065 44.6955 78.193 44.7909 78.2884C44.6174 78.3145 44.4526 78.553 44.2921 78.475C44.1229 78.5227 44.1402 78.6441 44.0231 78.7265C43.6848 78.822 43.5764 78.8957 43.3031 79.0692L43.3812 79.0432C43.3942 78.9911 43.3638 78.9217 43.2857 78.9521C43.199 79.0519 42.865 79.1126 43.0689 79.2427C42.7045 79.2904 42.3922 79.6982 42.0148 79.7025C42.0669 79.7415 41.9975 79.7893 41.9801 79.8413C41.7112 79.9801 41.3728 80.0192 41.1993 80.2187C41.143 80.2187 41.2254 80.0972 41.1126 80.1449C41.0562 80.197 41.143 80.2143 41.0779 80.2838C41.0302 80.3228 40.9781 80.3575 40.9261 80.3922C40.8393 80.4399 40.7309 80.4876 40.6268 80.5136C40.4142 80.57 40.1887 80.5787 39.9761 80.5397C39.5467 80.4616 39.1867 80.2187 38.9221 79.9194C38.523 79.5203 38.4059 78.8914 38.5751 78.3709L38.5968 78.3015L38.6315 78.2364C38.8744 77.807 39.1129 77.3819 39.3428 76.9785L39.3732 77.0089C39.3602 76.7052 39.8156 76.5708 39.7029 76.2715C39.7679 76.2411 39.833 76.0806 39.8807 76.1587C39.8807 75.9244 40.2581 75.7162 40.2754 75.3909C40.2581 75.4126 40.2581 75.43 40.2581 75.4647C40.488 75.2521 40.5053 74.9615 40.7352 74.7316C40.7352 74.7663 40.7179 74.827 40.7482 74.8531C40.8784 74.788 40.7352 74.5147 40.9478 74.5581C40.9825 74.4974 40.8827 74.4627 40.8653 74.506C41.2774 73.9465 41.5247 73.2481 41.8413 72.6018C42.2013 72.2158 42.1536 72.745 42.223 72.3199C42.2751 72.3112 42.1666 72.2592 42.2057 72.2765C42.2317 72.1117 42.5267 72.1767 42.4876 72.0293C42.3575 72.0076 42.4616 71.9338 42.3965 71.8905C42.6221 71.6606 42.7522 71.6606 42.7912 71.396L42.839 71.4437C42.8216 71.101 43.0732 70.8581 43.0081 70.5371C43.7672 69.1274 44.4265 67.7394 45.1769 66.373C45.5543 65.7527 45.9013 65.1194 46.257 64.4905C46.4522 64.1522 46.6474 63.8095 46.8426 63.4668C47.2026 62.8465 47.567 62.2306 47.927 61.645C48.0441 61.7621 48.1699 61.8879 48.2913 62.0094C48.7945 62.7207 48.7728 62.6904 49.3454 63.1328C49.3063 63.1328 49.2716 63.1111 49.2933 63.1675C49.3454 63.1198 49.4451 63.2066 49.5406 63.2933C49.597 63.341 49.6534 63.3931 49.7141 63.354C50.1175 63.7705 50.5339 64.1044 50.9677 64.5122C50.8896 64.4601 50.7725 64.5122 50.8635 64.5816L51.011 64.5946L50.998 64.638C51.0674 64.677 51.1759 64.6814 51.1498 64.5946C52.3253 65.5272 53.2015 66.7417 54.2946 67.7177C54.5071 67.9996 54.9062 68.2989 55.2012 68.5332C55.8908 69.4397 56.5198 70.2422 57.4437 70.9232C57.4437 70.9232 57.0837 71.088 56.6846 70.8321L56.7063 70.8451Z" fill="#1B1B1B"/>
<path d="M56.8574 71.7564C56.788 71.7087 56.6579 71.7347 56.7056 71.6046C56.749 71.6567 56.8401 71.6957 56.8574 71.7564Z" fill="#1B1B1B"/>
<path d="M53.402 72.6722C53.402 72.6722 53.3455 72.6722 53.3281 72.6635C53.3629 72.6374 53.3716 72.5679 53.4194 72.5853C53.3846 72.6114 53.402 72.6375 53.402 72.6722Z" fill="#1B1B1B"/>
<path d="M52.5952 73.0458C52.5778 72.9851 52.7253 72.8506 52.8207 72.7943L52.5952 73.0458Z" fill="#1B1B1B"/>
<path d="M51.7511 73.1761C51.6641 73.1587 51.6685 73.1239 51.7511 73.0848C51.7728 73.1109 51.7511 73.1413 51.7511 73.1761Z" fill="#1B1B1B"/>
<path d="M51.7499 73.3595C51.6892 73.3898 51.6415 73.3725 51.5938 73.3595C51.6198 73.4072 51.7195 73.2554 51.7499 73.3595Z" fill="#1B1B1B"/>
<path d="M50.0555 73.9837C50.0208 74.0098 49.96 74.0965 49.8906 74.0531C49.9514 74.0748 50.0424 73.8883 50.0555 73.9837Z" fill="#1B1B1B"/>
<path d="M49.352 74.4354C49.3259 74.4441 49.3129 74.4354 49.2911 74.4701C49.2346 74.4701 49.2607 74.4006 49.2911 74.3788L49.3476 74.4397L49.352 74.4354Z" fill="#1B1B1B"/>
<path d="M41.0885 76.4135L41.0712 76.5089L41.0234 76.4656L41.0885 76.4135Z" fill="#1B1B1B"/>
<path d="M44.3906 70.6007C44.3993 70.5009 44.473 70.5747 44.4904 70.566C44.4557 70.6397 44.4383 70.5009 44.3906 70.6007Z" fill="#1B1B1B"/>
<path d="M45.8749 67.3466L45.8663 67.3683L45.7578 67.2989L45.8749 67.3466Z" fill="#1B1B1B"/>
<path d="M51.3331 74.2794C47.5984 76.0491 43.8637 77.8189 40.1334 79.5886C39.8731 79.7101 39.5608 79.658 39.3786 79.4715C39.2268 79.3154 39.1791 79.0898 39.2528 78.8816L45.2951 68.9702L51.3374 74.2794H51.3331Z" fill="black"/>
<path d="M51.3861 74.5343C51.4861 74.4561 51.2774 74.4604 51.4383 74.4561C51.447 74.5082 51.4383 74.5561 51.3861 74.5343Z" fill="#1B1B1B"/>
<path d="M51.1502 73.8765C50.6341 73.8634 50.4649 73.2692 50.0008 73.1391C49.9531 73.1174 50.1309 73.0133 50.0138 72.9699C49.528 72.8875 49.1332 72.3323 48.8773 71.8465L48.9337 71.8291C48.886 71.738 48.6821 71.7857 48.6214 71.699C48.6431 71.6729 48.6778 71.686 48.6908 71.6339C48.6041 71.6946 48.5173 71.5472 48.4349 71.5732C48.4349 71.5168 48.4869 71.4561 48.4783 71.391L48.3568 71.4387C48.0488 71.5385 48.0705 71.1611 47.8059 71.1221C47.832 71.1091 47.8623 71.1091 47.8667 71.0744C47.485 70.9616 47.1683 70.6406 46.8256 70.4237C46.8647 70.402 46.9254 70.3587 46.9384 70.3066C46.843 70.3847 46.7302 70.3283 46.6304 70.2719C46.6782 70.1461 46.4136 70.2372 46.3658 70.0984L46.3919 70.0854C46.2357 70.1244 46.3398 69.9379 46.175 70.0073L46.1967 69.8945C46.0492 70.003 46.1533 69.734 46.0405 69.7557L46.0188 69.7861C45.9494 69.7861 45.9755 69.6863 45.9147 69.6733V69.6516C45.7976 69.6082 45.7716 69.4521 45.7326 69.6039C45.7282 69.4521 45.8497 69.6386 45.841 69.4174C45.6415 69.3263 45.481 69.2265 45.3248 69.1051C45.1947 69.3523 45.0602 69.5605 44.9258 69.7817C44.8564 69.7817 44.826 69.8078 44.7783 69.7817C44.7739 69.8468 44.6959 69.9639 44.7306 70.042C44.7392 70.0247 44.6525 70.0333 44.6308 70.055C44.5354 70.1071 44.7089 70.2242 44.6004 70.2806C44.5918 70.2242 44.5614 70.1895 44.5093 70.1765C44.5571 70.3109 44.479 70.402 44.453 70.5105C44.4399 70.4844 44.4443 70.4541 44.4052 70.4367C44.4486 70.5972 44.2751 70.6016 44.2881 70.7317L44.2404 70.6579C44.0712 70.7447 44.3575 70.7881 44.2361 70.8748C44.2361 70.8315 44.197 70.8271 44.1754 70.8054C44.2317 70.9919 44.0799 71.1481 44.0539 71.2869C44.0496 71.2739 44.0279 71.2652 44.0279 71.2652C43.9671 71.3953 43.8544 71.4994 43.824 71.6686C43.7633 71.699 43.6678 71.5515 43.6115 71.6946C43.7503 71.7727 43.5334 71.9462 43.7373 71.9679C43.6462 72.0633 43.49 72.2065 43.49 72.3106C43.4683 72.2282 43.2905 72.2629 43.3339 72.1631L43.2081 72.1804C43.156 72.1371 43.2688 72.1197 43.1864 72.098C43.1647 72.1457 43.1387 72.3149 43.0909 72.3409C43.1256 72.4754 43.2341 72.6532 43.1647 72.8007C43.1517 72.7053 42.9912 72.7443 42.9955 72.688L43.143 73.0393C43.1213 73.087 43.0302 72.9829 43.0259 73.0697C43.0649 73.087 43.0693 73.1304 43.0866 73.1694C43.0606 73.1781 43.0042 73.382 42.8567 73.3169C42.7917 73.3039 42.8741 73.2258 42.796 73.2475C42.7439 73.3343 42.7917 73.3646 42.7396 73.4514L42.7222 73.4427C42.6702 73.4861 42.6789 73.6422 42.7917 73.6292C42.8177 73.5945 42.7006 73.5945 42.7743 73.5598C42.8307 73.6466 42.7917 73.7593 42.7396 73.8461C42.7396 73.8027 42.6962 73.7854 42.6659 73.7507C42.7049 73.9285 42.6659 74.0716 42.6312 74.2235C42.6962 74.2625 42.5444 74.1064 42.5878 74.1064C42.4013 74.2148 42.5097 74.5184 42.2972 74.5748C42.2972 74.5444 42.3969 74.6182 42.3752 74.6095C42.3189 74.6833 42.2278 74.6225 42.2321 74.6963C42.1757 74.6659 42.2104 74.77 42.1931 74.8351C42.2147 74.8871 42.1584 74.8351 42.18 74.783C42.18 74.8828 42.089 75.2298 41.9024 75.3512C41.9415 75.3686 41.9718 75.5378 41.9458 75.5725L41.8721 75.5074C41.7983 75.5117 41.7983 75.6419 41.7246 75.6028C41.7766 75.7503 41.833 75.2298 41.8417 75.3903C41.755 75.3773 41.8808 75.6289 41.781 75.5334C41.7376 75.6115 41.7853 75.746 41.6595 75.772C41.6856 75.759 41.5815 75.6375 41.5468 75.7026C41.4947 75.824 41.5684 75.759 41.5424 75.8674V75.9455C41.6248 75.9976 41.473 76.0366 41.5901 76.0539C41.5121 76.0279 41.5337 76.2405 41.4036 76.145L41.3038 76.0626C41.2822 76.1147 41.3689 76.2101 41.3949 76.2795C41.3819 76.2795 41.3516 76.2795 41.3342 76.2665C41.4947 76.3749 41.2518 76.3749 41.3429 76.5094C41.2258 76.5745 41.1824 76.761 41.0479 76.748C41.0479 76.8564 41.0653 76.9648 40.9785 77.0299C40.9742 77.0039 40.9829 76.9779 40.9525 76.9475C40.8701 76.9735 40.9048 77.0126 40.9005 77.082C40.8831 77.0559 40.7356 77.134 40.6402 77.16C40.6402 77.2685 40.7486 77.2945 40.7963 77.3379C40.5925 77.3075 40.7703 77.6198 40.5665 77.6155C40.5621 77.5764 40.5534 77.455 40.4754 77.494C40.2715 77.4637 40.5101 77.7109 40.3626 77.776L40.5144 77.8324C40.4016 77.8324 40.4927 78.0492 40.3582 77.9538C40.3756 78.0362 40.2541 78.0232 40.3973 78.0883C40.3149 78.1013 40.2975 78.1664 40.2715 78.2097C40.2455 78.2574 40.2021 78.2965 40.0069 78.3529C40.0286 78.3659 39.9722 78.4093 40.0806 78.3832C40.2064 78.3442 40.0199 78.3615 40.1023 78.3399C40.1023 78.3529 40.1544 78.3485 40.1804 78.3399C40.1197 78.3746 40.085 78.4049 39.9375 78.4049C39.751 78.5264 40.2498 78.3963 40.124 78.4873C40.0286 78.5177 39.9896 78.5394 39.9896 78.5567L40.1414 78.5307C40.0893 78.6001 39.9028 78.6782 39.7293 78.7606C39.7553 78.791 39.751 78.8517 39.8854 78.7866C39.816 78.8474 39.751 78.9081 39.6859 78.9775C39.8291 78.8343 39.7987 78.9428 39.8507 78.9298L39.7987 78.9428C39.7293 79.0035 39.7987 79.0165 39.8377 79.0165C39.9332 78.9298 39.9462 78.8604 39.9679 78.817C40.0503 78.778 40.0459 78.817 40.1414 78.7606C39.9765 78.8864 40.0676 78.8951 40.0763 78.9254C40.0763 78.9775 40.2325 78.8127 40.2325 78.8213C40.1631 78.8994 40.2628 78.8517 40.1457 78.9515C40.1153 78.9732 40.1934 78.8647 40.1153 78.9254C40.0806 78.9905 39.9592 79.1293 40.0893 79.0469C40.1847 78.9818 40.3279 78.7433 40.3019 78.856C40.2585 78.8907 40.2108 78.9515 40.1544 79.0035C40.1544 79.0339 40.1544 79.0686 40.1544 79.0946L40.2541 78.9515C40.2368 78.9905 40.2238 78.9992 40.2151 79.0209C40.3322 78.8734 40.3366 78.9732 40.4407 78.804C40.4667 78.7866 40.4407 78.8907 40.458 78.8951L40.4493 78.9081C40.4407 78.9732 40.5144 78.8994 40.5621 78.804L40.5534 78.8343C40.5534 78.8343 40.6098 78.7997 40.6402 78.7216C40.6532 78.7953 40.5621 79.164 40.6445 78.9862C40.7053 78.9558 40.7356 78.7476 40.7226 78.6825C40.753 78.7042 40.7877 78.6608 40.8137 78.6348C40.8441 78.6088 40.8657 78.5958 40.9265 78.6478C40.9178 78.6088 40.9048 78.5871 40.9352 78.5481C41.1694 78.4787 41.3472 78.2271 41.6031 78.3138C41.5554 78.3789 41.6422 78.4049 41.6639 78.4526C41.6812 78.3485 41.7636 78.5047 41.7203 78.3616C41.6769 78.2835 41.6639 78.2444 41.5901 78.2401C41.6986 78.136 41.8981 78.0406 42.0065 78.0839C41.9545 78.0623 41.9718 78.0276 41.9849 77.9885C42.0369 78.1186 42.141 78.0926 42.1931 78.0145L42.167 77.9321L42.2494 77.9885C42.2668 77.9495 42.2061 77.815 42.3102 77.8541C42.3275 77.8801 42.3449 77.9104 42.3709 77.9235C42.4143 77.8237 42.4707 77.6675 42.5834 77.6936L42.7049 77.7716C42.7353 77.7413 42.7613 77.6458 42.6832 77.6458C42.8524 77.6458 42.9478 77.6155 43.0389 77.6892C43.1647 77.3379 43.5074 77.1644 43.798 77.0516L43.8153 77.1123C43.9151 77.1297 43.8067 76.9952 43.8761 77.0082C43.8761 77.0733 43.9888 77.0993 43.9628 77.1947C44.0973 77.2034 44.0539 77.0299 44.1103 76.9692C44.0843 76.8868 44.0756 77.0429 44.0452 76.9431C44.0452 76.9084 44.2231 76.9301 44.184 76.8087C44.2317 76.839 44.2491 76.9345 44.2578 76.9865L44.2968 76.8998C44.4399 76.9952 44.2274 77.2251 44.3879 77.3465L44.4399 77.2988C44.5527 77.3899 44.3445 77.507 44.5137 77.4767C44.5527 77.3899 44.531 77.1991 44.4486 77.173C44.5701 77.0776 44.3836 76.8694 44.5354 76.813C44.6091 76.8607 44.4269 76.8868 44.4963 76.9648C44.6091 77.0256 44.6091 76.8477 44.6872 76.8521C44.6004 76.8434 44.6004 76.7002 44.6351 76.6569C44.7349 76.6742 44.6351 76.787 44.7479 76.748C44.7349 76.6742 44.8086 76.5788 44.7045 76.5745C44.6742 76.4053 44.8347 76.5614 44.839 76.4226C44.9214 76.5094 44.8433 76.7176 44.9865 76.7133C44.9214 76.6222 45.0646 76.5094 44.9301 76.3879C44.9908 76.3966 45.0299 76.4747 45.0299 76.5528C45.1253 76.5831 45.0993 76.2925 45.2164 76.4834L45.1904 76.3706C45.2251 76.3966 45.2684 76.4053 45.3292 76.4443C45.3855 76.4183 45.4463 76.2188 45.5157 76.3749C45.5243 76.3489 45.6588 76.2968 45.5591 76.2101C45.4463 76.1841 45.5027 76.3315 45.3899 76.2101C45.5027 76.3012 45.4983 76.1407 45.5287 76.0756L45.5634 76.132C45.5807 76.0973 45.6501 76.0756 45.6371 76.0062C45.6328 76.0496 45.6632 76.0886 45.6935 76.093L45.6805 75.9889C45.7716 75.8891 45.7846 76.1364 45.88 76.0583L45.828 76.1711C45.841 76.145 45.9191 76.2144 45.9581 76.1624C45.9408 76.067 45.9321 75.9498 45.9147 75.8761C45.9581 75.811 45.9885 75.9585 46.0102 75.8414L45.9755 75.9802C45.9755 76.0149 46.0969 76.093 46.1793 76.0496C46.2184 75.9932 46.2444 75.8371 46.1403 75.8284C46.1837 75.8067 46.2661 75.8284 46.2617 75.9065C46.3442 75.8327 46.2054 75.824 46.2617 75.733C46.3225 75.772 46.4656 75.8024 46.5654 75.8544L46.548 76.0366L46.6044 76.0106C46.5827 76.158 46.6825 76.08 46.6955 76.2188C46.7432 76.2188 46.7692 76.158 46.7953 76.106C46.5914 75.9715 46.7953 75.785 46.6825 75.6289C46.817 75.5074 46.9774 76.0019 47.0122 75.6549C46.9644 75.6245 46.9774 75.4553 46.9037 75.5508C47.0078 75.5247 46.8864 75.3469 47.0338 75.3643C46.9818 75.477 47.2073 75.4987 47.1336 75.6592C47.1163 75.5985 47.0468 75.6462 47.0338 75.6722C47.1032 75.7199 47.1076 75.8501 47.2073 75.8024C47.2594 75.759 47.3418 75.7156 47.2854 75.6289C47.2377 75.5291 47.1987 75.6852 47.19 75.5638C47.2941 75.4727 47.3852 75.6115 47.3505 75.4163C47.2811 75.464 47.2117 75.3729 47.1813 75.3035L47.2507 75.2211L47.2637 75.2949C47.4286 75.2732 47.2507 75.1561 47.3939 75.1083L47.5197 75.2081C47.5413 75.3339 47.2984 75.2515 47.4069 75.425C47.498 75.3903 47.4849 75.2818 47.5934 75.2905C47.5804 75.3165 47.5587 75.3296 47.55 75.3556C47.5847 75.3469 47.7322 75.5725 47.7929 75.3729C47.832 75.2862 47.7799 75.2992 47.7495 75.2298C47.884 75.143 47.8927 75.0519 47.9794 74.9956C48.0228 75.1387 48.1486 74.9305 48.1096 75.117C48.0272 75.0606 47.8233 75.1647 47.832 75.3165C47.9578 75.451 47.7105 75.3469 47.7539 75.5204C47.871 75.4684 47.9404 75.6289 48.0055 75.7199C48.0402 75.7113 48.0532 75.6549 48.0619 75.6289C48.0315 75.5247 47.9881 75.5464 47.9404 75.451C48.0792 75.4163 48.179 75.3035 48.205 75.1777C48.2701 75.2038 48.3004 75.3079 48.257 75.3382C48.3958 75.2385 48.565 75.1734 48.7255 75.1344C48.5563 75.0216 48.8686 75.0216 48.7429 74.9218C48.6474 74.9218 48.5303 74.8437 48.539 74.7527C48.591 74.7396 48.5694 74.8221 48.6041 74.8437C48.6257 74.731 48.7645 74.9348 48.7602 74.77C48.6431 74.8871 48.8253 74.9739 48.8556 75.1083C48.925 74.9912 48.8947 75.1994 48.9901 75.1517C49.0595 75.0346 49.1549 74.9262 49.2547 74.8437C49.4499 74.8958 49.6104 74.6789 49.7318 74.6139C49.8273 74.6442 49.8489 74.8047 49.9314 74.796C50.0138 74.7527 49.7969 74.6746 49.9531 74.6789V74.7136C49.9747 74.6659 50.2263 74.7006 50.1656 74.4837L50.2003 74.6529C50.2307 74.6529 50.235 74.6095 50.248 74.5878C50.274 74.6355 50.3218 74.6659 50.2957 74.718C50.4215 74.7874 50.4475 74.6269 50.53 74.5835L50.4345 74.5184C50.543 74.3796 50.6774 74.423 50.8032 74.3276L50.8423 74.4187L50.8987 74.3276C50.9203 74.423 51.0201 74.4403 51.0288 74.3493L50.9203 74.6616C50.8379 74.6399 50.9334 74.5271 50.8553 74.4577C50.7902 74.397 50.6731 74.4794 50.6904 74.5748C50.7425 74.5618 50.7382 74.5401 50.7598 74.4924C50.8336 74.6052 50.7598 74.6355 50.7598 74.7353C50.7815 74.718 50.8379 74.7353 50.8249 74.6963C50.8032 74.7787 50.7555 74.8134 50.6774 74.8524C50.7121 74.7787 50.6124 74.7917 50.6167 74.7483C50.6601 74.8568 50.595 74.9262 50.4822 74.9478C50.3521 74.8611 50.3261 75.117 50.1916 75.1387C50.1916 75.0086 50.209 74.8915 50.261 74.8134C50.1613 74.796 50.1786 74.8568 50.0788 74.8351C50.0788 74.9305 50.1135 75.0693 50.0398 75.1647L49.9964 75.0867C49.927 75.1691 49.9834 75.2862 49.862 75.3165C49.6494 75.3686 49.4542 75.464 49.3024 75.5204L49.259 75.4423C49.259 75.6505 49.0161 75.6332 48.9424 75.7633C48.7168 75.7763 48.5737 76.0323 48.4089 75.9412C48.1052 76.158 47.845 76.3532 47.4893 76.4877V76.3446C47.4719 76.4573 47.4199 76.2968 47.3678 76.3446C47.4806 76.4053 47.3418 76.5051 47.3331 76.5961C47.1379 76.5788 46.9905 76.7696 46.8907 76.9128L46.8473 76.8347C46.7823 77.0473 46.5567 76.9952 46.3745 77.0516C46.3398 77.0299 46.2748 76.9692 46.227 76.9995C46.1967 77.173 46.1446 77.1861 46.0449 77.3292C45.9451 77.3769 45.7716 77.4203 45.6458 77.416C45.3595 77.7716 44.9258 77.8367 44.5918 78.1273L44.518 78.0492C44.2361 78.4266 43.6895 78.4657 43.4206 78.7172L43.3772 78.5437C43.2558 78.5437 43.169 78.6955 43.2471 78.7953C43.1213 78.7953 43.0346 78.9905 42.9088 78.8907C42.7917 78.9081 42.8177 79.0252 42.7439 79.0859C42.5097 79.125 42.4403 79.1727 42.2581 79.2941L42.3102 79.2811C42.3145 79.2378 42.2842 79.1683 42.2321 79.1814C42.18 79.2594 41.9458 79.2638 42.1063 79.4199C41.9762 79.4156 41.8677 79.4937 41.755 79.5674C41.6986 79.6064 41.6422 79.6411 41.5815 79.6628C41.5511 79.6758 41.5207 79.6845 41.4904 79.6889C41.4513 79.6889 41.4123 79.6932 41.3689 79.6975C41.421 79.7366 41.3385 79.7886 41.3125 79.845C40.9742 80.0012 40.6489 80.0489 40.3843 80.2484C40.3409 80.2311 40.4797 80.1053 40.3626 80.14C40.2888 80.1877 40.3452 80.2311 40.2455 80.2918C39.9765 80.4089 39.7987 80.3785 39.6295 80.3222C39.4517 80.2614 39.2869 80.153 39.109 80.0532C38.7707 79.9057 38.5451 79.5284 38.5234 79.2074C38.5234 78.9471 38.5451 78.6001 38.801 78.2011L38.8444 78.2097C38.8271 78.0796 38.9702 77.9278 39.0873 77.7933C39.2044 77.6589 39.2999 77.5461 39.2565 77.3812C39.3346 77.3292 39.3606 77.2511 39.417 77.3075C39.391 77.134 39.7033 77.0429 39.6816 76.8C39.6686 76.813 39.6729 76.826 39.6772 76.8521C39.8594 76.7349 39.8421 76.5181 40.0199 76.3836C40.0243 76.4096 40.0199 76.4487 40.0503 76.479C40.1631 76.453 39.9982 76.2231 40.1934 76.2925C40.2151 76.2535 40.124 76.2101 40.1153 76.2405C40.419 75.8934 40.5621 75.412 40.766 74.9869C41.0479 74.7613 41.0696 75.1474 41.0783 74.8394C41.1217 74.8394 41.0176 74.7874 41.0566 74.8047C41.0609 74.6876 41.3342 74.7874 41.2822 74.6702C41.1607 74.6312 41.2475 74.5922 41.1824 74.5531C41.3602 74.4187 41.4774 74.4403 41.4817 74.2538L41.5337 74.2972C41.473 74.0369 41.6769 73.8981 41.5771 73.6509C42.0933 72.7313 42.5184 71.8031 43.0346 70.9095C43.2992 70.5105 43.5377 70.0984 43.7806 69.6907C43.9715 69.3784 44.1623 69.066 44.3532 68.7494C44.6004 68.3503 44.8564 67.9556 45.1036 67.5869C45.186 67.665 45.2728 67.7517 45.3595 67.8342C45.7152 68.3764 45.6979 68.3547 46.0839 68.6019C46.0622 68.6193 46.0362 68.6019 46.0535 68.654C46.1186 68.5238 46.3051 68.8578 46.4049 68.7624C46.5263 68.8709 46.6435 68.9793 46.7562 69.0834L46.9688 69.2612C47.1119 69.3783 47.2594 69.4955 47.4069 69.6213C47.3505 69.5909 47.2507 69.6603 47.3114 69.6993L47.4286 69.682L47.4112 69.721C47.4633 69.7384 47.55 69.721 47.5413 69.6516C48.3655 70.2112 48.9033 71.0657 49.6538 71.6773C49.7882 71.8725 50.0702 72.0503 50.274 72.1891C50.7035 72.8181 51.1025 73.3733 51.7575 73.7724C51.7575 73.7724 51.4409 73.9849 51.1502 73.8418V73.8765Z" fill="#1B1B1B"/>
<path d="M51.2618 74.5943C51.2097 74.5423 51.1143 74.5423 51.136 74.4295C51.1707 74.4859 51.2444 74.5336 51.2618 74.5943Z" fill="#1B1B1B"/>
<path d="M48.8725 74.9098C48.8725 74.9098 48.829 74.8967 48.8203 74.888C48.8421 74.8706 48.842 74.8054 48.8768 74.8315C48.8551 74.8489 48.8725 74.875 48.8768 74.9098H48.8725Z" fill="#1B1B1B"/>
<path d="M48.3068 75.1313C48.2895 75.0706 48.3806 74.9708 48.4413 74.9318L48.3068 75.1313Z" fill="#1B1B1B"/>
<path d="M47.7219 75.1241C47.6567 75.098 47.6567 75.0632 47.7132 75.0371C47.7306 75.0675 47.7219 75.0893 47.7219 75.1241Z" fill="#1B1B1B"/>
<path d="M47.7222 75.2648C47.6831 75.2865 47.6441 75.2648 47.6094 75.2388C47.6354 75.2865 47.6918 75.1607 47.7222 75.2648Z" fill="#1B1B1B"/>
<path d="M46.5972 75.6199C46.5755 75.6373 46.5408 75.711 46.4844 75.659C46.5321 75.6893 46.5755 75.5288 46.5972 75.6199Z" fill="#1B1B1B"/>
<path d="M46.1226 75.9474C46.1226 75.9474 46.0922 75.9474 46.0835 75.9691C46.04 75.9561 46.0531 75.8995 46.0748 75.8821L46.1226 75.9474Z" fill="#1B1B1B"/>
<path d="M40.5251 77.7051L40.5204 77.7802L40.4688 77.7379L40.5251 77.7051Z" fill="#1B1B1B"/>
<path d="M42.8047 73.9614C42.8047 73.8875 42.8786 73.9571 42.8916 73.9528C42.8699 74.0006 42.8351 73.8962 42.8047 73.9614Z" fill="#1B1B1B"/>
<path d="M43.769 71.7648L43.7604 71.7822L43.6562 71.7084L43.769 71.7648Z" fill="#1B1B1B"/>
<path d="M39.3125 79.6874C39.4473 79.67 39.2473 79.57 39.4038 79.6439C39.3821 79.6917 39.3516 79.7309 39.3125 79.6874Z" fill="#1B1B1B"/>
<path d="M16.024 71.1214C16.4361 70.7744 17.013 71.0737 17.4685 70.8525C17.5205 70.8351 17.4598 71.0346 17.5812 70.9869C18.0237 70.7137 18.7481 70.8481 19.2989 71.0433L19.2642 71.0954C19.3683 71.1301 19.4941 70.9609 19.6069 70.9826C19.6069 71.0173 19.5722 71.0303 19.5982 71.078C19.6243 70.9739 19.7978 71.0303 19.8455 70.9566C19.8889 70.9956 19.8845 71.078 19.9409 71.1214L20.006 71.0043C20.1838 70.7267 20.4354 71.026 20.6783 70.8828C20.6653 70.9089 20.6436 70.9305 20.6609 70.9566C21.0513 70.7961 21.5371 70.8351 21.9752 70.8004C21.9579 70.8394 21.9362 70.9132 21.9579 70.9609C21.9839 70.8395 22.1227 70.8178 22.2398 70.8004C22.2832 70.9305 22.448 70.6963 22.5782 70.7744L22.5652 70.8004C22.6779 70.6746 22.7083 70.8915 22.8037 70.7397L22.8601 70.8438C22.9208 70.6703 22.9989 70.9479 23.09 70.8655V70.8308C23.1724 70.7961 23.2071 70.8872 23.2809 70.8655V70.8872C23.463 70.8611 23.5498 70.9739 23.5628 70.8351C23.6062 70.9522 23.3893 70.8611 23.463 71.0346C24.0443 70.9652 24.6038 71.078 25.1807 71.2992C25.2154 71.3686 25.2458 71.399 25.2241 71.4511C25.2935 71.4511 25.428 71.5291 25.5321 71.5074C25.5147 71.4988 25.5061 71.5768 25.5191 71.5985C25.5494 71.694 25.7533 71.5812 25.7707 71.7113C25.7056 71.6896 25.6622 71.694 25.6145 71.733C25.7056 71.7417 25.7533 71.7807 25.8054 71.8241C25.8444 71.8761 25.8617 71.9369 25.9008 71.9889C25.8704 71.9759 25.8487 71.9499 25.8097 71.9629C25.9572 72.0713 25.7923 72.1928 25.827 72.2926C25.8054 72.2752 25.7837 72.2622 25.7533 72.2492C25.5885 72.3967 25.9181 72.3142 25.7793 72.453C25.7707 72.414 25.736 72.4183 25.7056 72.4053C25.7923 72.5702 25.5668 72.748 25.4974 72.8825C25.4974 72.8695 25.4757 72.8564 25.4757 72.8564C25.3629 72.9866 25.1981 73.0603 25.0983 73.2121C25.0246 73.2208 25.0029 73.043 24.8858 73.1601C24.9812 73.2902 24.6906 73.3683 24.8684 73.468C24.734 73.5244 24.5084 73.5852 24.452 73.6806C24.478 73.5938 24.2959 73.5418 24.3913 73.4724L24.2698 73.4333C24.2482 73.3683 24.3566 73.4073 24.2915 73.3509C24.2482 73.3856 24.131 73.5201 24.0703 73.5244C24.0226 73.6589 24.0183 73.8714 23.8708 73.9669C23.9185 73.8758 23.7493 73.8281 23.7884 73.7804L23.7016 74.1664C23.6496 74.1968 23.6366 74.058 23.5758 74.1317C23.5975 74.1707 23.5758 74.2098 23.5628 74.2488C23.5541 74.2401 23.4891 74.2879 23.411 74.3009C23.3546 74.3139 23.2895 74.3095 23.2505 74.2401C23.2071 74.1881 23.3286 74.1794 23.2505 74.1447C23.1507 74.1794 23.1638 74.2358 23.064 74.2705L23.0553 74.2532C22.9816 74.2532 22.8861 74.3876 22.9859 74.444C23.0336 74.431 22.9339 74.3616 23.0206 74.3789C23.0076 74.483 22.9035 74.5525 22.8081 74.5915C22.8298 74.5568 22.8081 74.5177 22.8081 74.47C22.7213 74.6349 22.5999 74.726 22.4827 74.8387C22.5088 74.9081 22.4827 74.6913 22.5174 74.7173C22.2876 74.6999 22.2182 75.0209 22.0056 74.9558C22.023 74.9342 22.0707 75.0426 22.0577 75.0253C21.9752 75.06 21.9275 74.9645 21.8928 75.0296C21.8538 74.9775 21.8408 75.086 21.7974 75.1294C21.8017 75.1814 21.7627 75.112 21.8104 75.0773C21.7497 75.1814 21.702 75.3245 21.5415 75.3766C21.5805 75.3939 21.6716 75.485 21.6629 75.498L21.5545 75.4633C21.4677 75.4677 21.5371 75.5414 21.433 75.5371C21.4981 75.5718 21.4764 75.5154 21.4634 75.459C21.4591 75.4026 21.4504 75.3419 21.4808 75.3939C21.3723 75.3939 21.6065 75.5328 21.4634 75.485C21.4461 75.5458 21.5805 75.5891 21.4764 75.6455C21.4938 75.6325 21.3029 75.6065 21.3203 75.6585C21.368 75.7453 21.3767 75.6802 21.4461 75.7366L21.5111 75.7626C21.6152 75.7323 21.5371 75.819 21.6369 75.7626C21.5588 75.806 21.7454 75.8104 21.5892 75.8884L21.4634 75.9492C21.5068 75.9752 21.6326 75.9188 21.6976 75.8971C21.689 75.9058 21.6759 75.9275 21.6586 75.9405C21.8148 75.8147 21.7106 76.0012 21.8451 75.9101C21.8581 75.9578 21.9015 75.9839 21.9362 76.0186C21.9839 76.0533 22.0316 76.0923 22.0273 76.1617C22.1314 76.153 22.2355 76.1227 22.3136 76.2007C22.2876 76.2094 22.2615 76.2007 22.2355 76.2354C22.2702 76.3135 22.3092 76.2745 22.3743 76.2701C22.3483 76.2918 22.4524 76.422 22.4958 76.5174C22.6042 76.5 22.6129 76.3916 22.6432 76.3352C22.6563 76.5434 22.9295 76.3092 22.9729 76.5087C22.9339 76.5217 22.8124 76.5478 22.8688 76.6215C22.8861 76.8297 23.0813 76.5434 23.1811 76.6779L23.1985 76.5174C23.2245 76.6302 23.4197 76.4914 23.3589 76.6432C23.4197 76.6041 23.5021 76.7429 23.5324 76.5911C23.7146 76.782 24.0877 76.6692 24.1527 76.9728C24.1918 76.9555 24.2655 77.0032 24.2698 76.9208C24.2395 76.8254 24.1788 76.9598 24.1744 76.8991C24.2048 76.8991 24.2221 76.8644 24.2308 76.8427C24.2915 76.8948 24.3436 76.9208 24.2438 77.0249C24.3739 77.1594 24.4694 76.8123 24.6516 76.9208C24.6255 76.9815 24.6385 77.0075 24.6949 77.0119L24.8294 76.9338C24.9508 76.9902 24.8684 77.09 24.8467 77.1984C24.9205 77.1984 25.0029 77.2201 25.055 77.1507L25.107 77.3025C25.068 77.1941 25.1764 77.2504 25.2154 77.2331L25.1764 77.2504C25.1764 77.2982 25.2675 77.2895 25.3109 77.2851C25.3152 77.2157 25.2415 77.1724 25.1981 77.1463C25.2415 77.1073 25.2979 77.129 25.3542 77.0856C25.3152 77.1854 25.4497 77.1854 25.5017 77.2071C25.5581 77.2418 25.5928 77.129 25.6102 77.1377C25.6015 77.1941 25.7099 77.168 25.6449 77.2331C25.6188 77.2461 25.6058 77.168 25.5625 77.2114C25.5972 77.2591 25.5711 77.3546 25.6709 77.3025C25.749 77.2635 25.6969 77.0943 25.8054 77.1854C25.7663 77.2027 25.7533 77.2461 25.7186 77.2765L25.8227 77.3545L25.8487 77.2591C25.8574 77.2851 25.8487 77.2938 25.8487 77.3068C25.9051 77.2157 26.0309 77.3112 26.083 77.2071C26.1437 77.2071 26.1914 77.2982 26.2478 77.3198H26.2348C26.2912 77.3936 26.3909 77.3762 26.4603 77.3198L26.4517 77.3415C26.4864 77.3545 26.5775 77.3589 26.6382 77.3112C26.7206 77.4023 26.6035 77.6755 26.7293 77.5758C26.8247 77.5888 26.9115 77.4283 26.8854 77.3632C27.0459 77.4587 27.2715 77.3415 27.4059 77.515C27.4363 77.4803 27.4276 77.4543 27.4797 77.4413C27.7269 77.5237 28.0349 77.4196 28.2084 77.6408C28.126 77.6669 28.1867 77.7363 28.1824 77.7883C28.2561 77.7146 28.2431 77.8881 28.2865 77.7449C28.2951 77.6582 28.3082 77.6148 28.2431 77.5714C28.4036 77.5497 28.6335 77.5888 28.7072 77.6799C28.6725 77.6322 28.7072 77.6105 28.7463 77.5931C28.7116 77.7276 28.8243 77.7666 28.9154 77.7319L28.9415 77.6495L28.9848 77.7449C29.0239 77.7232 29.0499 77.5758 29.1193 77.6669C29.1193 77.7016 29.1193 77.7319 29.1323 77.7579C29.2321 77.7016 29.3709 77.6061 29.4576 77.6885L29.5184 77.823C29.5617 77.8143 29.6398 77.7536 29.5747 77.7059C29.7266 77.8057 29.8307 77.8273 29.8654 77.9401C30.1864 77.7232 30.5941 77.771 30.9194 77.8317L30.9021 77.8924C30.9801 77.9618 30.9628 77.7883 31.0192 77.8404C30.9845 77.8968 31.0669 77.9792 30.9888 78.0442C31.1059 78.1266 31.1667 77.9575 31.2534 77.9401C31.2751 77.8577 31.1797 77.9835 31.21 77.8837C31.2274 77.8577 31.3749 77.9705 31.4096 77.849C31.4356 77.9011 31.3965 77.9922 31.3749 78.0399L31.4616 77.9878C31.5353 78.1483 31.2144 78.2221 31.2881 78.4129L31.3618 78.4043C31.4139 78.5431 31.1536 78.5257 31.3271 78.5951C31.4139 78.5431 31.505 78.3696 31.4399 78.3045C31.6047 78.2915 31.5527 78.0182 31.7262 78.0486C31.7652 78.1266 31.5874 78.0486 31.6047 78.157C31.6742 78.2698 31.7739 78.1223 31.8433 78.1657C31.7696 78.1093 31.852 77.9922 31.9084 77.9748C31.9908 78.0442 31.8346 78.0876 31.9604 78.1136C31.9908 78.0442 32.1123 78.0052 32.0168 77.9401C32.0819 77.784 32.1426 78.0009 32.225 77.8837C32.2511 78.0052 32.0645 78.1353 32.1947 78.2091C32.186 78.0963 32.3812 78.0789 32.3291 77.9054C32.3768 77.9445 32.3725 78.0312 32.3291 78.0963C32.3985 78.1744 32.5417 77.9184 32.5373 78.1397L32.5764 78.0312C32.5937 78.0703 32.6284 78.105 32.6588 78.17C32.7282 78.1787 32.8974 78.0442 32.867 78.2134C32.893 78.2004 33.0448 78.2264 32.9971 78.1006C32.9104 78.0182 32.8757 78.1744 32.841 78.0052C32.893 78.144 32.9798 78.0052 33.0405 77.9662V78.0356C33.0795 78.0139 33.1533 78.0356 33.1793 77.9662C33.1489 78.0009 33.1576 78.0486 33.1793 78.0659L33.227 77.9705C33.3658 77.9358 33.2357 78.1527 33.3702 78.1397L33.2617 78.2047C33.2834 78.1917 33.3181 78.2915 33.3832 78.2654C33.4179 78.1744 33.4786 78.0703 33.5046 78.0009C33.5827 77.9705 33.5263 78.1093 33.6087 78.0225L33.5003 78.1223C33.4829 78.1527 33.548 78.2828 33.6434 78.2915C33.7085 78.2654 33.8213 78.144 33.7302 78.0833C33.7779 78.0833 33.843 78.1527 33.7952 78.2134C33.9124 78.196 33.7952 78.1136 33.895 78.0659C33.9254 78.131 34.0425 78.2351 34.1032 78.3305L33.9861 78.4737L34.0512 78.4823C33.9514 78.5951 34.0859 78.5821 34.0208 78.7079C34.0642 78.7339 34.1249 78.6949 34.1726 78.6645C34.0598 78.439 34.3548 78.3956 34.3374 78.2004C34.5283 78.17 34.4025 78.6775 34.6237 78.3999C34.5977 78.3479 34.7018 78.2134 34.5804 78.2524C34.6931 78.2871 34.6801 78.0703 34.8059 78.1613C34.6975 78.2307 34.8927 78.3652 34.7365 78.465C34.7539 78.4043 34.6628 78.4086 34.6367 78.4259C34.6758 78.504 34.6064 78.6168 34.7235 78.6298C34.7972 78.6211 34.897 78.6298 34.8927 78.5257C34.9013 78.4173 34.7842 78.5257 34.8406 78.4216C34.9881 78.3999 34.9924 78.5691 35.0705 78.3826C34.9794 78.3869 34.9707 78.2741 34.9794 78.2004L35.0879 78.1657L35.0618 78.2351C35.2223 78.3045 35.1269 78.1093 35.2874 78.144L35.3481 78.2958C35.2961 78.4129 35.1182 78.2177 35.1269 78.4216C35.231 78.439 35.2787 78.3435 35.3698 78.4043C35.3438 78.4173 35.3134 78.4216 35.2917 78.4346C35.3308 78.4433 35.3394 78.7166 35.5043 78.5734C35.5867 78.5214 35.5303 78.504 35.5433 78.4303C35.7168 78.4259 35.7732 78.3522 35.8816 78.3522C35.8426 78.4953 36.0725 78.3869 35.938 78.5257C35.8903 78.4346 35.6474 78.4173 35.5693 78.5517C35.6127 78.7339 35.4392 78.5127 35.3828 78.6862C35.5173 78.7035 35.4956 78.8727 35.5043 78.9898C35.5433 79.0028 35.5823 78.9595 35.6084 78.9421C35.6344 78.838 35.5867 78.8337 35.5954 78.7252C35.7428 78.7686 35.8947 78.7252 35.9901 78.6298C36.0335 78.6862 36.0074 78.7903 35.9467 78.7946C36.1289 78.7816 36.3241 78.8163 36.4889 78.864C36.3935 78.6819 36.6841 78.8424 36.6234 78.6905C36.5366 78.6428 36.4672 78.5127 36.5279 78.439C36.5843 78.4563 36.5193 78.5127 36.541 78.5517C36.6234 78.465 36.6407 78.7122 36.7275 78.5734C36.5583 78.6125 36.6754 78.7816 36.632 78.9118C36.7578 78.8467 36.619 79.0072 36.7361 79.0202C36.8619 78.9551 37.0138 78.9118 37.1482 78.8944C37.3 79.0375 37.569 78.9378 37.7164 78.9421C37.7859 79.0159 37.7208 79.1677 37.8032 79.198C37.903 79.2024 37.7468 79.0245 37.8856 79.1113L37.8683 79.1416C37.916 79.1113 38.1285 79.2674 38.1892 79.0549L38.1285 79.2154C38.1545 79.2327 38.1849 79.198 38.2066 79.1807C38.2066 79.2327 38.2326 79.2848 38.1849 79.3195C38.2673 79.4409 38.3758 79.3195 38.4755 79.3195L38.4191 79.2154C38.5926 79.1547 38.6968 79.2588 38.8616 79.2371L38.8486 79.3325L38.9483 79.2848C38.918 79.3759 39.0004 79.4409 39.0568 79.3672L38.7878 79.5797C38.7228 79.519 38.8746 79.4713 38.8399 79.3715C38.8095 79.2848 38.6577 79.2978 38.623 79.3889C38.6794 79.4062 38.6837 79.3846 38.7315 79.3542C38.7401 79.4887 38.6534 79.4756 38.6013 79.5624C38.6317 79.5624 38.6707 79.6058 38.6837 79.5624C38.6187 79.6231 38.5579 79.6275 38.4582 79.6231C38.5276 79.5754 38.4278 79.5364 38.4582 79.5017C38.4408 79.6188 38.3411 79.6448 38.224 79.6014C38.1502 79.4583 37.9854 79.6665 37.8466 79.6188C37.916 79.506 37.9984 79.4149 38.0851 79.3759C38.0027 79.3065 37.9854 79.3715 37.903 79.3021C37.8509 79.3889 37.8075 79.519 37.6904 79.5624V79.4756C37.582 79.5103 37.5733 79.6405 37.4388 79.6058C37.2133 79.5407 36.9791 79.519 36.8056 79.493V79.4062C36.6928 79.5841 36.4759 79.4453 36.3371 79.5147C36.1245 79.4106 35.8469 79.5494 35.7472 79.3889C35.3481 79.4149 34.9968 79.4453 34.5934 79.3715L34.6758 79.2501C34.5934 79.3368 34.6367 79.172 34.563 79.1807C34.6324 79.2935 34.4502 79.3021 34.3895 79.3759C34.2203 79.2588 33.9731 79.3412 33.8039 79.4106V79.3238C33.6261 79.4713 33.4482 79.3021 33.2487 79.2544C33.2314 79.2154 33.201 79.1286 33.1403 79.133C33.0145 79.2631 32.9581 79.2458 32.7846 79.3152C32.6675 79.3021 32.4809 79.2414 32.3682 79.172C31.8997 79.3152 31.4659 79.133 30.9931 79.1894L30.9758 79.0809C30.4987 79.2414 29.9825 78.9638 29.5834 79.0202L29.6441 78.851C29.5314 78.7816 29.3665 78.8554 29.3796 78.9855C29.2668 78.9161 29.0672 79.0245 29.0152 78.8684C28.8981 78.8163 28.8547 78.9248 28.7463 78.9334C28.512 78.8293 28.4209 78.8293 28.1824 78.825L28.2388 78.8467C28.2691 78.812 28.2865 78.7382 28.2301 78.7166C28.1347 78.7513 27.9221 78.6168 27.9742 78.838C27.7486 78.6775 27.3843 78.838 27.1717 78.6341C27.1804 78.6949 27.1197 78.6949 27.0893 78.7296C26.8724 78.6949 26.6685 78.5344 26.4777 78.5994C26.4473 78.5647 26.5514 78.5127 26.4647 78.491C26.4083 78.504 26.4473 78.5647 26.3779 78.5864C26.0092 78.6255 25.6926 78.3392 25.3673 78.2958C24.7773 78.2828 24.2004 78.0876 23.6539 77.9575L23.6713 77.9184C23.4457 78.0225 23.2939 77.6408 23.077 77.8274C23.0466 77.7753 22.9165 77.7579 22.9729 77.6885C22.7907 77.7493 22.6042 77.4543 22.3439 77.515C22.3613 77.5281 22.3743 77.5237 22.4047 77.515C22.2268 77.3502 21.9926 77.3979 21.8017 77.2157C21.8321 77.2114 21.8798 77.2157 21.9015 77.181C21.8495 77.0683 21.6196 77.2504 21.6629 77.0422C21.6152 77.0206 21.5805 77.116 21.6152 77.1247C21.4114 76.9815 21.0643 76.808 20.7347 76.5261C20.4224 76.2571 20.1838 75.8667 20.2228 75.4417C20.3356 75.151 20.4571 75.1857 20.4961 75.1988C20.5482 75.2161 20.5438 75.2421 20.5699 75.0296C20.6262 75.0166 20.5091 74.9819 20.5525 74.9905C20.5742 74.9081 20.6653 74.8778 20.7434 74.8561C20.8258 74.8387 20.8995 74.8301 20.8952 74.7607C20.7564 74.7216 20.8952 74.6652 20.8345 74.6175C20.9906 74.5134 21.1207 74.5047 21.2075 74.4657C21.2509 74.4483 21.2942 74.4267 21.3289 74.4006C21.3593 74.3789 21.3897 74.3529 21.42 74.3052L21.4417 74.3703C21.5458 74.084 21.8278 74.0623 21.9102 73.7847C22.1921 73.6459 22.4654 73.5244 22.7343 73.4073L22.9382 73.3206C23.0033 73.2945 23.0943 73.2555 23.077 73.2555L23.4023 73.069C23.8404 72.8131 24.2872 72.5094 24.6082 72.2448L24.6472 72.2188C24.6472 72.2188 24.6559 72.2188 24.6559 72.2145C24.6602 72.2145 24.6646 72.2058 24.6646 72.2015C24.6646 72.1928 24.6602 72.1841 24.6516 72.1798L24.5735 72.1451C24.465 72.1147 24.3566 72.08 24.2438 72.041C24.1224 72.0106 24.0052 71.9759 23.8838 71.9369C23.6799 71.7243 23.6496 71.733 23.3763 71.7634C23.3893 71.7373 23.4067 71.733 23.3936 71.7026C23.3633 71.8414 23.2028 71.6896 23.1594 71.8241C22.769 71.759 22.4047 71.7634 21.9926 71.746C22.0577 71.733 22.0967 71.6202 22.0186 71.6246L21.9319 71.7113L21.9189 71.6723C21.8668 71.6896 21.8061 71.759 21.8581 71.8067C20.8258 71.8848 19.7978 71.5899 18.7611 71.6462C18.5138 71.5899 18.1668 71.6549 17.9022 71.6896C17.1084 71.5205 16.3841 71.4033 15.5859 71.5725C15.5859 71.5725 15.6727 71.1995 16.0023 71.0997L16.024 71.1214Z" fill="#1B1B1B"/>
<path d="M39.1658 79.6923C39.1441 79.6185 39.053 79.5752 39.1354 79.4841C39.1354 79.5535 39.1788 79.6315 39.1658 79.6923Z" fill="#1B1B1B"/>
<path d="M36.7735 78.744C36.7735 78.744 36.7431 78.7136 36.7344 78.7006C36.7648 78.7006 36.7996 78.6397 36.8213 78.6788C36.7909 78.6788 36.7909 78.7136 36.7735 78.744Z" fill="#1B1B1B"/>
<path d="M36.125 78.6335C36.1424 78.5727 36.2812 78.5337 36.3592 78.5337L36.125 78.6335Z" fill="#1B1B1B"/>
<path d="M35.5708 78.3229C35.5273 78.2664 35.5447 78.2359 35.6099 78.2446C35.6099 78.2794 35.5882 78.2925 35.5708 78.3229Z" fill="#1B1B1B"/>
<path d="M35.5132 78.4578C35.4654 78.4578 35.4436 78.4143 35.4219 78.3752C35.4219 78.4274 35.5393 78.3534 35.5132 78.4578Z" fill="#1B1B1B"/>
<path d="M34.2699 78.1462C34.2395 78.1462 34.1658 78.194 34.1484 78.1202C34.1745 78.1723 34.3046 78.0552 34.2699 78.1462Z" fill="#1B1B1B"/>
<path d="M33.6604 78.1885C33.6604 78.1885 33.6343 78.1712 33.6126 78.1885C33.5821 78.1538 33.6213 78.1146 33.6517 78.1103L33.6604 78.1929V78.1885Z" fill="#1B1B1B"/>
<path d="M23.0938 76.535L23.164 76.5256L23.1359 76.5865L23.0938 76.535Z" fill="#1B1B1B"/>
<path d="M22.8203 74.7239C22.8673 74.6582 22.886 74.7662 22.9001 74.7709C22.8485 74.799 22.8907 74.6864 22.8203 74.7239Z" fill="#1B1B1B"/>
<path d="M25.0321 73.2967L25.0147 73.3097L24.9453 73.197L25.0321 73.2967Z" fill="#1B1B1B"/>
</g>
<defs>
<clipPath id="clip0_5120_51161">
<rect width="77.7778" height="53.5001" fill="white" transform="translate(15.5547 27.2222)"/>
</clipPath>
</defs>
</svg>
