<svg width="101" height="38" viewBox="0 0 101 38" fill="none" xmlns="http://www.w3.org/2000/svg">
<g id="_&#235;&#160;&#136;&#236;&#157;&#180;&#236;&#150;&#180;_1" clip-path="url(#clip0_4987_13825)">
<path id="Vector" d="M7.78942 0.858969C7.7598 0.385055 8.17447 0 8.67801 0C9.15192 0 9.5666 0.385055 9.53698 0.858969C9.50736 1.2144 9.4185 1.42174 9.4185 1.77718V4.85762H15.5201C16.3791 4.85762 16.3791 5.92392 15.5201 5.92392H9.4185V7.25681C9.4185 12.7957 6.69349 16.6758 1.09538 20.3191C0.206795 20.8818 -0.415217 19.934 0.414132 19.4009C5.59757 15.9354 7.93752 12.2921 7.93752 7.25681V5.92392H1.68778C0.828807 5.92392 0.828807 4.85762 1.68778 4.85762H7.9079V1.77718C7.9079 1.42174 7.81904 1.2144 7.78942 0.858969ZM7.16741 24.8212H27.5753C29.1748 24.8212 29.8857 25.6802 29.8857 27.0427V35.3658C29.8857 35.7213 29.9745 35.9286 30.0041 36.284C30.0338 36.758 29.6191 37.143 29.1452 37.143C28.6416 37.143 28.227 36.758 28.2566 36.284C28.2862 35.9286 28.3751 35.7213 28.3751 35.3658V26.7465C28.3751 26.243 27.99 25.8579 27.4569 25.8579H7.16741C6.27882 25.8579 6.27882 24.7916 7.16741 24.7916V24.8212ZM11.018 13.7139C12.5878 15.2837 13.8318 16.4389 15.7867 17.9495C15.9052 18.068 16.1718 18.068 16.4087 18.2457C16.8234 18.5123 16.9419 18.8973 16.7938 19.312C16.5272 19.7859 15.9348 19.8451 15.5498 19.6082C15.3128 19.4601 15.1647 19.2231 15.0758 19.1343C12.884 17.2979 11.6103 16.0538 9.92203 14.2174C9.50736 13.7139 9.62583 13.3288 9.83317 13.1807C10.1294 13.003 10.4848 13.1807 10.9883 13.6843L11.018 13.7139ZM20.1704 19.8155V2.57691C20.1704 2.22147 20.0816 2.01413 20.0519 1.6587C20.0223 1.18479 20.437 0.79973 20.9405 0.79973C21.4144 0.79973 21.8291 1.18479 21.7995 1.6587C21.7699 2.01413 21.681 2.22147 21.681 2.57691V9.656H28.4047V2.36957C28.4047 2.01413 28.3158 1.8068 28.2862 1.45136C28.2566 0.977448 28.6713 0.592393 29.1748 0.592393C29.6487 0.592393 30.0634 0.977448 30.0338 1.45136C30.0041 1.8068 29.9153 2.01413 29.9153 2.36957V20.3487C29.9153 20.7041 30.0041 20.9115 30.0338 21.2669C30.0634 21.7408 29.6487 22.1259 29.1748 22.1259C28.6713 22.1259 28.2566 21.7408 28.2862 21.2669C28.3158 20.9115 28.4047 20.7041 28.4047 20.3487V10.6927H21.681V19.7859C21.681 20.1413 21.7699 20.3487 21.7995 20.7041C21.8291 21.178 21.4144 21.5631 20.9405 21.5631C20.437 21.5631 20.0223 21.178 20.0519 20.7041C20.0816 20.3487 20.1704 20.1413 20.1704 19.7859V19.8155Z" fill="white"/>
<path id="Vector_2" d="M36.9356 19.934C44.5775 9.56718 47.8949 5.15386 49.1389 3.46554C49.287 3.28782 49.3759 2.90277 49.6128 2.66581C49.909 2.36961 50.4718 2.28076 50.768 2.54733C51.1234 2.84353 51.1234 3.4063 50.7976 3.79136C50.6495 3.96907 50.3237 4.17641 50.146 4.41337C48.9908 5.80549 45.1106 11.1074 38.0908 20.6153C37.9723 20.7634 37.9723 20.9707 37.7353 21.2373C37.4688 21.5335 37.1133 21.7408 36.6987 21.5039C36.3136 21.3262 36.1951 20.8226 36.4025 20.4968C36.6098 20.2006 36.8171 20.1118 36.9356 19.9637V19.934ZM41.8229 25.2656C42.2968 25.2656 42.7114 25.6506 42.6818 26.1245C42.6522 26.48 42.5633 26.6873 42.5633 27.0428V28.9384C42.5633 31.8708 43.8666 33.4406 45.2587 34.3292C49.287 36.9061 57.9063 36.2545 63.2082 32.9963C64.008 32.4928 64.6003 33.2925 63.8302 33.796C58.3506 37.2023 49.7313 38.0316 44.8144 35.4843C42.6522 34.3588 41.0824 32.2854 41.0824 28.9977V27.0724C41.0824 26.7169 40.9935 26.5096 40.9639 26.1542C40.9343 25.6803 41.3489 25.2952 41.8525 25.2952L41.8229 25.2656ZM48.8427 11.3444C51.5085 14.6025 53.7299 17.0609 55.8033 19.2528C55.8922 19.3417 56.1588 19.4009 56.3661 19.6082C56.7215 19.9044 56.84 20.3487 56.5734 20.6745C56.2772 21.1485 55.7737 21.1485 55.4183 20.9115C55.1517 20.7338 55.0628 20.4968 55.0036 20.3783C52.6636 17.8903 50.5903 15.3726 47.7764 11.8479C47.421 11.374 47.421 10.9889 47.6283 10.8408C47.9837 10.5742 48.3984 10.7223 48.8723 11.3444H48.8427ZM61.1052 25.8876C61.1348 25.5322 61.2237 25.3248 61.2237 24.9694V2.36961C61.2237 2.01418 61.1348 1.80684 61.1052 1.45141C61.0756 0.977493 61.4903 0.592438 61.9938 0.592438C62.4677 0.592438 62.8824 0.977493 62.8528 1.45141C62.8232 1.80684 62.7343 2.01418 62.7343 2.36961V10.9001H68.0066C68.8656 10.9001 68.8656 11.9664 68.0066 11.9664H62.7343V24.9398C62.7343 25.2952 62.8232 25.5025 62.8528 25.858C62.8824 26.3319 62.4677 26.7169 61.9938 26.7169C61.4903 26.7169 61.0756 26.3319 61.1052 25.858V25.8876Z" fill="white"/>
<path id="Vector_3" d="M78.4325 0.858969C78.4029 0.385055 78.8175 0 79.3211 0C79.795 0 80.2097 0.385055 80.18 0.858969C80.1504 1.2144 80.0616 1.42174 80.0616 1.77718V4.85762H86.1632C87.0222 4.85762 87.0222 5.92392 86.1632 5.92392H80.0616V7.25681C80.0616 12.7957 77.3366 16.6758 71.7384 20.3191C70.8499 20.8818 70.2278 19.934 71.0572 19.4009C76.2406 15.9354 78.5806 12.2921 78.5806 7.25681V5.92392H72.3605C71.5015 5.92392 71.5015 4.85762 72.3605 4.85762H78.5806V1.77718C78.5806 1.42174 78.4917 1.2144 78.4621 0.858969H78.4325ZM77.8401 24.8212H98.248C99.8475 24.8212 100.558 25.6802 100.558 27.0427V35.3658C100.558 35.7213 100.647 35.9286 100.677 36.284C100.706 36.758 100.292 37.143 99.8179 37.143C99.3143 37.143 98.8996 36.758 98.9293 36.284C98.9589 35.9286 99.0477 35.7213 99.0477 35.3658V26.7465C99.0477 26.243 98.6627 25.8579 98.1295 25.8579H77.8401C76.9515 25.8579 76.9515 24.7916 77.8401 24.7916V24.8212ZM81.661 13.7139C83.2309 15.2837 84.4749 16.4389 86.4298 17.9495C86.5483 18.068 86.8148 18.068 87.0518 18.2457C87.4665 18.5123 87.5849 18.8973 87.4369 19.312C87.1703 19.7859 86.5779 19.8451 86.1928 19.6082C85.9559 19.4601 85.8078 19.2231 85.7189 19.1343C83.5271 17.2979 82.2534 16.0538 80.5651 14.2174C80.1504 13.7139 80.2689 13.3288 80.4762 13.1807C80.7724 13.003 81.1279 13.1807 81.6314 13.6843L81.661 13.7139ZM90.8135 19.8155V2.57691C90.8135 2.22147 90.7246 2.01413 90.695 1.6587C90.6654 1.18479 91.0801 0.79973 91.5836 0.79973C92.0575 0.79973 92.4722 1.18479 92.4426 1.6587C92.4129 2.01413 92.3241 2.22147 92.3241 2.57691V9.656H99.0477V2.36957C99.0477 2.01413 98.9589 1.8068 98.9293 1.45136C98.8996 0.977448 99.3143 0.592393 99.8179 0.592393C100.292 0.592393 100.706 0.977448 100.677 1.45136C100.647 1.8068 100.558 2.01413 100.558 2.36957V20.3487C100.558 20.7041 100.647 20.9115 100.677 21.2669C100.706 21.7408 100.292 22.1259 99.8179 22.1259C99.3143 22.1259 98.8996 21.7408 98.9293 21.2669C98.9589 20.9115 99.0477 20.7041 99.0477 20.3487V10.6927H92.3241V19.7859C92.3241 20.1413 92.4129 20.3487 92.4426 20.7041C92.4722 21.178 92.0575 21.5631 91.5836 21.5631C91.0801 21.5631 90.6654 21.178 90.695 20.7041C90.7246 20.3487 90.8135 20.1413 90.8135 19.7859V19.8155Z" fill="white"/>
</g>
<defs>
<clipPath id="clip0_4987_13825">
<rect width="100.647" height="37.143" fill="white"/>
</clipPath>
</defs>
</svg>
