<svg xmlns="http://www.w3.org/2000/svg" width="10" height="10" viewBox="0 0 10 10" fill="none">
  <path d="M4.87374 2.79082C5.3358 2.79082 5.71038 2.41625 5.71038 1.95419C5.71038 1.49213 5.3358 1.11755 4.87374 1.11755C4.41168 1.11755 4.03711 1.49213 4.03711 1.95419C4.03711 2.41625 4.41168 2.79082 4.87374 2.79082Z" fill="#6AA5F8"/>
  <path d="M4.87374 5.71081C5.3358 5.71081 5.71038 5.33623 5.71038 4.87417C5.71038 4.41211 5.3358 4.03754 4.87374 4.03754C4.41168 4.03754 4.03711 4.41211 4.03711 4.87417C4.03711 5.33623 4.41168 5.71081 4.87374 5.71081Z" fill="#6AA5F8"/>
  <path d="M4.87374 8.63085C5.3358 8.63085 5.71038 8.25628 5.71038 7.79421C5.71038 7.33215 5.3358 6.95758 4.87374 6.95758C4.41168 6.95758 4.03711 7.33215 4.03711 7.79421C4.03711 8.25628 4.41168 8.63085 4.87374 8.63085Z" fill="#6AA5F8"/>
</svg>