<svg width="17" height="17" viewBox="0 0 17 17" fill="none" xmlns="http://www.w3.org/2000/svg">
<path d="M11.2256 6.65253C10.9524 6.65253 10.7638 6.65253 10.7638 6.65253C11.141 5.49477 11.5573 3.62802 10.2629 2.88653C9.91171 2.6849 8.85801 2.36618 8.70841 2.96458C8.50028 3.78411 8.29865 4.60366 7.81083 5.32563C7.40756 5.91752 6.79616 6.57448 6.03516 6.65253C6.03516 6.68505 6.03516 6.72407 6.03516 6.72407V12.7405C6.03516 12.7405 6.03516 12.9031 6.03516 13.0657C6.11321 13.0918 6.19126 13.1178 6.19126 13.1178L7.55716 13.5666C8.00595 13.7162 8.47426 13.7942 8.94907 13.7942H12.2858C12.9492 13.7942 13.4891 13.2608 13.4891 12.6039C13.4891 12.4478 13.4565 12.3047 13.398 12.1681C13.9118 12.025 14.2826 11.5632 14.2826 11.0169C14.2826 10.7112 14.172 10.4315 13.9769 10.2169C14.1655 10.0087 14.2826 9.72902 14.2826 9.42983C14.2826 9.12413 14.172 8.84446 13.9769 8.62981C14.1655 8.42168 14.2826 8.14198 14.2826 7.84278C14.2826 7.18585 13.7427 6.65253 13.0858 6.65253C13.0858 6.65253 11.902 6.65253 11.2256 6.65253Z" fill="#6AA5F8" stroke="white" stroke-width="0.975641" stroke-linecap="round" stroke-linejoin="round"/>
<path d="M2.24609 5.625H4.51609C5.34863 5.625 6.02508 6.30145 6.02508 7.134V13.1439C6.02508 13.9765 5.34863 14.6529 4.51609 14.6529H2.24609V5.625Z" fill="#6AA5F8" stroke="white" stroke-width="0.975641" stroke-linecap="round" stroke-linejoin="round"/>
<path d="M4.32618 12.5054C4.32618 12.606 4.24465 12.6875 4.14406 12.6875C4.04345 12.6875 3.96193 12.606 3.96193 12.5054C3.96193 12.4048 4.04349 12.3233 4.14406 12.3233C4.24462 12.3233 4.32618 12.4048 4.32618 12.5054Z" fill="#6AA5F8" stroke="white" stroke-width="0.650428"/>
</svg>
