<svg width="14" height="14" viewBox="0 0 14 14" fill="none" xmlns="http://www.w3.org/2000/svg">
<path d="M9.97948 5.03339C9.7063 5.03339 9.51767 5.03339 9.51767 5.03339C9.89492 3.87563 10.3112 2.00887 9.01684 1.26739C8.66561 1.06575 7.61192 0.747042 7.46232 1.34544C7.25418 2.16497 7.05255 2.98452 6.56473 3.70649C6.16147 4.29838 5.55006 4.95534 4.78906 5.03339C4.78906 5.06591 4.78906 5.10493 4.78906 5.10493V11.1214C4.78906 11.1214 4.78906 11.284 4.78906 11.4466C4.86711 11.4726 4.94516 11.4986 4.94516 11.4986L6.31107 11.9474C6.75986 12.097 7.22817 12.1751 7.70298 12.1751H11.0397C11.7031 12.1751 12.243 11.6417 12.243 10.9848C12.243 10.8287 12.2104 10.6856 12.1519 10.549C12.6657 10.4059 13.0365 9.94409 13.0365 9.39773C13.0365 9.09203 12.9259 8.81236 12.7308 8.59772C12.9194 8.38958 13.0365 8.10988 13.0365 7.81069C13.0365 7.50499 12.9259 7.22532 12.7308 7.01067C12.9194 6.80254 13.0365 6.52284 13.0365 6.22364C13.0365 5.56671 12.4966 5.03339 11.8397 5.03339C11.8397 5.03339 10.6559 5.03339 9.97948 5.03339Z" fill="#6AA5F8" stroke="#2E85FF" stroke-width="0.975641" stroke-linecap="round" stroke-linejoin="round"/>
<path d="M1 4.00586H3.26999C4.10254 4.00586 4.77898 4.68231 4.77898 5.51486V11.5248C4.77898 12.3573 4.10254 13.0338 3.26999 13.0338H1V4.00586Z" fill="#6AA5F8" stroke="#2E85FF" stroke-width="0.975641" stroke-linecap="round" stroke-linejoin="round"/>
<path d="M3.08008 10.8863C3.08008 10.9868 2.99856 11.0684 2.89796 11.0684C2.79736 11.0684 2.71584 10.9868 2.71584 10.8863C2.71584 10.7857 2.79739 10.7041 2.89796 10.7041C2.99853 10.7041 3.08008 10.7857 3.08008 10.8863Z" fill="#6AA5F8" stroke="#2E85FF" stroke-width="0.650428"/>
</svg>
