<svg width="24" height="19" viewBox="0 0 24 19" fill="none" xmlns="http://www.w3.org/2000/svg">
<g clip-path="url(#clip0_454_5478)">
<path d="M11.22 2.41097C10.69 1.98097 8.69 0.460971 5.74 0.510971C2.94 0.550971 1.05 1.97097 0.5 2.41097V17.871C1.03 17.441 3.02 15.911 5.97 15.931C8.86 15.951 10.8 17.431 11.34 17.871H11.8C12.34 17.431 14.28 15.941 17.17 15.931C20.12 15.911 22.11 17.441 22.64 17.871V2.41097C22.09 1.96097 20.2 0.550971 17.4 0.510971C14.45 0.470971 12.45 1.98097 11.92 2.41097H11.23H11.22Z" stroke="#A3A3A3" stroke-width="1.2" stroke-miterlimit="10"/>
<path d="M2 4.06851C5.04144 2.61221 6.68416 2.67612 9.5 4.06851" stroke="#A3A3A3" stroke-width="1.2"/>
</g>
<defs>
<clipPath id="clip0_454_5478">
<rect width="23.14" height="18.92" fill="white"/>
</clipPath>
</defs>
</svg>
