<svg width="23" height="27" viewBox="0 0 23 27" fill="none" xmlns="http://www.w3.org/2000/svg">
<g clip-path="url(#clip0_4255_6641)">
<path d="M11.22 4.40999C10.69 3.97999 8.69 2.45999 5.74 2.50999C2.94 2.54999 1.05 3.96999 0.5 4.40999V19.87C1.03 19.44 3.02 17.91 5.97 17.93C8.86 17.95 10.8 19.43 11.34 19.87H11.8C12.34 19.43 14.28 17.94 17.17 17.93C20.12 17.91 22.11 19.44 22.64 19.87V4.40999C22.09 3.95999 20.2 2.54999 17.4 2.50999C14.45 2.46999 12.45 3.97999 11.92 4.40999H11.23H11.22Z" stroke="#6AA5F8" stroke-width="1.5" stroke-miterlimit="10"/>
<path d="M2 6.06851C5.04144 4.61221 6.68416 4.67612 9.5 6.06851" stroke="#6AA5F8" stroke-width="1.2"/>
</g>
<defs>
<clipPath id="clip0_4255_6641">
<rect width="23" height="27" fill="white"/>
</clipPath>
</defs>
</svg>
