<svg width="88" height="43" viewBox="0 0 88 43" fill="none" xmlns="http://www.w3.org/2000/svg">
<path d="M52.0166 19.7231C52.6585 19.7231 53.2673 19.8421 53.8428 20.0801C54.4183 20.3125 54.9274 20.6777 55.3701 21.1758C55.8184 21.6683 56.1698 22.3019 56.4243 23.0767C56.6789 23.8459 56.8062 24.7728 56.8062 25.8574V25.874C56.8062 27.2188 56.6125 28.3698 56.2251 29.3271C55.8377 30.2845 55.2816 31.0205 54.5566 31.5352C53.8372 32.0443 52.9767 32.2988 51.9751 32.2988C51.2391 32.2988 50.575 32.166 49.9829 31.9004C49.3963 31.6292 48.9093 31.2585 48.522 30.7881C48.1401 30.3122 47.8828 29.7699 47.75 29.1611L47.7334 29.0698H49.8335L49.8667 29.1528C49.9718 29.4295 50.1213 29.673 50.3149 29.8833C50.5142 30.0936 50.7521 30.2568 51.0288 30.373C51.311 30.4837 51.6265 30.5391 51.9751 30.5391C52.606 30.5391 53.1206 30.3537 53.519 29.9829C53.923 29.6066 54.2246 29.1058 54.4238 28.4805C54.6286 27.8496 54.7448 27.1523 54.7725 26.3887C54.778 26.3057 54.7808 26.2254 54.7808 26.1479C54.7808 26.0649 54.7808 25.9847 54.7808 25.9072L54.4072 23.9067C54.4072 23.453 54.3021 23.0407 54.0918 22.6699C53.8815 22.2992 53.5965 22.0059 53.2368 21.79C52.8826 21.5742 52.4814 21.4663 52.0332 21.4663C51.6016 21.4663 51.2059 21.5715 50.8462 21.7817C50.4865 21.992 50.1987 22.2798 49.9829 22.645C49.7671 23.0047 49.6592 23.4087 49.6592 23.8569V23.8735C49.6592 24.3384 49.7616 24.7507 49.9663 25.1104C50.1711 25.4645 50.4505 25.744 50.8047 25.9487C51.1589 26.1535 51.5628 26.2559 52.0166 26.2559C52.4704 26.2559 52.8771 26.1562 53.2368 25.957C53.5965 25.7578 53.8815 25.4811 54.0918 25.127C54.3021 24.7728 54.4072 24.3716 54.4072 23.9233V23.9067H54.9053V26.1147H54.6147C54.4709 26.4302 54.2578 26.7235 53.9756 26.9946C53.6934 27.2658 53.3447 27.4844 52.9297 27.6504C52.5202 27.8164 52.0387 27.8994 51.4854 27.8994C50.7217 27.8994 50.0465 27.7279 49.46 27.3848C48.8734 27.0417 48.4113 26.5713 48.0737 25.9736C47.7417 25.376 47.5757 24.7008 47.5757 23.9482V23.9316C47.5757 23.1182 47.7638 22.396 48.1401 21.7651C48.522 21.1287 49.0477 20.6307 49.7173 20.271C50.3924 19.9058 51.1589 19.7231 52.0166 19.7231ZM60.0747 30.3896C59.6984 30.3896 59.383 30.2651 59.1284 30.0161C58.8794 29.7616 58.7549 29.4517 58.7549 29.0864C58.7549 28.7157 58.8794 28.4058 59.1284 28.1567C59.383 27.9022 59.6984 27.7749 60.0747 27.7749C60.4565 27.7749 60.772 27.9022 61.021 28.1567C61.27 28.4058 61.3945 28.7157 61.3945 29.0864C61.3945 29.4517 61.27 29.7616 61.021 30.0161C60.772 30.2651 60.4565 30.3896 60.0747 30.3896ZM60.0747 24.2305C59.6984 24.2305 59.383 24.106 59.1284 23.8569C58.8794 23.6024 58.7549 23.2925 58.7549 22.9272C58.7549 22.5565 58.8794 22.2466 59.1284 21.9976C59.383 21.743 59.6984 21.6157 60.0747 21.6157C60.4565 21.6157 60.772 21.743 61.021 21.9976C61.27 22.2466 61.3945 22.5565 61.3945 22.9272C61.3945 23.2925 61.27 23.6024 61.021 23.8569C60.772 24.106 60.4565 24.2305 60.0747 24.2305ZM69.1538 32V29.7007H63.2935V27.9492C63.6089 27.4124 63.9243 26.8729 64.2397 26.3306C64.5607 25.7882 64.8844 25.2487 65.2109 24.7119C65.543 24.1696 65.8722 23.6356 66.1987 23.1099C66.5308 22.5786 66.86 22.0557 67.1865 21.541C67.5186 21.0208 67.8506 20.5145 68.1826 20.022H71.1958V27.9326H72.8145V29.7007H71.1958V32H69.1538ZM65.2856 27.9824H69.187V21.7319H69.0625C68.819 22.1082 68.5672 22.4956 68.3071 22.894C68.0526 23.2925 67.7952 23.6992 67.5352 24.1143C67.2751 24.5293 67.0177 24.9471 66.7632 25.3677C66.5086 25.7827 66.2568 26.2005 66.0078 26.6211C65.7588 27.0361 65.5181 27.4484 65.2856 27.8579V27.9824ZM77.27 32V22.1304H77.1206L74.1406 24.2305V22.2217L77.27 20.022H79.4033V32H77.27Z" fill="black"/>
</svg>
