<svg width="80" height="74" viewBox="0 0 80 74" fill="none" xmlns="http://www.w3.org/2000/svg">
<g clip-path="url(#clip0_4167_11199)">
<path d="M15.3743 58.6113C11.1539 63.7364 6.9469 68.8749 2.72656 74H41.3353V57.9422C41.0557 56.7646 40.5631 55.8948 40.004 55.2659C36.3827 51.1845 26.5175 52.7234 15.3743 58.6113Z" fill="black"/>
<path d="M15.374 58.6112C12.272 62.6257 9.1567 66.6401 6.05469 70.6546C10.1419 68.6072 13.7898 67.0951 16.7853 65.9711C20.2201 64.6864 22.0041 64.0307 24.6135 63.5758C27.9152 62.987 32.0424 62.3179 36.3293 64.2984C38.3529 65.2217 39.7908 66.4528 40.6561 67.3092V57.2731C40.1369 56.4835 39.2848 55.4398 37.9934 54.5967C34.0261 52.0141 29.0469 53.3924 24.6801 54.5967C22.3236 55.2524 19.0219 56.4166 15.3607 58.6112H15.374Z" fill="#FEFFFA"/>
<path d="M3.72425 72.5549L15.0273 58.0225C18.0361 56.216 21.218 54.8511 24.5064 53.9411C29.0196 52.6966 34.1453 51.2782 38.3656 54.0214C39.4706 54.744 40.4292 55.7075 41.2147 56.8851L41.3212 57.059V68.8883L40.1896 67.7777C38.9514 66.5599 37.5535 65.5831 36.0491 64.9006C31.8554 62.9737 27.7282 63.6963 24.7194 64.2315C22.1899 64.6731 20.5257 65.2753 17.011 66.6001C13.4164 67.9516 9.82177 69.5173 6.33367 71.2569L3.71094 72.5682L3.72425 72.5549ZM15.8128 59.1198L8.31736 68.808C11.0333 67.5368 13.7892 66.3726 16.5583 65.3422C20.0597 64.0308 21.8571 63.3885 24.5064 62.9201C27.6883 62.3581 32.0551 61.5954 36.6216 63.6963C37.8198 64.2449 38.9514 64.9541 40.0032 65.8239V57.4872C39.3375 56.5371 38.552 55.761 37.6467 55.1588C33.9323 52.7368 29.1262 54.0616 24.8792 55.2391C21.7505 56.1089 18.7018 57.4069 15.8261 59.1198H15.8128Z" fill="black"/>
<path d="M65.9689 58.6113C70.1892 63.7364 74.3962 68.8749 78.6166 74H40.0078V57.9422C40.2874 56.7646 40.78 55.8948 41.3391 55.2659C44.9604 51.1845 54.8256 52.7234 65.9689 58.6113Z" fill="black"/>
<path d="M65.9696 58.6112C69.0716 62.6257 72.1869 66.6401 75.2889 70.6546C71.2017 68.6072 67.5539 67.0951 64.5584 65.9711C61.1235 64.6864 59.3395 64.0307 56.7301 63.5758C53.4284 62.987 49.3012 62.3179 45.0143 64.2984C42.9907 65.2217 41.5529 66.4528 40.6875 67.3092V57.2731C41.2067 56.4835 42.0588 55.4398 43.3502 54.5967C47.3176 52.0141 52.2968 53.3924 56.6635 54.5967C59.02 55.2524 62.3217 56.4166 65.9829 58.6112H65.9696Z" fill="#FEFFFA"/>
<path d="M77.6048 72.5549L74.9953 71.2435C71.5205 69.5039 67.9259 67.9382 64.318 66.5867C60.8033 65.2753 59.1391 64.6731 56.6096 64.2181C53.6008 63.6829 49.4736 62.9603 45.2799 64.8872C43.7755 65.5831 42.3776 66.5465 41.1394 67.7643L40.0078 68.8749V57.0456L40.1143 56.8717C40.8998 55.6941 41.8584 54.7306 42.9634 54.008C47.1837 51.2514 52.296 52.6699 56.8093 53.9277C60.0977 54.8377 63.2929 56.216 66.2884 58.0091L66.4748 58.1697L77.5914 72.5281L77.6048 72.5549ZM51.2975 62.3046C53.3611 62.3046 55.2383 62.6391 56.8359 62.9201C59.4719 63.3885 61.2826 64.0308 64.784 65.3422C67.5532 66.3726 70.309 67.5368 73.025 68.808L65.5295 59.1198C62.6538 57.4069 59.6184 56.1089 56.4764 55.2391C52.2295 54.0615 47.41 52.7368 43.7089 55.1588C42.8036 55.7476 42.0181 56.5237 41.3525 57.4872V65.8239C42.4042 64.9675 43.5359 64.2449 44.7341 63.6963C47.024 62.6391 49.2606 62.318 51.3109 62.318L51.2975 62.3046Z" fill="black"/>
<path d="M35.5675 23.3381L37.3249 28.4365L42.6902 28.5436C43.6088 28.5569 43.9949 29.7345 43.2626 30.2965L38.989 33.5617L40.5467 38.7269C40.813 39.6101 39.8145 40.3461 39.0556 39.8108L34.6489 36.7331L30.2422 39.8108C29.4833 40.3461 28.4848 39.6101 28.7511 38.7269L30.3087 33.5617L26.0351 30.2965C25.3029 29.7345 25.6757 28.5569 26.6076 28.5436L31.9729 28.4365L33.7303 23.3381C34.0365 22.4683 35.2613 22.4683 35.5675 23.3381Z" fill="#EAF3FF"/>
<path d="M39.6172 40.6539C39.2977 40.6539 38.9649 40.5602 38.6853 40.3595L34.6647 37.5494L30.644 40.3595C30.0582 40.7609 29.3127 40.7609 28.7402 40.3461C28.1677 39.9313 27.9281 39.2221 28.1411 38.5396L29.5657 33.8159L25.6515 30.8318C25.0924 30.4036 24.866 29.681 25.079 29.0119C25.2921 28.3295 25.8912 27.8879 26.6101 27.8745L31.5094 27.7674L33.1203 23.1107C33.3466 22.4416 33.9591 22 34.6647 22C35.3703 22 35.9827 22.4282 36.209 23.1107L37.8199 27.7674L42.7193 27.8745C43.4249 27.8879 44.024 28.3295 44.2503 29.0119C44.4633 29.681 44.2503 30.4036 43.6778 30.8318L39.7637 33.8159L41.1882 38.5396C41.3879 39.2221 41.1616 39.9313 40.5891 40.3461C40.2962 40.5602 39.9634 40.6673 39.6306 40.6673L39.6172 40.6539ZM34.6514 35.9168L39.4442 39.2622C39.6039 39.3693 39.7371 39.3024 39.8036 39.2622C39.8702 39.2087 39.9767 39.1016 39.9234 38.9277L38.2326 33.3208L42.879 29.7747C43.0255 29.6542 43.0121 29.5071 42.9855 29.4268C42.9589 29.3465 42.8923 29.2127 42.7059 29.2127L36.8747 29.0922L34.9576 23.5523C34.891 23.3649 34.7445 23.3382 34.6647 23.3382C34.5848 23.3382 34.4383 23.3649 34.3718 23.5523L32.4547 29.0922L26.6234 29.2127C26.437 29.2127 26.3571 29.3465 26.3438 29.4268C26.3172 29.5071 26.3039 29.6542 26.4503 29.7613L31.0967 33.3074L29.4059 38.9143C29.3526 39.1016 29.4591 39.2087 29.5257 39.2488C29.5923 39.3023 29.7254 39.3559 29.8852 39.2488L34.6647 35.9034L34.6514 35.9168Z" fill="black"/>
<path d="M50.0799 11.5583L52.2889 13.7786L55.1258 12.4698C55.6141 12.2438 56.1101 12.7658 55.8698 13.2488L54.4514 16.0456L56.5674 18.3517C56.9317 18.749 56.5907 19.3878 56.0636 19.3021L52.9788 18.8113L51.4518 21.5536C51.1883 22.021 50.483 21.8964 50.3977 21.3666L49.9094 18.266L46.8478 17.6505C46.3207 17.5414 46.22 16.8325 46.7005 16.5832L49.4831 15.1575L49.1188 12.0413C49.0568 11.5037 49.7001 11.1921 50.0799 11.5738V11.5583Z" fill="#6AA5F8"/>
<path d="M50.9616 22.2305C50.9073 22.2305 50.8453 22.2305 50.791 22.2149C50.388 22.1448 50.078 21.8331 50.016 21.4202L49.5664 18.5845L46.7683 18.0235C46.3653 17.9456 46.0708 17.6262 46.0087 17.2133C45.9545 16.8004 46.156 16.4187 46.5203 16.2239L49.0626 14.9229L48.7293 12.0715C48.6828 11.6586 48.8921 11.2769 49.2641 11.0977C49.6362 10.9185 50.0625 10.9886 50.357 11.2847L52.38 13.3102L54.9765 12.1105C55.3486 11.9391 55.7749 12.017 56.0617 12.3208C56.3484 12.6169 56.4105 13.0531 56.2244 13.4193L54.93 15.9746L56.8678 18.0859C57.1468 18.3897 57.201 18.826 57.0073 19.1921C56.8135 19.5583 56.426 19.7531 56.0152 19.6829L53.1938 19.2389L51.7987 21.7397C51.6281 22.0513 51.3104 22.2305 50.9693 22.2305H50.9616ZM49.6827 11.7833C49.6827 11.7833 49.6207 11.7911 49.5974 11.8066C49.5509 11.83 49.4811 11.8768 49.4966 11.9936L49.8919 15.3825L46.8691 16.9329C46.7683 16.9874 46.7683 17.0731 46.7761 17.1198C46.7761 17.1666 46.8071 17.2523 46.9156 17.2756L50.2407 17.9456L50.7755 21.319C50.791 21.428 50.8763 21.4592 50.9228 21.467C50.9693 21.467 51.0546 21.467 51.1088 21.3813L52.7675 18.4053L56.1237 18.935C56.2322 18.9584 56.2864 18.8883 56.3097 18.8416C56.3329 18.8026 56.3562 18.7169 56.2864 18.6312L53.9844 16.1226L55.5268 13.0843C55.5734 12.983 55.5268 12.9129 55.4958 12.874C55.4648 12.8428 55.3951 12.7883 55.2943 12.835L52.2095 14.2607L49.8067 11.8456C49.7679 11.8066 49.7214 11.7911 49.6827 11.7911V11.7833Z" fill="black"/>
<path d="M22.0345 11.7759H20.7031V16.1516H22.0345V11.7759Z" fill="black"/>
<path d="M27.3457 17.1284H22.9922V18.4666H27.3457V17.1284Z" fill="black"/>
<path d="M22.0345 19.4436H20.7031V23.8194H22.0345V19.4436Z" fill="black"/>
<path d="M19.7285 17.1284H15.375V18.4666H19.7285V17.1284Z" fill="black"/>
<path d="M54.5891 39H53.2578V42.5996H54.5891V39Z" fill="black"/>
<path d="M58.8547 43.282H55.2734V44.6201H58.8547V43.282Z" fill="black"/>
<path d="M54.5891 45.3027H53.2578V48.9024H54.5891V45.3027Z" fill="black"/>
<path d="M52.5813 43.282H49V44.6201H52.5813V43.282Z" fill="black"/>
<path d="M1.24055 11.5676L0.0078125 12.073L13.5487 45.4405L14.7814 44.9351L1.24055 11.5676Z" fill="black"/>
<path d="M78.7599 11.5636L65.2422 44.9407L66.4753 45.4452L79.993 12.0682L78.7599 11.5636Z" fill="black"/>
</g>
<defs>
<clipPath id="clip0_4167_11199">
<rect width="80" height="74" fill="white"/>
</clipPath>
</defs>
</svg>
