<svg width="20" height="20" viewBox="0 0 20 20" fill="none" xmlns="http://www.w3.org/2000/svg">
<path d="M12.1009 15.5248C11.4259 15.6998 10.7259 15.7831 10.0009 15.7831C7.27594 15.7831 4.83427 14.5081 3.1676 12.4914C2.00094 11.0831 2.00094 8.90812 3.1676 7.50812C3.30094 7.34145 3.45094 7.18311 3.60094 7.02478" stroke="black" stroke-width="1.25" stroke-linecap="round" stroke-linejoin="round"/>
<path d="M16.834 12.4919C16.1673 13.2919 15.3756 13.9753 14.5006 14.5086L5.49231 5.49192C6.81731 4.67525 8.35064 4.21692 10.0006 4.21692C12.7256 4.21692 15.1673 5.49192 16.834 7.50859C18.0006 8.90859 18.0006 11.0919 16.834 12.4919Z" stroke="black" stroke-width="1.25" stroke-linecap="round" stroke-linejoin="round"/>
<path d="M12.5675 9.99971C12.5675 10.708 12.2759 11.3497 11.8175 11.8164L8.1842 8.18305C8.64254 7.71638 9.29254 7.43304 10.0009 7.43304C11.4259 7.43304 12.5675 8.57471 12.5675 9.99971Z" stroke="black" stroke-width="1.25" stroke-linecap="round" stroke-linejoin="round"/>
<path d="M2.2926 2.29138L5.4926 5.49138L8.18427 8.18305L11.8176 11.8164L14.5093 14.5081L17.7093 17.708" stroke="black" stroke-width="1.25" stroke-linecap="round" stroke-linejoin="round"/>
</svg>
