<svg width="17" height="17" viewBox="0 0 17 17" fill="none" xmlns="http://www.w3.org/2000/svg">
<path d="M11.2295 6.28925C10.9563 6.28925 10.7677 6.28925 10.7677 6.28925C11.1449 5.13149 11.5612 3.26473 10.2668 2.52325C9.91561 2.32161 8.86192 2.0029 8.71232 2.60129C8.50418 3.42083 8.30255 4.24038 7.81473 4.96235C7.41147 5.55424 6.80006 6.2112 6.03906 6.28925C6.03906 6.32177 6.03906 6.36079 6.03906 6.36079V12.3772C6.03906 12.3772 6.03906 12.5398 6.03906 12.7025C6.11711 12.7285 6.19516 12.7545 6.19516 12.7545L7.56107 13.2033C8.00986 13.3529 8.47817 13.4309 8.95298 13.4309H12.2897C12.9531 13.4309 13.493 12.8976 13.493 12.2406C13.493 12.0845 13.4604 11.9415 13.4019 11.8049C13.9157 11.6618 14.2865 11.2 14.2865 10.6536C14.2865 10.3479 14.1759 10.0682 13.9808 9.85358C14.1694 9.64544 14.2865 9.36574 14.2865 9.06655C14.2865 8.76085 14.1759 8.48117 13.9808 8.26653C14.1694 8.0584 14.2865 7.7787 14.2865 7.4795C14.2865 6.82257 13.7466 6.28925 13.0897 6.28925C13.0897 6.28925 11.9059 6.28925 11.2295 6.28925Z" fill="white" stroke="black" stroke-width="0.975641" stroke-linecap="round" stroke-linejoin="round"/>
<path d="M2.25 5.26172H4.51999C5.35254 5.26172 6.02898 5.93817 6.02898 6.77072V12.7807C6.02898 13.6132 5.35254 14.2897 4.51999 14.2897H2.25V5.26172Z" fill="white" stroke="black" stroke-width="0.975641" stroke-linecap="round" stroke-linejoin="round"/>
<path d="M4.33008 12.1421C4.33008 12.2427 4.24856 12.3242 4.14796 12.3242C4.04736 12.3242 3.96584 12.2427 3.96584 12.1421C3.96584 12.0415 4.04739 11.96 4.14796 11.96C4.24853 11.96 4.33008 12.0415 4.33008 12.1421Z" fill="white" stroke="black" stroke-width="0.650428"/>
</svg>
