<svg width="13" height="11" viewBox="0 0 13 11" fill="none" xmlns="http://www.w3.org/2000/svg">
<path d="M4.72153 4.69111C5.7408 4.69111 6.56709 3.86483 6.56709 2.84555C6.56709 1.82628 5.7408 1 4.72153 1C3.70225 1 2.87598 1.82628 2.87598 2.84555C2.87598 3.86483 3.70225 4.69111 4.72153 4.69111Z" stroke="#6AA5F8" stroke-linecap="round" stroke-linejoin="round"/>
<path d="M1 9.80044V8.74933C1 7.52711 1.99 6.53711 3.21222 6.53711H6.52444C7.74667 6.53711 8.73667 7.52711 8.73667 8.74933V9.80044" stroke="#6AA5F8" stroke-linecap="round" stroke-linejoin="round"/>
<path d="M9.32934 5.21629C10.0854 5.21629 10.6982 4.60342 10.6982 3.8474C10.6982 3.09139 10.0854 2.47852 9.32934 2.47852C8.57333 2.47852 7.96045 3.09139 7.96045 3.8474C7.96045 4.60342 8.57333 5.21629 9.32934 5.21629Z" stroke="#6AA5F8" stroke-linecap="round" stroke-linejoin="round"/>
<path d="M9.7207 6.58594H10.6618C11.5663 6.58594 12.2996 7.31927 12.2996 8.22372V9.00594" stroke="#6AA5F8" stroke-linecap="round" stroke-linejoin="round"/>
</svg>
