<svg width="23" height="22" viewBox="0 0 23 22" fill="none" xmlns="http://www.w3.org/2000/svg">
<path d="M11.4721 18.1699C10.9781 18.1699 10.5552 17.994 10.2034 17.6422C9.85167 17.2905 9.67578 16.8676 9.67578 16.3736C9.67578 15.8796 9.85167 15.4567 10.2034 15.105C10.5552 14.7532 10.9781 14.5773 11.4721 14.5773C11.9661 14.5773 12.3889 14.7532 12.7407 15.105C13.0925 15.4567 13.2684 15.8796 13.2684 16.3736C13.2684 16.8676 13.0925 17.2905 12.7407 17.6422C12.3889 17.994 11.9661 18.1699 11.4721 18.1699ZM11.4721 12.781C10.9781 12.781 10.5552 12.6051 10.2034 12.2534C9.85167 11.9016 9.67578 11.4787 9.67578 10.9847C9.67578 10.4907 9.85167 10.0679 10.2034 9.71609C10.5552 9.36432 10.9781 9.18843 11.4721 9.18843C11.9661 9.18843 12.3889 9.36432 12.7407 9.71609C13.0925 10.0679 13.2684 10.4907 13.2684 10.9847C13.2684 11.4787 13.0925 11.9016 12.7407 12.2534C12.3889 12.6051 11.9661 12.781 11.4721 12.781ZM11.4721 7.39214C10.9781 7.39214 10.5552 7.21626 10.2034 6.86448C9.85167 6.51271 9.67578 6.08983 9.67578 5.59585C9.67578 5.10187 9.85167 4.67899 10.2034 4.32722C10.5552 3.97545 10.9781 3.79956 11.4721 3.79956C11.9661 3.79956 12.3889 3.97545 12.7407 4.32722C13.0925 4.67899 13.2684 5.10187 13.2684 5.59585C13.2684 6.08983 13.0925 6.51271 12.7407 6.86448C12.3889 7.21626 11.9661 7.39214 11.4721 7.39214Z" fill="#8F8F8F"/>
</svg>
