<svg width="79" height="13" viewBox="0 0 79 13" fill="none" xmlns="http://www.w3.org/2000/svg">
<path fill-rule="evenodd" clip-rule="evenodd" d="M18.8039 0.5H17.6373C16.9929 0.5 16.4706 1.00368 16.4706 1.625V11.375C16.4706 11.9963 16.9929 12.5 17.6373 12.5H18.8039C19.4482 12.5 19.9706 11.9963 19.9706 11.375V1.625C19.9706 1.00368 19.4482 0.5 18.8039 0.5ZM12.1471 3.12513H13.3137C13.9581 3.12513 14.4804 3.62881 14.4804 4.25013V11.3751C14.4804 11.9965 13.9581 12.5001 13.3137 12.5001H12.1471C11.5027 12.5001 10.9804 11.9965 10.9804 11.3751V4.25013C10.9804 3.62881 11.5027 3.12513 12.1471 3.12513ZM7.82353 5.74992H6.65686C6.01253 5.74992 5.4902 6.2536 5.4902 6.87492V11.3749C5.4902 11.9962 6.01253 12.4999 6.65686 12.4999H7.82353C8.46786 12.4999 8.9902 11.9962 8.9902 11.3749V6.87492C8.9902 6.2536 8.46786 5.74992 7.82353 5.74992ZM2.33333 7.99989H1.16667C0.522334 7.99989 0 8.50356 0 9.12489V11.3749C0 11.9962 0.522334 12.4999 1.16667 12.4999H2.33333C2.97767 12.4999 3.5 11.9962 3.5 11.3749V9.12489C3.5 8.50356 2.97767 7.99989 2.33333 7.99989Z" fill="black"/>
<path fill-rule="evenodd" clip-rule="evenodd" d="M35.4712 2.84599C37.9377 2.8461 40.31 3.81668 42.0976 5.55712C42.2322 5.69149 42.4474 5.68979 42.5799 5.55332L43.8667 4.2234C43.9338 4.15418 43.9713 4.06042 43.9707 3.96287C43.9701 3.86531 43.9316 3.77201 43.8637 3.7036C39.1718 -0.901199 31.7698 -0.901199 27.0779 3.7036C27.0099 3.77196 26.9713 3.86523 26.9707 3.96279C26.9701 4.06034 27.0074 4.15413 27.0745 4.2234L28.3617 5.55332C28.4942 5.69 28.7095 5.6917 28.844 5.55712C30.6319 3.81656 33.0044 2.84598 35.4712 2.84599ZM35.4712 7.17266C36.8264 7.17257 38.1332 7.68843 39.1378 8.61999C39.2736 8.7522 39.4877 8.74933 39.6201 8.61353L40.9054 7.28361C40.9731 7.21386 41.0107 7.11922 41.0097 7.02089C41.0087 6.92255 40.9693 6.82872 40.9002 6.76039C37.8411 3.84629 33.1038 3.84629 30.0447 6.76039C29.9756 6.82872 29.9362 6.9226 29.9353 7.02096C29.9344 7.11933 29.972 7.21396 30.0399 7.28361L31.3248 8.61353C31.4572 8.74933 31.6713 8.7522 31.8071 8.61999C32.811 7.68905 34.1168 7.17323 35.4712 7.17266ZM38.0458 10.084C38.0478 10.1826 38.0099 10.2777 37.9412 10.3468L35.7179 12.6445C35.6527 12.712 35.5639 12.75 35.4711 12.75C35.3784 12.75 35.2896 12.712 35.2244 12.6445L33.0008 10.3468C32.9321 10.2776 32.8943 10.1825 32.8963 10.0839C32.8984 9.98529 32.94 9.89191 33.0115 9.82581C34.4314 8.59595 36.5109 8.59595 37.9308 9.82581C38.0022 9.89196 38.0438 9.98537 38.0458 10.084Z" fill="black"/>
<rect opacity="0.4" x="51.4707" y="0.5" width="24" height="12" rx="3.5" stroke="black"/>
<path opacity="0.5" d="M76.9707 4.5V8.5C77.7766 8.16122 78.3007 7.37313 78.3007 6.5C78.3007 5.62687 77.7766 4.83878 76.9707 4.5" fill="black"/>
<rect x="52.9707" y="2" width="17" height="9" rx="2" fill="black"/>
</svg>
