<svg width="59" height="36" viewBox="0 0 59 36" fill="none" xmlns="http://www.w3.org/2000/svg">
<g clip-path="url(#clip0_5217_69385)">
<path d="M1.1236 29.8044C4.4732 27.8869 7.24625 26.1566 9.33425 24.8064C15.1928 21.0191 17.5604 18.9962 18.3217 18.3347C20.1363 16.7569 21.5374 15.336 22.4711 14.3403C22.9428 14.4153 23.4146 14.4904 23.8864 14.5654C23.8864 14.5654 27.6594 27.244 41.7789 34.071L57.9857 25.4418C57.9857 25.4418 43.1781 20.6465 37.0486 11.2331L35.0443 11.0459L22.0191 13.9975C18.8363 17.3279 15.8909 19.6812 13.7037 21.2553C11.3392 22.9577 9.28404 24.1647 7.55871 25.1783C4.66849 26.8764 2.15706 28.1628 0.28418 29.0686C0.563778 29.3141 0.843997 29.5589 1.1236 29.8044Z" fill="#A3C7FA"/>
<path d="M1.24602 30.5042C0.800276 30.7825 1.50454 30.3851 0.958984 30.6932C1.0123 30.6443 1.09351 30.5823 1.24602 30.5042Z" fill="#1B1B1B"/>
<path d="M0.687856 29.7874C1.41816 29.3565 2.28424 28.8959 3.16209 28.4154C4.04118 27.9362 4.93143 27.4347 5.71505 26.9381C5.8998 26.8246 5.69274 27.0119 6.10872 26.7502C7.61335 25.7633 10.0516 24.3238 11.8768 23.1093L11.7763 23.1973C12.1254 22.9673 12.5135 22.6338 12.8743 22.3777C12.8829 22.3833 12.7683 22.472 12.8588 22.4224C12.9325 22.3343 13.4955 21.9382 13.6306 21.8067C13.7769 21.71 13.7769 21.7398 13.9654 21.6127L14.1458 21.4317C14.6542 20.9407 15.4923 20.3796 16.1991 19.7268C16.1687 19.7621 16.0999 19.8279 16.1631 19.7845C16.736 19.2687 17.3813 18.6896 18.0323 18.0827C18.6832 17.4764 19.3391 16.8422 19.9411 16.2265C19.9008 16.283 19.8711 16.3431 19.9517 16.2811C19.9864 16.1955 20.3552 15.8124 20.6696 15.4752C20.7545 15.4125 20.8853 15.2638 21.0434 15.084C21.2009 14.9029 21.3825 14.6884 21.5747 14.4975L21.5493 14.5366C21.5703 14.5093 21.5908 14.4832 21.6113 14.4591C21.6354 14.4312 21.6578 14.4051 21.6795 14.3797C21.7185 14.3692 21.7557 14.3592 21.7917 14.3499C21.8233 14.3425 21.8537 14.3351 21.8828 14.3283C21.9423 14.3152 21.9981 14.3028 22.0533 14.2904C22.1643 14.2656 22.2721 14.2371 22.398 14.1863L22.6509 14.1516C22.809 14.0592 23.2188 14.0356 23.5331 13.9296L23.5201 13.9222C23.8195 13.8335 23.9832 13.8186 24.2616 13.7399L24.2895 13.7387C24.9429 13.5601 25.3316 13.4907 25.3062 13.4566C25.5442 13.4293 24.6732 13.6314 25.0458 13.5849C27.1964 12.9997 29.4258 12.4455 31.6006 11.8956C31.8516 11.8484 32.0097 11.8137 32.0692 11.8143C32.2844 11.7517 32.8857 11.6011 33.0785 11.531C33.006 11.5502 33.2236 11.5155 33.3395 11.4882C33.7394 11.4027 33.7611 11.337 34.2 11.2446C34.0295 11.2985 33.9744 11.3258 34.0357 11.3252C34.2633 11.2477 34.5385 11.1727 34.8268 11.0964C35.0035 11.1051 35.1827 11.1132 35.3531 11.1219C35.2825 11.1243 35.1734 11.1219 35.1895 11.1349C35.6848 11.1305 36.0884 11.1987 36.5224 11.2031L36.3587 11.2161C36.7065 11.252 36.7561 11.2427 36.7989 11.2322C36.81 11.2297 36.8206 11.2266 36.8348 11.2248C36.8423 11.2235 36.8503 11.2229 36.8609 11.2217C36.8658 11.2217 36.872 11.2204 36.877 11.2217C36.8807 11.2254 36.8844 11.2303 36.8888 11.2347C36.9061 11.2539 36.9284 11.2818 36.9594 11.3221C36.9873 11.3587 37.0214 11.4052 37.0654 11.4672C36.9731 11.3556 36.996 11.4015 36.9731 11.386C37.0661 11.4926 37.1684 11.6178 37.2762 11.7536C37.3295 11.8218 37.3847 11.8918 37.4405 11.9631C37.4684 11.9991 37.4963 12.035 37.5242 12.071L37.6135 12.1758C37.7319 12.3159 37.8503 12.4566 37.9619 12.5887C38.0177 12.6544 38.0723 12.7182 38.1237 12.779C38.1752 12.8397 38.2248 12.8968 38.2744 12.9464C38.2496 12.9241 38.2508 12.9346 38.2508 12.9346C38.4591 13.1584 38.668 13.3896 38.8838 13.6258C39.1057 13.8558 39.3407 14.084 39.5831 14.3159C39.7505 14.4938 39.4814 14.3059 39.9619 14.7393C39.9687 14.7145 40.1739 14.8974 40.3456 15.0493C40.4312 15.1255 40.5099 15.1931 40.5533 15.221C40.5955 15.2501 40.5998 15.2433 40.5366 15.1714C40.7436 15.3537 41.0102 15.5892 41.26 15.8099C41.5149 16.0244 41.7591 16.216 41.9067 16.3251C41.7021 16.1838 42.0821 16.5378 41.7213 16.2538L41.9755 16.4925C41.9234 16.4751 41.7002 16.2637 41.7715 16.3518C41.8174 16.3871 41.8843 16.4392 41.9625 16.4999C42.04 16.5607 42.1292 16.6283 42.2204 16.6928C42.4008 16.8229 42.5774 16.9525 42.658 17.017C42.8372 17.1335 43.0114 17.2414 43.2172 17.3617C43.4218 17.4838 43.65 17.6289 43.9345 17.8235C43.7957 17.7392 43.8273 17.7752 43.8688 17.8192C43.911 17.862 43.9655 17.9097 43.8713 17.8521L44.7219 18.3114C44.9141 18.4361 44.7436 18.3697 45.03 18.5371C45.0219 18.5173 45.1478 18.5879 45.2389 18.6338C45.2736 18.6586 45.477 18.7832 45.6791 18.9128C45.883 19.0393 46.0876 19.1682 46.1186 19.2135C46.1961 19.2804 45.7925 19.03 46.0027 19.1738C46.185 19.2823 46.2817 19.3356 46.379 19.3889C46.4757 19.4429 46.5724 19.4968 46.7572 19.6003L46.7609 19.6096C47.0014 19.7541 47.4881 20.0002 47.2358 19.8285C47.0672 19.7311 47.2866 19.8886 47.043 19.7349C47.1353 19.7721 47.2891 19.8496 47.4658 19.9444C47.6437 20.0374 47.8464 20.1434 48.0324 20.2445C47.9022 20.1825 47.9115 20.2011 47.8539 20.1843C48.3703 20.4273 48.9103 20.6945 49.4843 20.9679C49.5029 20.9531 49.2543 20.8985 49.1768 20.844C49.3535 20.9456 49.5408 21.0349 49.7261 21.126C49.9127 21.2153 50.0981 21.3046 50.2822 21.387C50.6511 21.5507 51.0008 21.7144 51.3014 21.8718C51.1985 21.8291 51.2593 21.8191 51.2642 21.8278C51.6201 21.9927 51.5916 22.0144 51.8284 22.1093C51.8433 22.1372 52.1253 22.2333 52.3684 22.3337C52.4979 22.3759 52.4279 22.3697 52.2165 22.2791C52.5556 22.4186 53.9195 22.9611 54.7006 23.2884C54.6895 23.2729 55.2028 23.4335 55.3838 23.5036H55.3026C55.4619 23.5835 55.9157 23.7274 55.9374 23.7615C56.1389 23.8166 55.7601 23.6871 55.3987 23.5612C55.0385 23.4335 54.6944 23.3132 54.9629 23.4006C55.0906 23.475 55.7118 23.6356 55.5847 23.6282C55.7688 23.6951 55.9523 23.754 56.1327 23.8142C56.3137 23.873 56.4911 23.935 56.6634 24.0101C56.5623 23.9698 56.3509 23.9412 56.6498 24.0448C57.1773 24.2202 56.8035 24.0844 57.2338 24.2202L57.5059 24.299C57.5326 24.2791 57.9771 24.4558 57.7905 24.3628C57.7979 24.3684 57.8153 24.3758 57.8401 24.3851C57.8525 24.3895 57.8667 24.395 57.8828 24.4006C57.9027 24.4068 57.9244 24.4143 57.9479 24.4217C58.0533 24.4539 58.1841 24.4949 58.31 24.5333C58.5884 24.6158 58.8388 24.6914 58.7396 24.6858L58.5567 24.6697C58.6187 24.687 58.6795 24.7038 58.7378 24.7174C58.7378 24.7187 58.7415 24.7199 58.7378 24.7211L58.7303 24.7261L58.7154 24.736C58.7055 24.7422 58.6956 24.749 58.6863 24.7552C58.6671 24.7683 58.6485 24.7807 58.6305 24.7931C58.5933 24.8191 58.558 24.8439 58.5233 24.8681C58.4513 24.9189 58.3757 24.9722 58.284 25.0305C58.2387 25.0522 58.1513 25.0925 58.1624 25.0795C58.1624 25.0875 58.15 25.0999 58.1283 25.1167C58.1079 25.1322 58.0713 25.1557 58.0385 25.1756C57.987 25.2072 57.9176 25.2456 57.8401 25.2872C57.6863 25.3702 57.5047 25.4669 57.39 25.555C56.9393 25.785 56.2685 26.1799 56.0434 26.2667C55.713 26.4706 55.413 26.661 55.0205 26.8668C55.0955 26.8191 55.2003 26.7589 55.2158 26.736C54.9653 26.8575 54.9127 26.904 54.695 27.0354C54.7403 27.0007 54.1935 27.2784 53.9145 27.4124C53.586 27.6151 53.7155 27.5766 53.6907 27.6114C53.3559 27.736 52.7565 28.1737 52.3467 28.346C52.4595 28.2741 52.8253 28.0478 52.5382 28.1923C52.2035 28.3169 51.9369 28.5748 51.4273 28.8296L51.5711 28.8011C51.3361 28.9002 50.8526 29.2325 50.8811 29.1637C50.723 29.271 50.2884 29.478 50.3647 29.4855C49.5302 29.9089 48.392 30.6144 47.852 30.8258C47.7386 30.8977 47.4435 31.054 47.5141 31.0403C47.7206 30.9529 47.777 30.8736 47.857 30.8475C47.7528 30.907 47.7355 30.9306 47.728 30.9417C47.4695 31.075 47.268 31.1835 47.49 31.0174C46.9122 31.3088 46.9444 31.408 46.2184 31.7942C46.242 31.7601 46.1843 31.7843 45.9754 31.9045L45.5923 32.1544C45.1242 32.4073 45.3083 32.2654 45.2817 32.2449C45.0362 32.3881 44.7318 32.5567 44.6307 32.6398L44.3102 32.7743C44.5433 32.6764 44.1149 32.9045 44.0021 32.9764L44.1149 32.9045C44.0629 32.9188 43.7802 33.0862 43.637 33.1705C43.6803 33.168 43.9767 33.0112 44.1397 32.9268C44.0195 33.0099 43.8205 33.1172 43.6605 33.225C43.7014 33.1674 43.2458 33.4321 43.0468 33.54C42.8174 33.6609 42.805 33.7061 42.7386 33.7421C42.7318 33.7365 42.6394 33.788 42.5688 33.8258C42.5402 33.8407 42.4863 33.8698 42.4733 33.8748C42.4572 33.8816 42.4764 33.8667 42.5334 33.8283C42.6078 33.7805 42.7169 33.7433 42.8378 33.6596C42.7603 33.6962 42.7225 33.7061 42.6667 33.7309C42.6388 33.7433 42.6066 33.7588 42.562 33.7836C42.5365 33.7985 42.508 33.8152 42.4739 33.8345C42.4535 33.8469 42.4318 33.8599 42.4082 33.8735C42.3964 33.8803 42.384 33.8878 42.3716 33.8958C42.3654 33.8995 42.3586 33.9039 42.3524 33.9076C42.3456 33.9107 42.3388 33.9033 42.3313 33.902C42.1615 33.832 42.172 33.8531 42.1559 33.8574C42.1398 33.8617 42.0982 33.85 41.8713 33.7346C41.9959 33.7836 42.0232 33.783 42.1212 33.8165L41.6959 33.6026L41.6661 33.6193C41.6109 33.5858 41.6519 33.6026 41.6264 33.5865C41.5564 33.5697 41.3902 33.496 41.2278 33.424C41.0654 33.3521 40.9067 33.2827 40.8521 33.2709C40.6364 33.1643 40.4095 33.0242 40.2061 32.9175L40.2464 32.9355C40.0046 32.7923 39.6649 32.6392 39.4523 32.5363H39.4665C39.3339 32.4606 39.0152 32.2883 38.8398 32.2096C38.6755 32.106 38.66 32.0676 38.637 32.0329C38.6252 32.0155 38.6116 31.9988 38.5769 31.9758C38.5416 31.9523 38.4845 31.9238 38.3897 31.8748C38.0537 31.6721 37.8373 31.5989 37.9638 31.6962C37.815 31.6008 37.6594 31.5053 37.5013 31.4104C37.4225 31.3627 37.3419 31.3162 37.2626 31.2672C37.1845 31.217 37.1064 31.1668 37.0283 31.1166C36.717 30.9157 36.4114 30.7179 36.1516 30.5177C36.0624 30.4681 36.1107 30.5109 35.9365 30.395C35.7263 30.2424 35.5087 30.0887 35.2905 29.9356L35.1262 29.8209C35.0729 29.7812 35.0196 29.7409 34.9669 29.7012C34.8609 29.6212 34.7555 29.5419 34.6514 29.4638C34.4443 29.3057 34.2397 29.155 34.055 29.0013C33.8715 28.8463 33.7003 28.6963 33.5497 28.5556C33.7896 28.7372 33.5826 28.5469 33.5881 28.5308C33.3811 28.3925 33.3742 28.3225 33.2782 28.2983C33.2813 28.333 33.254 28.3268 33.4734 28.5196C33.4127 28.4719 33.3482 28.4204 33.2813 28.3677C33.2478 28.341 33.2137 28.3138 33.179 28.2865C33.1455 28.258 33.1114 28.2282 33.0773 28.1991C32.9409 28.0807 32.8008 27.9579 32.6669 27.8414C32.5336 27.7236 32.4077 27.6107 32.2999 27.5122C32.1945 27.4105 32.1077 27.3231 32.0488 27.2599C32.1666 27.3857 32.0643 27.3008 31.9601 27.2134C32.0203 27.2146 31.6905 26.8997 31.4307 26.6728L31.3792 26.6554L31.2379 26.4793C31.1387 26.3913 31.0984 26.4118 30.8721 26.1539C30.8665 26.1346 30.8591 26.1142 30.8194 26.0652C30.6837 25.948 30.5274 25.7999 30.3712 25.6461C30.215 25.4924 30.0594 25.333 29.9335 25.1849C29.8697 25.0999 29.8095 25.0113 29.7475 24.9251C29.6347 24.8042 29.4338 24.6102 29.6198 24.8346C29.192 24.3306 28.9255 23.997 28.8133 23.8179C28.7159 23.7143 28.6093 23.6071 28.5076 23.4881C28.4053 23.369 28.2987 23.245 28.1896 23.1179C27.9695 22.8638 27.7525 22.5829 27.5318 22.2971C27.4766 22.2258 27.4215 22.1539 27.3663 22.082L27.2063 21.8613C27.1003 21.7137 26.9943 21.5662 26.8895 21.4205C26.786 21.2736 26.6881 21.1248 26.5901 20.981C26.494 20.8359 26.3948 20.6958 26.3074 20.5551L26.344 20.578C26.1661 20.2693 26.2175 20.4397 26.0941 20.224C26.171 20.3114 25.9795 19.9754 26.1481 20.1992C26.0836 20.0895 26.0272 20.0014 25.977 19.9264C25.928 19.8502 25.884 19.7876 25.8424 19.7299C25.7587 19.6146 25.6844 19.5204 25.5945 19.3809C25.548 19.3505 25.7464 19.6003 25.6868 19.5613C25.6695 19.539 25.579 19.3877 25.4903 19.2321C25.4017 19.0765 25.308 18.9202 25.2727 18.8954C25.2206 18.7783 25.2938 18.8508 25.3409 18.9029C25.2845 18.8161 25.2256 18.7299 25.1704 18.6419C25.0979 18.4646 25.2157 18.6468 25.3421 18.821C25.4668 18.9965 25.5914 19.1682 25.5139 18.9835L25.3651 18.7386C25.2615 18.4844 25.7811 19.3703 25.4327 18.7448C25.2609 18.485 25.0904 18.2743 25.2095 18.526C24.8883 17.9624 24.9851 18.3065 24.6621 17.6865C24.592 17.5074 24.9268 18.1794 24.8908 18.0467C24.827 17.8942 24.7464 17.7504 24.6664 17.6109C24.5864 17.472 24.5102 17.335 24.4488 17.2024C24.5821 17.4993 24.4265 17.2699 24.326 17.0839C24.1872 16.7554 24.4562 17.2774 24.2423 16.8211C24.1865 16.756 23.9758 16.3419 24.1332 16.7107C24.0123 16.5657 23.9237 16.2284 23.7817 15.9903C23.7464 15.8267 24.0595 16.4367 23.8536 15.9215C23.8555 16.017 23.5499 15.3053 23.6181 15.5954C23.5449 15.3884 23.561 15.358 23.6373 15.4987C23.6119 15.4194 23.5747 15.3344 23.5387 15.2483L23.5108 15.1844L23.4965 15.1528C23.4934 15.146 23.4928 15.146 23.4903 15.1422C23.4841 15.1323 23.4779 15.1224 23.4717 15.1131C23.4606 15.1131 23.4507 15.1137 23.4426 15.1131C23.4383 15.1131 23.4345 15.1131 23.4308 15.1119C23.419 15.11 23.4085 15.1082 23.398 15.1069C23.344 15.0976 23.3031 15.0852 23.2814 15.0679L23.1723 15.0871C23.0781 15.0641 22.9417 15.0393 22.7879 15.0021C22.7067 14.9916 22.5951 14.9817 22.4804 14.9711C22.4228 14.9662 22.3645 14.9606 22.3081 14.9556L22.2889 14.9538H22.2827H22.2709C22.2635 14.9538 22.256 14.9532 22.2492 14.9525C22.243 14.96 22.2374 14.9662 22.2318 14.9718C22.2287 14.9742 22.2263 14.9767 22.2238 14.9792C22.2219 14.9811 22.2225 14.9798 22.2188 14.9835C22.2151 14.9873 22.2114 14.9904 22.2077 14.9941C22.1798 15.0195 22.1618 15.03 22.1581 15.0201C22.1035 15.0889 21.6801 15.544 21.8679 15.3909C22.0074 15.2563 22.0769 15.1695 22.1357 15.1013C22.1649 15.0672 22.1909 15.0375 22.2207 15.0083L22.2318 14.9972C22.2368 14.9928 22.2349 14.9947 22.2374 14.9935C22.2399 14.9922 22.2424 14.9916 22.2449 14.991C22.2498 14.9897 22.256 14.9904 22.261 14.9928C22.2554 14.9922 22.2486 14.9941 22.2424 14.9972C22.243 14.9947 22.2263 15.0121 22.2151 15.0232L22.1791 15.0604C22.132 15.1106 22.0874 15.1621 22.0452 15.2135C21.9609 15.3171 21.884 15.4194 21.8127 15.5062L21.7743 15.5198C21.6888 15.6221 21.4761 15.8434 21.4333 15.9172C21.4953 15.8354 21.4495 15.8651 21.3732 15.9389L21.2982 16.0598C20.9337 16.4609 21.1736 16.1168 20.8134 16.5006L21.0756 16.198C21.018 16.2637 20.8748 16.3747 20.7049 16.5607C20.6559 16.6494 20.5493 16.8025 20.504 16.8769C20.3032 17.0957 20.3893 16.95 20.2015 17.1757L20.4495 16.8825C20.4842 16.8353 20.2368 17.035 19.9554 17.3127C19.7818 17.4968 19.5251 17.7975 19.8227 17.5297C19.6801 17.6686 19.4681 17.8508 19.5685 17.7268C19.2499 18.0455 19.6311 17.707 19.3615 17.9872C19.2344 18.0852 18.8568 18.4057 18.6194 18.5886L18.8866 18.2804L18.6888 18.464C18.9207 18.2011 18.5406 18.5638 18.6597 18.4032C18.5214 18.5241 18.3658 18.6834 18.2412 18.8099C18.46 18.6512 18.3627 18.7677 18.2294 18.9159C18.0961 19.0641 17.9238 19.2426 18 19.211C17.7279 19.4615 17.6175 19.5117 17.5115 19.5706C17.4049 19.6295 17.302 19.6983 17.0335 19.9779C17.1395 19.9078 16.8872 20.1732 17.2344 19.8626C16.8785 20.1527 17.0298 20.105 16.5958 20.4311C16.8934 20.1608 16.227 20.6586 16.656 20.2686C16.6374 20.3071 16.9145 20.0746 16.9802 20.0138C16.8209 20.118 16.9753 19.9469 16.6126 20.2445C16.3944 20.4292 16.0881 20.6741 16.1501 20.6617C16.1792 20.6784 16.4892 20.3852 16.3658 20.5247C15.9275 20.8911 15.8209 20.9084 15.6696 21.0994C15.9505 20.8731 16.0416 20.8427 16.0497 20.8632L15.7279 21.1329L15.7794 21.0659C15.2394 21.4664 15.6461 21.2178 15.1259 21.6115L14.8575 21.7627C14.961 21.6431 15.6194 21.1992 15.4923 21.224C15.1563 21.4806 15.0627 21.5898 14.7347 21.8179C14.8036 21.7615 14.8972 21.6846 14.9654 21.6288C14.8426 21.7181 14.6783 21.7509 14.2214 22.1465C13.9815 22.3461 14.1675 22.2122 14.1743 22.2339C13.6337 22.6449 13.4806 22.7788 13.1291 23.0398C13.178 22.9543 12.4986 23.4868 12.8662 23.1713C13.0615 23.0621 13.855 22.4825 14.0224 22.3052C13.7937 22.4118 14.4558 21.9946 14.5407 21.8644C14.1043 22.1905 14.095 22.1335 14.0057 22.1601C13.8829 22.2481 13.7738 22.3461 13.7044 22.4038C13.6709 22.4664 13.8296 22.3486 13.8569 22.3666C13.3628 22.7193 12.8997 23.077 12.6436 23.2946C12.4701 23.4006 12.5042 23.3386 12.6982 23.1967C12.4068 23.4106 12.1043 23.6294 11.8011 23.8402C11.4986 24.0516 11.1992 24.2593 10.914 24.449C11.3064 24.2376 10.2915 24.8935 10.5631 24.7559C10.8718 24.5562 11.152 24.405 10.9983 24.5389C10.8073 24.6672 10.9921 24.5172 10.9072 24.5631C10.6815 24.7515 10.5085 24.7862 10.2959 24.9846C10.8297 24.5965 10.3672 24.8619 10.4453 24.7608C10.0659 25.0491 10.4472 24.728 10.0591 24.9927C9.67841 25.2772 9.20787 25.6201 8.77452 25.9195C8.20478 26.258 7.37839 26.847 6.88367 27.1706C6.61399 27.3231 6.76587 27.1718 6.48008 27.3485C6.15026 27.563 6.751 27.2295 6.25069 27.5295L6.29285 27.4917C6.15088 27.5971 5.37842 28.0447 5.26621 28.1904L5.39206 28.0534C5.29845 28.1079 5.21909 28.1718 5.14594 28.2245C5.13416 28.214 5.01947 28.2704 5.1633 28.1662C4.84216 28.3318 4.52846 28.5754 4.19803 28.7843L4.42617 28.674C3.87069 29.0497 3.47578 29.2623 2.93023 29.6107L2.93209 29.5772L2.61281 29.793C2.67852 29.7211 2.36855 29.8909 2.20674 30.0162L3.02446 29.4346C3.26934 29.3026 2.78392 29.6225 2.94634 29.5537C3.08459 29.496 3.59048 29.1743 3.65867 29.0999C3.46215 29.2183 3.45595 29.2301 3.31026 29.3317C3.22594 29.3392 3.52228 29.1569 3.65495 29.0441C3.5539 29.1085 3.40263 29.1891 3.38713 29.2133C3.57684 29.0726 3.77832 28.9449 4.11062 28.7353C3.89301 28.8897 4.24577 28.6783 4.16641 28.7415C4.17509 28.6963 4.48755 28.4886 4.9023 28.2363C5.21599 28.0831 5.65802 27.7254 6.13662 27.4291C5.96365 27.5816 5.73303 27.762 5.45219 27.9585C5.75907 27.7825 5.78263 27.7453 6.09013 27.5686C6.2197 27.4539 6.30153 27.3553 6.67908 27.0912L6.7138 27.0987C7.05725 26.86 7.03679 26.8284 7.4844 26.5419C8.25128 26.0509 9.03056 25.5296 9.60526 25.1396L9.64122 25.1458C9.93197 24.8861 10.6933 24.4012 11.1074 24.0851C11.8476 23.5978 12.6647 22.9561 13.0565 22.7237C14.3088 21.7888 15.3907 20.9543 16.6479 19.9382L16.4607 20.1391C16.6678 19.9345 16.6194 20.0362 16.8358 19.8514C16.5655 20.0368 17.1154 19.5712 17.2518 19.4224C17.8196 18.9798 18.4786 18.3288 18.925 17.8731L18.9603 17.8744C19.3962 17.3964 19.9764 16.8899 20.5437 16.3202C20.6162 16.2619 20.734 16.1739 20.8989 15.9996C21.1711 15.6562 21.331 15.4938 21.7452 15.0071C21.8481 14.8949 21.9696 14.7628 22.1196 14.5998C22.2411 14.6165 22.3695 14.6339 22.5009 14.6519C22.6063 14.6667 22.7142 14.6822 22.8196 14.6971C23.031 14.7281 23.2362 14.7585 23.4048 14.7858C23.4507 14.7901 23.4965 14.7951 23.5424 14.7994C23.5988 14.8056 23.6559 14.8118 23.7129 14.818L23.7954 15.0369L23.8549 15.1832C23.8958 15.2799 23.9361 15.3766 23.977 15.4733C24.0595 15.6667 24.1463 15.8589 24.233 16.0517C24.3229 16.2433 24.4097 16.4367 24.5033 16.6277C24.5498 16.7231 24.5957 16.8192 24.6422 16.9153C24.69 17.0108 24.7383 17.1056 24.7867 17.2011C25.1723 17.9637 25.5945 18.7181 26.0619 19.4522L26.1053 19.5799C26.5951 20.3151 27.1437 21.131 27.7035 21.901C27.8461 22.0913 27.9869 22.2804 28.1257 22.4664C28.1604 22.5129 28.1952 22.5587 28.2293 22.6046C28.2646 22.6499 28.2999 22.6945 28.3353 22.7392C28.4059 22.8284 28.4754 22.9158 28.5442 23.0026C28.8157 23.3523 29.091 23.6678 29.339 23.9512L29.2069 23.8724C29.2801 23.9654 29.3607 24.0628 29.4394 24.1551C29.5206 24.245 29.6006 24.33 29.6688 24.3994C29.8058 24.5389 29.8988 24.6188 29.8721 24.5618C29.9478 24.6529 30.0364 24.7528 30.1282 24.8544C30.2206 24.9567 30.3222 25.0565 30.4165 25.1557C30.6068 25.3529 30.7791 25.5364 30.8678 25.6597C31.2026 26.01 31.3036 26.0621 31.5925 26.3411C31.6756 26.4291 31.7556 26.5072 31.8312 26.5791C31.9062 26.6517 31.9763 26.7186 32.0426 26.7825C32.1765 26.909 32.2955 27.0224 32.4139 27.134C32.5311 27.2468 32.6551 27.3497 32.7884 27.4663C32.9229 27.5816 33.0699 27.7081 33.2428 27.8569L33.0748 27.7056C32.9917 27.6479 32.9713 27.6585 33.1405 27.8104C33.2069 27.8637 33.2986 27.943 33.3947 28.0273C33.4939 28.1086 33.5993 28.1941 33.6879 28.266C33.8665 28.4092 33.9824 28.4936 33.8702 28.3627C33.962 28.4433 34.0581 28.5258 34.1579 28.6101C34.2577 28.6944 34.3606 28.7812 34.4703 28.8624C34.6892 29.0267 34.9155 29.1972 35.1411 29.3671C35.3643 29.54 35.5999 29.695 35.8187 29.8544C36.0388 30.0106 36.2453 30.168 36.435 30.3106C36.3767 30.2524 36.5788 30.3813 36.6687 30.4278C36.8472 30.545 37.027 30.6659 37.2056 30.7861C37.2948 30.8463 37.3835 30.9064 37.4715 30.9659C37.5614 31.0223 37.6513 31.0781 37.7393 31.1339C37.9166 31.2443 38.089 31.3509 38.2551 31.4507C38.3382 31.4997 38.42 31.5481 38.4988 31.5946C38.5775 31.6411 38.655 31.6845 38.7319 31.7223C38.8472 31.796 38.5285 31.6411 38.8317 31.8122C39.0152 31.907 38.8466 31.796 39.0729 31.9114C39.226 31.992 39.3791 32.0744 39.5316 32.1581C39.6847 32.2406 39.8342 32.3292 39.9904 32.4061C40.2997 32.5648 40.6066 32.726 40.9098 32.8865C40.986 32.9262 41.0604 32.9678 41.1373 33.005C41.2142 33.0422 41.2904 33.0787 41.3667 33.1153C41.5192 33.1885 41.6705 33.261 41.8205 33.3329C41.9705 33.4042 42.1193 33.4743 42.2656 33.5437L42.3239 33.5716C42.3295 33.5728 42.335 33.579 42.3406 33.5772L42.3567 33.5685C42.4132 33.5369 42.469 33.5053 42.5241 33.4743C44.4745 32.3472 46.5327 31.2152 48.4137 30.1575L48.3982 30.1798C49.0064 29.7868 49.901 29.3937 50.3703 29.0515C50.5246 28.9784 50.9425 28.7378 50.8427 28.8203C51.3293 28.5109 52.2642 28.0608 52.9697 27.6188C52.9028 27.6548 52.8656 27.6783 52.7912 27.7261C53.5376 27.3392 54.1668 26.9455 54.9523 26.5345C54.8761 26.5829 54.7353 26.6659 54.7186 26.6895C55.0286 26.5426 55.4018 26.2487 55.5946 26.2078C55.7657 26.1117 55.7025 26.1142 55.5977 26.1743C56.062 25.9214 56.5332 25.6604 57.0081 25.3938C57.2449 25.2599 57.4836 25.1254 57.7229 24.9902L57.8934 24.8935L57.9523 24.8588L58.0093 24.8253L58.0372 24.8086L58.0509 24.8005L58.0577 24.7968L58.0608 24.7949C58.0608 24.7949 58.0626 24.7937 58.0608 24.7931L57.9504 24.7633L57.7992 24.7193C57.5772 24.6505 57.3553 24.5804 57.1339 24.5079C56.6919 24.364 56.2524 24.214 55.8178 24.059C55.1414 23.7937 55.1315 23.7571 55.1513 23.7509C55.1718 23.7422 55.2239 23.7584 54.6814 23.5736C54.5983 23.529 54.6101 23.5699 54.5996 23.5525C54.3906 23.4794 54.2357 23.4013 54.0962 23.3306C53.9573 23.2593 53.8339 23.1948 53.6858 23.1514C53.7899 23.2326 53.4886 23.0931 53.4719 23.1099C53.0658 22.9307 52.8271 22.8117 52.6058 22.7106C52.3857 22.6071 52.1855 22.5172 51.8594 22.3895L51.9152 22.3932C51.1433 22.108 50.2928 21.6809 49.6462 21.4249C47.6108 20.4286 45.6741 19.3307 43.8372 18.1013C42.9228 17.4801 42.0319 16.8298 41.1751 16.1323C40.3233 15.4287 39.5037 14.6847 38.7275 13.8868C38.5775 13.7226 38.4275 13.5583 38.2781 13.3946C38.1293 13.2303 37.9762 13.0691 37.8379 12.8955C37.6959 12.7251 37.5546 12.5546 37.4132 12.3841L37.3072 12.2564C37.2731 12.213 37.2403 12.1677 37.2068 12.1237L37.0078 11.8577L36.8088 11.5918L36.7338 11.492C36.7338 11.492 36.7319 11.4895 36.7301 11.4907L36.1206 11.4529C35.6985 11.4269 35.2769 11.4008 34.8547 11.3748C33.6198 11.6866 32.3842 11.9991 31.1418 12.3128C29.8858 12.6283 28.6217 12.9427 27.3433 13.2557C26.3266 13.4609 26.2522 13.4814 25.1543 13.779C25.1965 13.7598 25.2659 13.7405 25.1903 13.7523C25.145 13.8056 24.4147 13.9519 24.3186 14.0164C23.8834 14.1255 23.4581 14.2322 23.0347 14.3375C22.6354 14.4392 22.238 14.5403 21.8375 14.6419C21.7328 14.7548 21.628 14.8682 21.522 14.9823C21.3999 15.1144 21.2765 15.2476 21.1494 15.3791C21.0229 15.5111 20.8958 15.6444 20.7675 15.7796C20.6373 15.9129 20.5059 16.0468 20.3726 16.1831C20.5567 15.9897 20.6268 15.8713 20.4067 16.0988L20.1922 16.3536L20.1463 16.384C19.9969 16.5409 19.8425 16.7219 20.0112 16.5731C18.5208 18.0827 16.9455 19.4838 15.3082 20.7875C13.6715 22.0925 11.9685 23.2946 10.232 24.4298C9.39819 24.9561 8.21594 25.7069 7.30895 26.271C5.94196 27.0757 4.62704 27.811 3.29724 28.5326C2.63203 28.8928 1.96372 29.2499 1.28239 29.6082C1.00403 29.7539 0.723194 29.9015 0.439255 30.0503L0.426856 30.0565L0.420657 30.0596C0.420657 30.0596 0.415697 30.0614 0.418797 30.0633L0.441735 30.0813L0.486991 30.1166C0.534108 30.1538 0.581844 30.191 0.629581 30.2288C0.785189 30.3522 0.941417 30.4755 1.09888 30.6008C1.09888 30.6008 1.00093 30.5555 0.77217 30.408C0.663058 30.3385 0.489471 30.2183 0.37168 30.1395C0.335103 30.1135 0.296666 30.0868 0.255749 30.0583C0.216692 30.0416 0.259469 30.0323 0.274968 30.0199C0.296046 30.0075 0.317124 29.9951 0.338823 29.9827C0.385939 29.956 0.434915 29.9281 0.486372 29.899C0.551467 29.8637 0.619661 29.8258 0.690956 29.7874H0.687856Z" fill="#1B1B1B"/>
<path d="M1.78491 30.1749C1.89154 30.134 2.21144 29.9523 1.97524 30.1278C1.93432 30.1303 1.76135 30.2102 1.78491 30.1749Z" fill="#1B1B1B"/>
<path d="M10.1556 25.0253C10.1624 25.0129 10.2758 24.9534 10.3037 24.9385C10.2045 25.0079 10.1202 25.086 10.0347 25.1313C10.1351 25.0612 10.1146 25.0637 10.1562 25.0253H10.1556Z" fill="#1B1B1B"/>
<path d="M12.2251 23.5977C12.2053 23.6349 11.7732 23.9554 11.5146 24.1401L12.2251 23.5977Z" fill="#1B1B1B"/>
<path d="M14.1667 22.2807C14.3391 22.1722 14.2988 22.2125 14.0793 22.3749C14.0576 22.3792 14.127 22.3216 14.1667 22.2807Z" fill="#1B1B1B"/>
<path d="M14.2758 22.1518C14.4327 22.0352 14.5158 21.9862 14.5976 21.9366C14.5827 21.9298 14.2417 22.215 14.2758 22.1518Z" fill="#1B1B1B"/>
<path d="M18.2765 18.9871C18.3664 18.9028 18.553 18.7144 18.6504 18.6511C18.5474 18.728 18.2251 19.0702 18.2765 18.9871Z" fill="#1B1B1B"/>
<path d="M19.9819 17.342C20.0371 17.2893 20.0625 17.2701 20.122 17.2032C20.2274 17.1102 20.132 17.2242 20.0483 17.3086L19.9819 17.3414V17.342Z" fill="#1B1B1B"/>
<path d="M51.9283 28.5859L51.7095 28.7186L51.7337 28.6845L51.9283 28.5859Z" fill="#1B1B1B"/>
<path d="M48.2607 20.3261C48.0319 20.2151 48.1131 20.2269 48.0771 20.2046C48.2799 20.3125 47.9922 20.1841 48.2607 20.3261Z" fill="#1B1B1B"/>
<path d="M39.917 14.6284L39.9752 14.6816L39.9296 14.691L39.917 14.6284Z" fill="#1B1B1B"/>
<path d="M1.80763 30.9937C1.64273 31.0947 1.91427 30.9713 1.7041 31.0668C1.72022 31.0414 1.74688 31.0141 1.80763 30.9937Z" fill="#1B1B1B"/>
<path d="M40.0103 33.9726C39.4046 33.7978 38.709 33.3502 38.0803 33.0799C38.0078 33.0458 38.1231 33.0446 37.9582 32.9702C37.3426 32.7178 36.4586 32.1555 35.8157 31.6683L35.8646 31.6819C35.8026 31.636 35.7251 31.5995 35.6477 31.561C35.5708 31.5213 35.4927 31.481 35.427 31.4327C35.4313 31.424 35.4778 31.45 35.4536 31.4178C35.4034 31.4197 35.2025 31.2653 35.1331 31.2448C35.086 31.1996 35.1046 31.1841 35.0432 31.127L34.9471 31.1022C34.8163 31.0644 34.6904 30.9696 34.5565 30.866C34.4232 30.7625 34.2825 30.6478 34.1275 30.5616C34.1461 30.5654 34.1777 30.5809 34.1598 30.5585C34.099 30.522 34.0364 30.4835 33.9732 30.4432C33.9112 30.4017 33.8479 30.3571 33.7841 30.3124C33.6564 30.2219 33.5262 30.1264 33.3947 30.0291C33.329 29.9801 33.2627 29.9312 33.197 29.8816C33.1306 29.8326 33.0649 29.7824 33.0011 29.7303C32.8721 29.628 32.7438 29.5263 32.6198 29.4278C32.6471 29.4346 32.6787 29.4333 32.6582 29.3992C32.6117 29.4067 32.4549 29.2883 32.3191 29.1854C32.2819 29.111 32.0761 29.0211 31.9397 28.8729L31.9577 28.8779C31.8225 28.8084 31.8083 28.7167 31.6886 28.6708L31.6378 28.5877C31.5553 28.5828 31.4958 28.4265 31.3873 28.3652L31.383 28.3757C31.2881 28.3087 31.2646 28.2461 31.1809 28.1798L31.1778 28.1686C30.9881 28.0062 30.9025 27.8853 30.8796 27.9182C30.8381 27.8351 31.0643 28.075 30.9968 27.9467C30.8412 27.8122 30.6868 27.6745 30.533 27.535C30.3812 27.3937 30.2367 27.243 30.0892 27.0949C29.9435 26.9455 29.7972 26.7961 29.6521 26.6466C29.5095 26.4948 29.3737 26.3373 29.2349 26.1842C29.184 26.1036 29.1481 26.0558 29.145 26.0304C29.0842 25.9746 28.9323 25.8041 28.8672 25.7614C28.8864 25.7812 28.8468 25.708 28.8195 25.6746C28.7315 25.5524 28.6806 25.5772 28.5882 25.439C28.6378 25.483 28.662 25.4917 28.6595 25.465C28.5467 25.3764 28.4302 25.2282 28.3167 25.1061C28.3384 25.1216 28.3669 25.1501 28.3725 25.1377C28.2299 25.0199 28.1673 24.8767 28.0483 24.7682L28.1041 24.7998C27.9633 24.5841 28.0173 24.7725 27.8914 24.5884C27.9299 24.6262 27.9255 24.6058 27.9385 24.6076C27.7792 24.4694 27.5852 24.196 27.4482 24.0404C27.4581 24.0484 27.4612 24.0422 27.4612 24.0422C27.3235 23.8637 27.1946 23.6665 27.0334 23.4774C26.9894 23.3981 27.0954 23.4688 26.9522 23.2791C26.92 23.3132 26.7042 22.9585 26.7426 23.1036C26.6298 22.9337 26.4662 22.6554 26.3775 22.5512C26.4432 22.6176 26.3694 22.4378 26.4662 22.576L26.4184 22.4545C26.4445 22.4601 26.486 22.5674 26.4835 22.5202C26.4352 22.4502 26.2814 22.2568 26.2485 22.1879C26.1407 22.0714 26.0185 21.9778 25.8766 21.7664C25.9559 21.8575 25.8828 21.6821 25.9336 21.7465L25.6732 21.4899C25.6274 21.4186 25.6949 21.4552 25.6205 21.3566C25.6137 21.3684 25.579 21.3268 25.5511 21.2996C25.5375 21.271 25.3614 21.002 25.3825 20.9474C25.3794 20.9065 25.46 21.0621 25.4271 20.9728C25.3484 20.8377 25.331 20.8395 25.2523 20.705L25.256 20.6994C25.2089 20.6077 25.0905 20.4434 25.1227 20.5544C25.1562 20.6182 25.1333 20.5172 25.1735 20.6164C25.1153 20.5655 25.0204 20.4099 24.9442 20.2735C24.9764 20.3169 24.9838 20.3051 25.0055 20.3175C24.871 20.1514 24.7563 19.9598 24.6336 19.7583C24.6131 19.7652 24.7092 19.8172 24.7154 19.8532C24.5989 19.5742 24.3905 19.32 24.3162 19.0764C24.3379 19.1111 24.2988 19.1099 24.3031 19.1049C24.2399 18.9741 24.2721 18.9654 24.2201 18.8855C24.2325 18.8693 24.163 18.7813 24.1153 18.6957C24.0812 18.6561 24.1122 18.6691 24.1512 18.7447C24.0762 18.6307 23.8196 18.1502 23.7173 17.852C23.7086 17.8625 23.5982 17.6939 23.5704 17.627L23.6075 17.6412C23.5958 17.5749 23.5084 17.4205 23.5263 17.4C23.4321 17.273 23.7904 17.932 23.6826 17.7516C23.6826 17.6927 23.5239 17.5042 23.5772 17.5302C23.5189 17.3976 23.4352 17.2804 23.4061 17.1428C23.4178 17.1818 23.4879 17.2358 23.4408 17.1291C23.3565 16.9419 23.4048 17.0808 23.3329 16.9301L23.2827 16.8371C23.2542 16.8409 23.217 16.6648 23.217 16.7479C23.2281 16.7162 23.0917 16.4751 23.1432 16.4776L23.1872 16.4912C23.1525 16.4094 23.0992 16.3691 23.0589 16.3096C23.0576 16.2978 23.0564 16.273 23.0632 16.2748C23.0267 16.2786 23.0081 16.1967 22.9764 16.1105L22.974 16.1025L22.9715 16.0944C22.9628 16.0684 22.943 16.0331 22.9175 16.0188C22.8903 15.9512 22.8283 15.8855 22.7619 15.8508C22.695 15.8154 22.6262 15.8049 22.5921 15.7888C22.5369 15.7981 22.4879 15.8185 22.442 15.8446C22.3962 15.8706 22.3528 15.9016 22.3069 15.9413C22.3199 15.9202 22.3441 15.8973 22.3428 15.8836C22.3075 15.9016 22.287 15.9221 22.2765 15.9394C22.2715 15.9463 22.2616 15.9636 22.2536 15.9773C22.2449 15.9921 22.2356 16.0089 22.2226 16.0293C22.2288 16.0076 22.0719 16.1732 21.9876 16.2513C21.9138 16.3746 21.9672 16.3542 21.9727 16.3771C21.912 16.4118 21.8574 16.4974 21.801 16.5867C21.7409 16.6735 21.6776 16.7627 21.6057 16.8099C21.6318 16.7671 21.7198 16.6338 21.6324 16.7156C21.5065 16.7807 21.4935 16.9425 21.3373 17.0864L21.4049 17.0764C21.3639 17.1031 21.3187 17.1669 21.2809 17.2178C21.2437 17.2692 21.2102 17.3052 21.2009 17.2823C21.1656 17.3449 21.0217 17.4552 21.0701 17.4676C20.9393 17.5829 20.801 17.7416 20.6702 17.8842C20.5357 18.0231 20.4074 18.1452 20.3044 18.1936C20.2747 18.2339 20.1829 18.3163 20.217 18.3145C20.292 18.2729 20.2852 18.2202 20.3187 18.2103C20.2883 18.2426 20.2902 18.2581 20.2914 18.2661C20.209 18.3356 20.147 18.3932 20.1922 18.2953C20.005 18.4453 20.0744 18.5265 19.8413 18.723C19.8389 18.7007 19.8172 18.7112 19.7545 18.7751L19.6541 18.914C19.5066 19.0448 19.545 18.9611 19.5202 18.9419C19.4477 19.0181 19.3541 19.1055 19.3355 19.1558C19.2964 19.1762 19.2561 19.1948 19.2158 19.214C19.3038 19.1725 19.1643 19.2853 19.1333 19.3244L19.165 19.2859C19.142 19.2897 19.0577 19.3765 19.0143 19.4205C19.0379 19.4248 19.1352 19.3473 19.1885 19.3064C19.1581 19.3523 19.0937 19.4062 19.0521 19.4657C19.049 19.4273 18.9108 19.5649 18.8469 19.6182C18.7713 19.6778 18.7849 19.7106 18.7639 19.7286C18.7515 19.7187 18.6461 19.8315 18.687 19.7652C18.7081 19.7397 18.7527 19.7267 18.7831 19.6802C18.7285 19.7137 18.7155 19.6883 18.6318 19.7912C18.5679 19.8681 18.6913 19.8203 18.5376 19.9288C18.5698 19.891 18.5692 19.8761 18.5896 19.8427L18.4471 19.9456L18.4595 19.971C18.4371 19.9809 18.4477 19.9685 18.4371 19.9729C18.4167 20.0286 18.2406 20.1545 18.2319 20.2047C18.1668 20.2648 18.0788 20.312 18.0125 20.3647L18.023 20.3523C17.9344 20.4068 17.8383 20.506 17.7831 20.5748V20.5674C17.7378 20.6015 17.6386 20.6901 17.5946 20.7472C17.4719 20.8222 17.4911 20.6976 17.3919 20.8247C17.2815 20.9177 17.2499 21.0082 17.3057 20.9846C17.1997 21.0596 17.098 21.1545 16.9939 21.2425C16.8897 21.3299 16.7856 21.4142 16.6783 21.4725C16.656 21.5048 16.6783 21.4955 16.6232 21.5482C16.4706 21.6622 16.3194 21.7955 16.17 21.9152C16.0199 22.0342 15.8749 22.1433 15.7385 22.2146C15.8191 22.1377 15.7273 22.1879 15.7162 22.1774C15.6591 22.2524 15.6139 22.2239 15.6139 22.2778C15.6362 22.2921 15.6362 22.307 15.7273 22.2499C15.6418 22.325 15.5302 22.4148 15.426 22.4936C15.3213 22.5717 15.2233 22.6374 15.1656 22.6659C15.2233 22.6374 15.1886 22.6727 15.1533 22.7087C15.1427 22.6672 15.0051 22.7626 14.9121 22.8501V22.8804L14.8315 22.9096C14.7974 22.9449 14.8185 22.9827 14.7044 23.0391C14.6939 23.0354 14.6821 23.0323 14.6598 23.0404C14.5674 23.1359 14.4372 23.271 14.3101 23.3386L14.1948 23.3789C14.1483 23.4179 14.0776 23.4954 14.1706 23.4402C13.9617 23.5661 13.834 23.656 13.754 23.6765C13.6071 23.8302 13.4081 23.9926 13.1985 24.1538C12.9884 24.315 12.7652 24.4731 12.5631 24.6082L12.5643 24.5853C12.4472 24.6461 12.5271 24.6498 12.4447 24.6913C12.4695 24.6529 12.3418 24.7174 12.4137 24.6411C12.2494 24.7316 12.2339 24.8041 12.139 24.8804C12.1372 24.9108 12.2103 24.8122 12.2085 24.8506C12.1961 24.8699 11.9859 24.9827 11.9822 25.0292C11.9357 25.0441 11.9506 25.0019 11.963 24.9753L11.8787 25.054C11.7398 25.0986 12.0981 24.8122 11.9481 24.8519L11.865 24.9164C11.7615 24.9424 12.0696 24.7236 11.8452 24.8624C11.7609 24.9412 11.7094 25.0397 11.8024 24.9951C11.6108 25.1371 11.7596 25.1284 11.5457 25.2697C11.4757 25.2914 11.7125 25.1501 11.6549 25.1532C11.5383 25.1972 11.4633 25.3026 11.3691 25.3547C11.4751 25.2989 11.4125 25.3857 11.3523 25.4346C11.2351 25.4942 11.4032 25.359 11.2482 25.4594C11.2345 25.4935 11.1031 25.602 11.2327 25.532C11.2041 25.6088 11.0665 25.6293 11.0027 25.7149C10.9339 25.7204 11.118 25.5456 10.9401 25.6442C10.9847 25.6529 10.7559 25.819 10.8719 25.7992C10.8006 25.8357 10.7795 25.819 10.8167 25.7707C10.7113 25.8171 10.6195 25.9721 10.5532 25.9399L10.5389 25.9889C10.5036 25.9994 10.4565 26.0211 10.3988 26.0385C10.3151 26.0943 10.1546 26.2536 10.1347 26.2071C10.1106 26.2288 9.91837 26.3522 10.0107 26.3323C10.1409 26.2722 10.1335 26.222 10.2252 26.2176C10.1205 26.2412 10.0566 26.3336 9.99462 26.3894L9.97292 26.3807C9.93635 26.4135 9.83963 26.4718 9.82537 26.5059C9.85079 26.4762 9.82723 26.4762 9.7919 26.4935L9.76462 26.5462C9.60591 26.6671 9.69766 26.5289 9.5402 26.6417L9.65117 26.5425C9.62699 26.5642 9.55693 26.5772 9.4844 26.6355C9.4689 26.6776 9.42984 26.7415 9.41497 26.775C9.32941 26.8438 9.35793 26.7762 9.2823 26.8568L9.38335 26.7539C9.39637 26.7353 9.27982 26.7682 9.15769 26.8475C9.08453 26.9052 8.98348 27.0161 9.11491 26.9486C9.05353 26.9882 8.95868 27.0304 8.99712 26.9827C8.86259 27.08 9.03059 26.9951 8.91962 27.0862C8.86073 27.1029 8.69458 27.1798 8.58857 27.2176L8.69024 27.0998L8.60655 27.1531C8.6952 27.054 8.53711 27.1655 8.57803 27.0949C8.51851 27.1265 8.4559 27.181 8.40568 27.2238C8.60531 27.1686 8.26247 27.4117 8.33997 27.4272C8.11864 27.5846 8.12546 27.4048 7.93266 27.6287C7.97915 27.6156 7.88864 27.7223 8.02503 27.6181C7.87934 27.703 7.95746 27.726 7.77705 27.8128C7.88988 27.7154 7.61338 27.8494 7.77705 27.7092C7.77457 27.7322 7.88492 27.6578 7.90972 27.6355C7.83967 27.6547 7.89236 27.5809 7.74667 27.6733C7.6605 27.7334 7.53837 27.8103 7.57123 27.8239C7.59168 27.8481 7.70576 27.7359 7.66546 27.7985C7.49311 27.9188 7.43856 27.8965 7.39392 27.9901C7.50427 27.9163 7.54953 27.9262 7.55883 27.9454L7.43484 28.0378L7.4491 28.0043C7.23149 28.1221 7.40694 28.075 7.20111 28.1971L7.08394 28.2213C7.1137 28.1612 7.38772 28.0502 7.32138 28.0242C7.18809 28.1042 7.15958 28.1569 7.02753 28.2213C7.05295 28.1996 7.08952 28.1748 7.11432 28.1538C7.06596 28.1816 6.97855 28.1463 6.81302 28.3001C6.72437 28.3751 6.79814 28.3335 6.80682 28.3534C6.59728 28.4898 6.5452 28.5474 6.41005 28.6348C6.41625 28.5815 6.16517 28.7799 6.29474 28.6503C6.3772 28.6286 6.68407 28.4371 6.73801 28.3565C6.63448 28.3614 6.9085 28.2598 6.92771 28.1885C6.75661 28.2926 6.73863 28.2455 6.69461 28.235C6.64626 28.2622 6.6072 28.3019 6.58178 28.3236C6.57744 28.3621 6.63944 28.3236 6.65928 28.3478C6.46461 28.4575 6.2904 28.5852 6.20051 28.6739C6.1286 28.6999 6.13356 28.6615 6.20733 28.6131C5.98477 28.7588 5.73988 28.9027 5.51918 29.0254C5.68471 28.9839 5.2836 29.1804 5.40015 29.1581C5.52228 29.0979 5.64007 29.0682 5.58738 29.1258C5.51298 29.1668 5.5787 29.106 5.54274 29.1153C5.46401 29.194 5.37659 29.1643 5.30778 29.2554C5.50802 29.1172 5.31708 29.1792 5.33568 29.1234C5.19681 29.2319 5.32762 29.0961 5.17945 29.1847C5.04058 29.2932 4.86575 29.4178 4.7027 29.5238C4.47456 29.6168 4.1714 29.8375 3.98418 29.9485C3.87631 29.9888 3.92032 29.9126 3.80997 29.9684C3.68536 30.0421 3.92652 29.9547 3.73124 30.0458L3.74488 30.0279C3.69404 30.0694 3.38964 30.1996 3.36609 30.2858L3.39956 30.2114C3.36299 30.2275 3.33633 30.256 3.30967 30.2765C3.30037 30.2641 3.25325 30.2752 3.30471 30.2337C3.1739 30.2721 3.06603 30.3769 2.94204 30.4494L3.03627 30.4277C2.83355 30.5697 2.67608 30.6274 2.47397 30.7532L2.46653 30.7259L2.35122 30.8103C2.36796 30.77 2.24645 30.8189 2.19189 30.8753L2.47955 30.6354C2.57627 30.5988 2.39896 30.7197 2.46777 30.7117C2.52667 30.7055 2.71513 30.5895 2.73311 30.5493C2.6581 30.5883 2.65748 30.5957 2.6054 30.6367C2.56201 30.6174 2.67422 30.5554 2.71699 30.5015C2.67918 30.5245 2.61904 30.5455 2.61656 30.561C2.6829 30.5021 2.75729 30.4563 2.88252 30.3831C2.80503 30.4451 2.9408 30.3769 2.91352 30.4048C2.9067 30.3695 3.02139 30.292 3.18134 30.2114C3.31153 30.181 3.45908 30.0217 3.64382 29.9268C3.58865 29.9981 3.50929 30.0756 3.407 30.1512C3.52789 30.101 3.53161 30.0781 3.65312 30.0272C3.69466 29.9739 3.71388 29.9169 3.85275 29.8183L3.87321 29.8357C3.99968 29.747 3.98046 29.7148 4.15281 29.6218C4.44728 29.4619 4.74486 29.287 4.96556 29.1581L4.98664 29.1748C5.08088 29.0552 5.38403 28.9144 5.5353 28.7948C5.82668 28.646 6.1286 28.4079 6.2935 28.3565C6.77397 28.0397 7.19119 27.7582 7.7008 27.4495L7.6357 27.5338C7.71196 27.4544 7.70576 27.5146 7.79131 27.4538C7.67414 27.4935 7.8936 27.3441 7.94444 27.2858C8.18374 27.168 8.4559 26.9603 8.63878 26.8109L8.65986 26.8271C8.83407 26.6584 9.09569 26.5413 9.34801 26.3856C9.38211 26.3757 9.43976 26.3664 9.5123 26.3156C9.62451 26.1935 9.69642 26.1501 9.87993 26C10.0244 25.9064 10.2618 25.7601 10.4162 25.6764C10.6698 25.4731 10.9394 25.2883 11.2103 25.0999C11.4819 24.912 11.759 24.7267 12.0243 24.5196L12.0814 24.5165C12.5823 24.0949 13.2686 23.6777 13.6995 23.3249L13.6858 23.3975C13.8358 23.3076 13.9995 23.1526 13.9425 23.1501C14.0925 23.0596 14.281 22.8742 14.3944 22.8408C14.5432 22.7409 14.5556 22.6907 14.6703 22.5965C14.9673 22.3962 15.0733 22.3163 15.3337 22.1024L15.2655 22.1507C15.2431 22.1824 15.2531 22.2016 15.3219 22.1526C15.413 22.0646 15.6963 21.8804 15.5606 21.9096C15.7137 21.8135 15.8755 21.6802 16.0367 21.5469C16.196 21.4124 16.3553 21.2797 16.5066 21.1892C16.4731 21.1948 16.5401 21.1371 16.5624 21.1055C16.8098 20.9102 17.0844 20.7218 17.2611 20.5401C17.3051 20.5141 17.2177 20.6126 17.3175 20.532C17.3721 20.4787 17.3051 20.5141 17.3714 20.4477C17.5599 20.2748 17.7595 20.1111 17.9573 19.9536C18.1544 19.7955 18.3534 19.648 18.5215 19.4868C18.669 19.3424 18.8203 19.1992 18.9734 19.0566C19.0503 18.9859 19.1259 18.914 19.2009 18.8408C19.2759 18.7683 19.3516 18.6957 19.4266 18.6238C19.5016 18.5519 19.5772 18.48 19.6516 18.4087L19.7638 18.3021C19.7998 18.2655 19.8358 18.2289 19.8717 18.193C20.0149 18.0473 20.1563 17.9034 20.2939 17.7627L20.2964 17.7776C20.3739 17.6691 20.4867 17.5631 20.5927 17.4596C20.6993 17.3566 20.7998 17.2562 20.845 17.1558C20.8959 17.118 21.0099 16.9841 20.9963 17.0337C21.1073 16.8526 21.4005 16.6065 21.5617 16.3461C21.5437 16.3678 21.5363 16.3821 21.5195 16.4094C21.6256 16.2978 21.7099 16.18 21.7973 16.0622C21.8407 16.0033 21.8847 15.9432 21.9306 15.8836C21.9535 15.8539 21.9777 15.8235 22.0025 15.7931C22.0211 15.7696 22.067 15.7163 22.1066 15.684C22.0924 15.7014 22.0725 15.7237 22.0558 15.7491C22.0366 15.7758 22.0335 15.7882 22.0347 15.7962C22.0409 15.7906 22.0465 15.7851 22.0521 15.7789C22.0595 15.7708 22.0676 15.7621 22.0756 15.7535C22.0911 15.7349 22.106 15.7206 22.1215 15.7032C22.1525 15.671 22.1854 15.6375 22.2207 15.6109C22.2908 15.5557 22.3689 15.5241 22.4197 15.5414C22.5096 15.5197 22.4799 15.498 22.4216 15.5123C22.5939 15.472 22.783 15.4956 22.9417 15.5892C23.0205 15.6357 23.0893 15.697 23.1432 15.7665C23.1705 15.8012 23.194 15.8378 23.2157 15.8756C23.2374 15.9146 23.2542 15.95 23.2715 16.0002V16.0021L23.2728 16.0039C23.442 16.4267 23.6336 16.8594 23.8233 17.2792C24.0025 17.7788 23.7452 17.3486 23.9535 17.7137C23.9572 17.7497 23.9839 17.7274 23.9752 17.7373C24.0545 17.8787 24.0192 17.994 24.0942 18.0839C24.1072 18.0268 24.1438 18.1434 24.1649 18.1372C24.279 18.4416 24.2802 18.5135 24.416 18.7323L24.3905 18.723C24.4352 18.785 24.4767 18.8514 24.5164 18.9196C24.5573 18.9871 24.5964 19.0566 24.6348 19.1248C24.7123 19.2605 24.7855 19.3913 24.8729 19.4887C25.2603 20.2184 25.672 20.9146 26.1047 21.5909C26.5393 22.2661 26.9962 22.9201 27.4748 23.5655C27.5914 23.726 27.7067 23.8872 27.8288 24.0428C27.9503 24.1991 28.0681 24.3578 28.1927 24.5103C28.4444 24.8141 28.6955 25.1178 28.9472 25.4216C29.2094 25.7161 29.4729 26.0118 29.737 26.3088C29.8015 26.3844 29.8709 26.4563 29.9397 26.5282C30.0086 26.6008 30.0774 26.6727 30.1462 26.7452C30.2832 26.8909 30.4208 27.0378 30.5591 27.1848C30.6713 27.3398 30.7401 27.4154 30.8139 27.4923C30.8883 27.5679 30.9726 27.641 31.1301 27.7774C31.1127 27.7719 31.0922 27.7551 31.1071 27.7799C31.1499 27.765 31.3216 27.9795 31.3768 27.9783C31.4301 28.0304 31.4828 28.0825 31.5361 28.1327C31.5907 28.1816 31.6452 28.23 31.6992 28.2784C31.8083 28.3745 31.9162 28.4693 32.0246 28.5648C32.1331 28.6596 32.2423 28.7551 32.3532 28.8524C32.4648 28.9479 32.5826 29.0409 32.7004 29.1389C32.6229 29.0806 32.5634 29.075 32.6545 29.1463L32.7643 29.2033L32.7723 29.2244C32.8368 29.2703 32.9161 29.3093 32.8616 29.2473C34.0724 30.1996 35.2651 31.145 36.5596 31.9305C36.7096 32.0297 36.8969 32.1407 37.0884 32.251C37.1845 32.3056 37.2812 32.3626 37.3767 32.4135C37.4728 32.4643 37.5658 32.5133 37.652 32.5591C38.634 33.171 39.5546 33.6763 40.6476 34.1152C40.6476 34.1152 40.4653 34.1493 40.0096 33.972L40.0103 33.9726Z" fill="#1B1B1B"/>
<path d="M2.00942 30.8825C2.0557 30.88 2.18077 30.8231 2.09885 30.9C2.07758 30.89 2.00567 30.905 2.00942 30.8825Z" fill="#1B1B1B"/>
<path d="M5.24098 29.2447C5.2416 29.2373 5.28934 29.2255 5.30112 29.2224C5.26392 29.2466 5.23664 29.2825 5.20068 29.2918C5.2385 29.267 5.22796 29.2627 5.24098 29.2447Z" fill="#1B1B1B"/>
<path d="M6.04034 28.7764C6.03786 28.7993 5.87605 28.914 5.77686 28.9766L6.04034 28.7764Z" fill="#1B1B1B"/>
<path d="M6.8152 28.3893C6.88649 28.3632 6.87347 28.3812 6.78792 28.4333C6.77676 28.4289 6.80218 28.4072 6.8152 28.3893Z" fill="#1B1B1B"/>
<path d="M6.84581 28.3231C6.9071 28.285 6.94337 28.2749 6.97902 28.2656C6.96839 28.2537 6.84144 28.3619 6.84581 28.3231Z" fill="#1B1B1B"/>
<path d="M8.46118 27.3735C8.49837 27.3481 8.57277 27.2837 8.61926 27.2781C8.57215 27.2917 8.4463 27.4145 8.46118 27.3735Z" fill="#1B1B1B"/>
<path d="M9.17969 26.8827C9.20387 26.8684 9.21564 26.8653 9.24044 26.843C9.28818 26.8219 9.24974 26.8628 9.21378 26.8876L9.17969 26.8827Z" fill="#1B1B1B"/>
<path d="M21.4954 16.9497L21.4415 17.0272L21.4365 17.0049L21.4954 16.9497Z" fill="#1B1B1B"/>
<path d="M24.8672 20.2141C24.923 20.291 24.8839 20.2798 24.8895 20.2947C24.8467 20.2209 24.9242 20.3114 24.8672 20.2141Z" fill="#1B1B1B"/>
<path d="M26.9339 23.3443L26.916 23.3198L26.9538 23.3052L26.9339 23.3443Z" fill="#1B1B1B"/>
<path d="M39.0854 35.1582C39.3384 35.2617 38.9639 35.0689 39.2547 35.2183C39.215 35.2165 39.1623 35.2053 39.0854 35.1582Z" fill="#1B1B1B"/>
<path d="M24.1229 23.9444C23.338 24.3517 22.2246 24.684 21.3486 25.0901C21.2451 25.1347 21.3573 25.0312 21.1242 25.1354C20.281 25.5427 18.8948 26.0368 17.8149 26.397L17.8737 26.3585C17.6679 26.4273 17.4392 26.5687 17.2228 26.6456C17.2172 26.6375 17.286 26.6059 17.2315 26.6133C17.1881 26.6617 16.8502 26.7764 16.7671 26.8322C16.6785 26.8545 16.6785 26.8297 16.5644 26.8601L16.4541 26.9388C16.1428 27.1452 15.6258 27.2556 15.1763 27.4751C15.1962 27.4589 15.2396 27.4354 15.1999 27.4428C14.4721 27.7782 13.5366 28.1334 12.7095 28.475C12.7387 28.4509 12.7616 28.4192 12.7077 28.4261C12.6792 28.475 12.425 28.5835 12.2043 28.6771C12.0908 28.6827 11.8329 28.8569 11.5639 28.9406L11.5831 28.9245C11.4033 29.0355 11.288 29.0163 11.1473 29.1198L11.014 29.1415C10.947 29.2221 10.7245 29.2264 10.5738 29.3126L10.5825 29.3207C10.4362 29.3913 10.3481 29.3982 10.2117 29.4601H10.1962C9.87325 29.6003 9.67239 29.648 9.69471 29.6821C9.56824 29.6976 10.0072 29.5451 9.81002 29.5717C8.7468 30.0305 7.63213 30.4564 6.54721 30.8805C6.41826 30.9139 6.33766 30.94 6.30481 30.9369C6.19941 30.9865 5.89936 31.103 5.80822 31.1601C5.84418 31.1452 5.73073 31.1687 5.67307 31.1892C5.47035 31.2524 5.47345 31.3138 5.25027 31.382C5.33272 31.3386 5.3569 31.315 5.3228 31.3126C5.14921 31.4136 4.89999 31.5054 4.68487 31.6002C4.71649 31.581 4.76794 31.5562 4.75492 31.5481C4.52864 31.674 4.316 31.7112 4.11451 31.8135L4.18457 31.7614C4.09715 31.7881 4.04942 31.806 4.02276 31.8197C3.99486 31.8339 3.98432 31.8445 3.97502 31.8556C3.95642 31.8773 3.93721 31.9009 3.78098 31.953C3.86095 31.9139 3.83801 31.9133 3.85537 31.8966C3.78346 31.9356 3.69418 31.9778 3.59809 32.0206C3.54973 32.0416 3.50014 32.0627 3.4493 32.0844C3.39971 32.1049 3.34391 32.1297 3.30051 32.1445C3.12569 32.2078 2.95024 32.271 2.81695 32.3194C2.83617 32.3113 2.84051 32.307 2.84051 32.307C2.80579 32.3194 2.77107 32.3318 2.73574 32.3442L2.7097 32.3535L2.69668 32.3578C2.69234 32.3578 2.68738 32.3541 2.68242 32.3522L2.62601 32.3262C2.55099 32.2909 2.47474 32.2555 2.39786 32.2196C2.25837 32.1842 2.39786 32.1464 2.4425 32.1098C2.50201 32.0732 2.55719 32.036 2.60245 32.0026C2.65266 31.9734 2.69234 31.961 2.73574 31.9455C2.75806 31.9375 2.78161 31.9288 2.81137 31.9158C2.84299 31.9021 2.87957 31.8848 2.92234 31.8618C2.94838 31.8476 2.97876 31.8302 3.0141 31.8091C2.82439 31.8631 3.4803 31.5227 3.15235 31.6486C3.31043 31.5624 3.5144 31.4514 3.70534 31.3479C3.74936 31.3231 3.79214 31.2995 3.83305 31.276C3.86839 31.2555 3.90249 31.2357 3.93473 31.2177C3.99858 31.1805 4.05314 31.1464 4.09219 31.1191C3.98928 31.1991 4.2416 31.0974 4.03702 31.2208L4.20689 31.1545C4.19325 31.1842 4.04322 31.2419 4.10459 31.2338C4.20751 31.1725 4.49888 30.9803 4.59498 30.9332C4.77166 30.7974 4.91983 30.648 5.22547 30.4601C5.0897 30.5612 5.33396 30.4545 5.23911 30.5203L5.62348 30.188C5.72453 30.1247 5.66439 30.2059 5.80636 30.1068C5.7921 30.1012 5.85286 30.0559 5.89316 30.0206C5.93407 30.002 6.31101 29.754 6.37858 29.7658C6.43252 29.754 6.21739 29.8749 6.3389 29.8197C6.52675 29.705 6.52737 29.687 6.71459 29.5711L6.72141 29.5742C6.84912 29.5035 7.07665 29.3331 6.92848 29.3951C6.84168 29.4465 6.97559 29.3982 6.84106 29.4651C6.91422 29.3889 7.12872 29.2494 7.31595 29.1328C7.25581 29.1787 7.27007 29.1843 7.25085 29.2109C7.48334 29.0237 7.74372 28.8489 8.01588 28.661C8.00906 28.6399 7.9328 28.7602 7.88507 28.7757C8.25952 28.5749 8.60235 28.2742 8.92225 28.1198C8.87575 28.1545 8.87947 28.1111 8.88629 28.1136C9.05926 28.0057 9.06856 28.0367 9.17395 27.9549C9.19503 27.9636 9.31158 27.8594 9.42317 27.7813C9.47524 27.7317 9.45789 27.7695 9.35869 27.8359C9.51058 27.7199 10.1343 27.2798 10.5155 27.0578C10.5019 27.0522 10.7164 26.8706 10.8007 26.816L10.7833 26.8613C10.8695 26.8241 11.0642 26.671 11.0921 26.6821C11.2533 26.5333 10.4151 27.1682 10.6439 26.9841C10.7201 26.9617 10.9576 26.7206 10.9266 26.7875C11.0958 26.6747 11.2403 26.5364 11.4163 26.4497C11.3673 26.4776 11.3016 26.5749 11.4368 26.4813C11.673 26.3145 11.4975 26.4236 11.686 26.2841L11.8013 26.1918C11.7939 26.1639 12.0164 26.0492 11.9104 26.0845C11.9526 26.0833 12.2477 25.8334 12.2489 25.888L12.2365 25.9407C12.3376 25.8675 12.3828 25.7925 12.4547 25.7237C12.4702 25.7175 12.5012 25.7045 12.4994 25.7125C12.4839 25.6555 12.748 25.547 12.8434 25.4255C13.0679 25.2891 13.3871 25.0411 13.508 24.9977C13.6618 24.8669 13.7982 24.7417 13.991 24.6158C13.9569 24.6468 13.9073 24.6853 13.9036 24.7026C14.0294 24.6307 14.0499 24.5979 14.1509 24.5135C14.1317 24.5371 14.4039 24.3703 14.5427 24.2891C14.6934 24.1558 14.6202 24.1732 14.6258 24.1465C14.8044 24.0796 15.0579 23.7814 15.2687 23.6803C15.2191 23.7293 15.0523 23.8781 15.1937 23.7894C15.3716 23.7206 15.4615 23.5322 15.7107 23.3722L15.6258 23.3809C15.7467 23.3226 15.9531 23.0951 15.9575 23.1496C16.0244 23.0753 16.2383 22.9444 16.1856 22.9302C16.3859 22.7932 16.6146 22.6072 16.8229 22.4342C17.0312 22.2613 17.2247 22.1069 17.3648 22.0418C17.4137 21.9922 17.5514 21.8868 17.5092 21.8918C17.4057 21.9476 17.397 22.0083 17.353 22.0232C17.4001 21.9823 17.4026 21.9643 17.4038 21.9556C17.5266 21.8676 17.6165 21.7907 17.5334 21.9122C17.8049 21.7138 17.746 21.6295 18.0796 21.3642C18.0771 21.3902 18.1062 21.3747 18.1986 21.291L18.353 21.1094C18.5619 20.9302 18.4968 21.035 18.5222 21.0536C18.6276 20.9507 18.7628 20.831 18.7962 20.769C18.8489 20.738 18.9029 20.7089 18.9543 20.6767C18.8409 20.7461 19.0293 20.5793 19.074 20.526L19.0293 20.5793C19.0579 20.57 19.1756 20.4467 19.2352 20.3847C19.2073 20.3847 19.0765 20.4987 19.0039 20.5601C19.0492 20.4981 19.136 20.42 19.1967 20.3394C19.1936 20.384 19.3852 20.1894 19.472 20.1113C19.5743 20.0238 19.5606 19.986 19.5892 19.9594C19.6028 19.968 19.7441 19.8056 19.6865 19.8955C19.658 19.9315 19.6028 19.9587 19.5594 20.0226C19.6295 19.968 19.6419 19.9947 19.7565 19.8503C19.8427 19.7411 19.689 19.8335 19.8867 19.6606C19.844 19.7151 19.8433 19.7325 19.8142 19.7777L19.9977 19.6141L19.9853 19.5874C20.0138 19.5688 19.9989 19.5868 20.0126 19.5781C20.0275 19.5421 20.0919 19.4739 20.1539 19.407C20.2134 19.3382 20.2717 19.27 20.2785 19.2384C20.3598 19.1454 20.4683 19.0598 20.5507 18.9749L20.5371 18.9929C20.5916 18.9451 20.6499 18.8844 20.7026 18.8224C20.754 18.7598 20.7981 18.6947 20.8303 18.6426V18.6513C20.883 18.593 20.9995 18.4479 21.0504 18.3624C21.1936 18.2235 21.1762 18.3791 21.2878 18.1857C21.41 18.0239 21.441 17.9024 21.3777 17.9563C21.4366 17.8869 21.4943 17.8131 21.5513 17.7368C21.5798 17.6984 21.6077 17.66 21.6362 17.6215C21.6505 17.6023 21.6617 17.5849 21.6871 17.5558C21.7094 17.5304 21.7299 17.5093 21.754 17.4882C21.8483 17.4058 21.9661 17.3506 22.0869 17.3339C22.2078 17.3159 22.33 17.3376 22.4279 17.389C22.4614 17.3977 22.4695 17.3965 22.4856 17.3996C22.5005 17.4045 22.5265 17.4107 22.5872 17.4517C22.6443 17.4969 22.6933 17.5502 22.7329 17.6079C22.7528 17.637 22.7714 17.6668 22.7869 17.6978C22.8036 17.73 22.8166 17.7585 22.8309 17.8001V17.8019L22.8321 17.8038C22.9884 18.2043 23.1731 18.6091 23.2642 18.9346C23.1929 18.797 23.2345 18.9358 23.2215 18.9451C23.2946 19.053 23.2587 19.0964 23.3157 19.1218C23.3337 19.1001 23.3498 19.1069 23.2996 18.965C23.4353 19.2526 23.6337 19.6928 23.6883 19.8627C23.6616 19.7777 23.6976 19.8366 23.7335 19.8961C23.687 19.8918 23.7807 20.1075 23.8712 20.2613L23.904 20.2737L23.9313 20.3884C23.9679 20.4467 24.01 20.4336 24.0677 20.6016C24.0634 20.614 24.0596 20.6271 24.0677 20.6593C24.1663 20.8155 24.3157 21.0288 24.3895 21.2154C24.4037 21.2693 24.4198 21.322 24.4347 21.376C24.4787 21.4491 24.5649 21.565 24.5029 21.4287C24.6436 21.7386 24.7515 21.9296 24.7763 22.0393C25.1278 22.5136 25.5692 23.2371 25.9418 23.8062L25.9158 23.7994C26.002 23.9612 25.9945 23.8607 26.0553 23.9736C26.0075 23.9339 26.1024 24.11 26.0038 24.0027C26.1352 24.2302 26.2177 24.2649 26.3218 24.3995C26.3559 24.4069 26.2313 24.2959 26.2753 24.3059C26.2983 24.3251 26.4669 24.6134 26.5202 24.6251C26.5469 24.6865 26.4954 24.6605 26.4632 24.64L26.5704 24.7603C26.6498 24.9444 26.2506 24.4404 26.3274 24.6375L26.4179 24.7553C26.4688 24.8923 26.1569 24.4608 26.3609 24.7708C26.4688 24.8923 26.5921 24.9729 26.5215 24.8471C26.7261 25.1118 26.6814 24.9227 26.8922 25.2128C26.9337 25.3046 26.7168 24.9847 26.7341 25.0579C26.811 25.2116 26.9499 25.3213 27.0323 25.4472C26.9424 25.3058 27.0565 25.3964 27.1272 25.4782C27.2251 25.6332 27.028 25.405 27.1823 25.6121C27.2251 25.6332 27.3832 25.8111 27.2685 25.64C27.3634 25.6846 27.4229 25.8607 27.5419 25.9456C27.5698 26.0312 27.3125 25.7882 27.4805 26.0175C27.4768 25.963 27.7378 26.2606 27.6789 26.1149C27.7428 26.2066 27.7304 26.2314 27.6634 26.1812C27.7496 26.317 27.9536 26.4416 27.9387 26.5228L27.9982 26.5439C28.0218 26.5891 28.0608 26.6493 28.0993 26.7237C28.1848 26.8359 28.4309 27.0337 28.3838 27.0578C28.4179 27.0882 28.6293 27.3281 28.5729 27.2128C28.4557 27.051 28.4018 27.0591 28.3627 26.9462C28.4278 27.0758 28.5574 27.1564 28.6436 27.2333L28.6417 27.2599C28.6925 27.3058 28.7948 27.4261 28.8382 27.4441C28.7955 27.4124 28.8035 27.4416 28.837 27.485L28.9064 27.5185C29.0044 27.617 29.0056 27.6375 29.0062 27.6586C29.0062 27.679 29.0044 27.7007 29.1023 27.7943C29.049 27.7509 28.9957 27.7063 28.9455 27.6598C28.9622 27.6747 28.9808 27.7044 29.0075 27.741C29.0348 27.777 29.0701 27.8198 29.1191 27.8631C29.1736 27.8811 29.2623 27.927 29.3075 27.9437C29.4216 28.0448 29.3336 28.0132 29.4576 28.1018L29.2976 27.9828C29.271 27.9673 29.3584 28.1086 29.501 28.2543C29.5983 28.3418 29.7663 28.4595 29.6336 28.3021C29.7049 28.3752 29.793 28.4893 29.7229 28.4447C29.8909 28.604 29.7217 28.4031 29.8729 28.5339C29.9194 28.6028 30.0856 28.7962 30.1792 28.9208L29.9975 28.8086L30.098 28.9047C29.943 28.8061 30.1451 28.9871 30.0459 28.9443C30.1104 29.0144 30.2028 29.0845 30.2759 29.1409C30.1166 28.9059 30.5574 29.2959 30.5363 29.2004C30.6776 29.3269 30.7 29.3895 30.7297 29.4484C30.7588 29.5073 30.796 29.5612 30.9734 29.6604C30.9343 29.6065 31.1017 29.6994 30.9126 29.5525C31.0849 29.7137 31.0688 29.6176 31.2616 29.8191C31.0924 29.6994 31.3906 30.0076 31.1463 29.8346C31.1736 29.8346 31.031 29.7137 30.9932 29.6877C31.0521 29.7683 30.9417 29.7156 31.1228 29.8761C31.2368 29.9704 31.3887 30.1037 31.3856 30.0627C31.4011 30.0348 31.2145 29.9158 31.3063 29.9542C31.5319 30.1427 31.5437 30.2047 31.672 30.2413C31.5264 30.1266 31.5115 30.072 31.5276 30.0578L31.7024 30.1849L31.6565 30.1743C31.9132 30.4056 31.7595 30.2103 32.0136 30.4273L32.1085 30.5587C32.0248 30.5351 31.7427 30.2363 31.752 30.3188C31.9188 30.4595 31.9932 30.4824 32.142 30.625C32.1035 30.5996 32.0546 30.5612 32.0161 30.5364C32.0459 30.5618 32.0632 30.6021 32.1072 30.656C32.1519 30.7094 32.2195 30.7806 32.3577 30.8569C32.496 30.9412 32.4042 30.8668 32.4203 30.8519C32.7018 31.0602 32.7979 31.1061 32.9783 31.2413C32.9473 31.2438 33.0254 31.3057 33.0837 31.3516C33.1426 31.3969 33.1816 31.4266 33.0682 31.3702C32.9919 31.2803 32.5902 30.9741 32.4668 30.9301C32.5381 31.046 32.2511 30.7596 32.1643 30.7478C32.3825 30.9257 32.3441 30.9524 32.3596 31.0063C32.4203 31.0559 32.4885 31.0912 32.5288 31.116C32.5735 31.1123 32.4922 31.0503 32.5071 31.0218C32.752 31.2183 32.9987 31.3938 33.1568 31.47C33.2331 31.5432 33.1884 31.5481 33.0855 31.4781C33.2399 31.5835 33.3974 31.6957 33.5517 31.8079C33.7061 31.9201 33.8561 32.0348 34.0018 32.1359C33.84 31.9672 34.3366 32.3473 34.23 32.2258C34.0787 32.1104 33.9634 31.9902 34.0626 32.0305C34.1593 32.0993 34.0471 32.046 34.0824 32.0825C34.2225 32.1445 34.2529 32.2493 34.3992 32.2971C34.1078 32.1204 34.3106 32.3101 34.2368 32.3076C34.4531 32.4272 34.2126 32.3243 34.4147 32.4607C34.6286 32.5835 34.8952 32.7254 35.1295 32.8649C35.1971 32.9182 35.2764 32.974 35.362 33.0305C35.4482 33.0856 35.5418 33.1383 35.6335 33.191C35.8183 33.2952 36.0018 33.3931 36.1338 33.4706C36.2634 33.5661 36.1475 33.5512 36.2956 33.6423C36.4742 33.7409 36.1865 33.5277 36.4407 33.6919L36.411 33.6851C36.4959 33.7198 36.8796 33.9827 36.9906 33.9653L36.8858 33.9641C36.9336 33.9939 36.985 34.0087 37.029 34.0261C37.0235 34.041 37.0755 34.0838 36.9894 34.0497C37.1394 34.165 37.339 34.2282 37.5194 34.32C37.4847 34.2927 37.4506 34.2629 37.4165 34.235C37.5752 34.3063 37.7054 34.3696 37.8325 34.4365C37.9602 34.5022 38.0836 34.5723 38.238 34.638L38.2169 34.6585L38.4047 34.7285C38.3495 34.7316 38.5083 34.8252 38.613 34.85L38.1133 34.6894C37.99 34.612 38.2702 34.7273 38.2001 34.6634C38.14 34.6107 37.8592 34.4774 37.8021 34.4793C37.9075 34.5351 37.9156 34.532 38.0024 34.5642C38.021 34.6163 37.8598 34.5345 37.768 34.5171C37.8244 34.5438 37.8995 34.5934 37.9162 34.5884C37.7984 34.5506 37.6856 34.4979 37.5021 34.408C37.6329 34.4563 37.445 34.3534 37.4971 34.3671C37.4667 34.3906 37.2894 34.3082 37.07 34.1823C36.9993 34.1228 36.8914 34.0738 36.7693 34.0199C36.649 33.9641 36.5139 33.904 36.3886 33.8277C36.5089 33.8556 36.6546 33.9064 36.817 33.9796C36.6645 33.8761 36.6379 33.881 36.4854 33.7769C36.3955 33.7558 36.3211 33.7589 36.1035 33.6554L36.1047 33.6275C35.91 33.5295 35.8921 33.5605 35.6571 33.4136C35.556 33.351 35.455 33.2877 35.3546 33.2257C35.2541 33.1637 35.1568 33.0986 35.0613 33.0379C34.8704 32.9158 34.6918 32.8011 34.5393 32.7031L34.5418 32.6746C34.3453 32.607 33.9739 32.3163 33.7359 32.1848C33.5555 32.0404 33.3484 31.899 33.1655 31.7719C33.0744 31.7081 32.9882 31.6492 32.9163 31.5934C32.845 31.5364 32.7861 31.4843 32.7458 31.4397C32.4185 31.1979 32.1054 30.9784 31.8084 30.7329C31.6584 30.6114 31.5078 30.4899 31.354 30.3653C31.2009 30.2394 31.0527 30.1006 30.8952 29.9604L31.0254 30.0268C30.8946 29.9468 30.9659 29.9462 30.8518 29.852C30.9597 29.9865 30.6727 29.7441 30.5797 29.6908C30.4464 29.5581 30.2939 29.4068 30.137 29.2686C29.9808 29.1291 29.8233 28.9989 29.6938 28.8923L29.7018 28.8656C29.6671 28.8408 29.6324 28.8142 29.5989 28.7856C29.5661 28.7565 29.5332 28.7255 29.5003 28.6939C29.4346 28.63 29.3689 28.5612 29.3032 28.4887C29.1711 28.3449 29.0366 28.1886 28.8934 28.0355C28.868 27.9933 28.8302 27.9245 28.7459 27.8328C28.5642 27.6908 28.4867 27.6003 28.2449 27.3678C28.1637 27.2767 28.0583 27.1558 27.9548 27.033C27.8562 26.9059 27.7589 26.7776 27.6857 26.6772C27.0478 26.0126 26.5078 25.242 25.9393 24.4751L25.9251 24.4013C25.6368 24.0374 25.3547 23.6047 25.0937 23.1788C24.8358 22.751 24.5965 22.3319 24.3926 21.9934L24.4738 22.0356C24.3653 21.813 24.1917 21.5464 24.1898 21.619C24.0838 21.3939 23.8792 21.0809 23.8451 20.9215C23.741 20.6897 23.6839 20.6543 23.5866 20.4665C23.4843 20.2334 23.4136 20.0741 23.343 19.9185C23.2704 19.7635 23.1998 19.6122 23.0981 19.3952L23.1433 19.5049C23.175 19.5483 23.1967 19.544 23.1508 19.4336C23.0652 19.2762 22.904 18.8242 22.9177 19.0115C22.8049 18.6816 22.6275 18.3004 22.485 17.929L22.4819 17.9197L22.4788 17.9104C22.4769 17.9048 22.4695 17.8869 22.4633 17.8745C22.4564 17.8608 22.4496 17.8478 22.4416 17.8348C22.4261 17.8094 22.4093 17.7864 22.3907 17.7672C22.3548 17.7282 22.3157 17.7015 22.2711 17.6817C22.281 17.6934 22.268 17.6941 22.2481 17.6941C22.2283 17.6947 22.2029 17.6959 22.188 17.7021C22.1248 17.7021 22.0597 17.7251 22.0051 17.7641C21.9921 17.774 21.9785 17.7858 21.9679 17.7964L21.9611 17.8032L21.9574 17.8069L21.9506 17.815L21.9239 17.8478C21.8886 17.8912 21.8538 17.9346 21.8197 17.9774C21.6815 18.1479 21.5581 18.3146 21.4546 18.4622C21.4019 18.5118 21.5067 18.3574 21.387 18.4963C21.3219 18.5831 21.4019 18.5118 21.3225 18.6203C21.2103 18.7647 21.0932 18.9073 20.9723 19.0462C20.847 19.1801 20.72 19.3121 20.5941 19.4411C20.5309 19.5056 20.4683 19.57 20.4056 19.6339C20.3418 19.6959 20.2779 19.7566 20.2147 19.8174C20.0888 19.9389 19.9673 20.0586 19.8526 20.1782C19.0386 21.0306 18.1044 21.8285 17.2402 22.5477L17.2426 22.5303C16.9841 22.8099 16.5266 23.0492 16.3356 23.2922C16.2594 23.3394 16.0653 23.4993 16.1032 23.4398C15.9947 23.5446 15.8236 23.6667 15.6407 23.8C15.5489 23.8663 15.4541 23.9357 15.3623 24.007C15.2693 24.0771 15.1801 24.149 15.0995 24.2222C15.1317 24.1992 15.1484 24.1837 15.1825 24.1521C14.8168 24.3933 14.5303 24.6549 14.1416 24.9054C14.1763 24.8737 14.2427 24.8204 14.247 24.8024C14.0896 24.8886 13.9358 25.0926 13.8224 25.1031C13.7405 25.1639 13.7808 25.1695 13.8304 25.1316C12.9972 25.7032 12.1336 26.3498 11.2688 26.9481C10.6222 27.3368 11.1758 26.8917 10.7052 27.2575C10.6587 27.2748 10.6885 27.2953 10.6749 27.2903C10.4926 27.4317 10.3407 27.4341 10.2241 27.5464C10.2992 27.5402 10.1467 27.6214 10.1541 27.6418C9.75608 27.8743 9.66185 27.8985 9.37047 28.1173L9.38349 28.0869C9.21858 28.2246 9.02888 28.3541 8.84661 28.4794C8.66311 28.604 8.48766 28.7249 8.35189 28.847C7.45544 29.418 6.57201 29.9716 5.68857 30.5116C5.24717 30.7819 4.80452 31.0478 4.36125 31.3119L4.02834 31.5085L3.9868 31.5333L3.9682 31.5444H3.96696L3.96262 31.5488L3.95518 31.555C3.94589 31.5624 3.94093 31.5667 3.93845 31.5698C3.93721 31.5723 3.93349 31.5736 3.93659 31.5748C3.93535 31.5773 3.93659 31.5829 3.93845 31.5829C3.94093 31.5829 3.94403 31.5816 3.94836 31.5804C3.95642 31.5779 3.96696 31.5736 3.97626 31.5698C4.46355 31.3789 4.95021 31.188 5.43811 30.997C6.48397 30.5878 7.53417 30.1793 8.60979 29.7776C9.12869 29.6282 9.16589 29.6127 9.70897 29.3789C9.68975 29.3951 9.65565 29.4099 9.69533 29.4031C9.70835 29.3548 10.0816 29.2481 10.12 29.1917C10.9135 28.8904 11.6376 28.5959 12.451 28.2785C12.3239 28.3331 12.2712 28.3889 12.4231 28.3269L12.5738 28.2401H12.6041C12.7064 28.1942 12.8131 28.131 12.7002 28.1607C14.7312 27.3312 16.7715 26.6232 18.7696 25.8328C19.2513 25.6629 19.9221 25.3846 20.4354 25.1757C21.9859 24.6295 23.3814 24.1317 24.9226 23.49C24.9226 23.49 24.7577 23.6673 24.1247 23.9401L24.1229 23.9444Z" fill="#1B1B1B"/>
<path d="M38.7849 35.0311C38.7386 34.9892 38.5691 34.8967 38.7199 34.9373C38.7292 34.9624 38.8112 35.023 38.7849 35.0311Z" fill="#1B1B1B"/>
<path d="M34.4323 32.3758C34.4235 32.3771 34.3766 32.3283 34.3647 32.3164C34.4179 32.3502 34.4767 32.3689 34.5123 32.4058C34.4586 32.3714 34.4611 32.3852 34.4323 32.3758Z" fill="#1B1B1B"/>
<path d="M33.373 31.629C33.3997 31.6259 33.6334 31.7759 33.7673 31.8701L33.373 31.629Z" fill="#1B1B1B"/>
<path d="M32.4527 30.8396C32.3796 30.7639 32.4075 30.7751 32.5184 30.8606C32.5203 30.8743 32.4806 30.8501 32.4527 30.8396Z" fill="#1B1B1B"/>
<path d="M32.3613 30.823C32.28 30.7623 32.2487 30.721 32.2174 30.6816C32.2143 30.6891 32.2606 30.7248 32.3031 30.7579C32.3463 30.7905 32.3844 30.8211 32.3619 30.823H32.3613Z" fill="#1B1B1B"/>
<path d="M30.4141 29.0651C30.3676 29.0223 30.2585 28.9392 30.23 28.884C30.2678 28.9398 30.4674 29.0787 30.4141 29.0651Z" fill="#1B1B1B"/>
<path d="M29.5267 28.2333C29.5 28.2042 29.4913 28.1906 29.456 28.1608C29.412 28.1032 29.474 28.1484 29.518 28.1912L29.5267 28.2327V28.2333Z" fill="#1B1B1B"/>
<path d="M15.4639 23.5219L15.5631 23.4338L15.5587 23.4599L15.4639 23.5219Z" fill="#1B1B1B"/>
<path d="M7.40461 29.0337C7.2986 29.1137 7.3172 29.0678 7.29736 29.0771C7.3978 29.0126 7.27194 29.1192 7.40461 29.0337Z" fill="#1B1B1B"/>
<path d="M2.7627 31.8922L2.80237 31.8692L2.93194 31.8389L2.7627 31.8922Z" fill="#1B1B1B"/>
<path d="M8.3113 3.5813H7.90527V4.91948H8.3113V3.5813Z" fill="black"/>
<path d="M9.93075 5.21606H8.60303V5.62529H9.93075V5.21606Z" fill="black"/>
<path d="M8.3113 5.92456H7.90527V7.26274H8.3113V5.92456Z" fill="black"/>
<path d="M7.60848 5.21606H6.28076V5.62529H7.60848V5.21606Z" fill="black"/>
<path d="M16.1668 9.71362H15.7607V10.8144H16.1668V9.71362Z" fill="black"/>
<path d="M17.4662 11.0229H16.374V11.4322H17.4662V11.0229Z" fill="black"/>
<path d="M16.1668 11.6396H15.7607V12.7405H16.1668V11.6396Z" fill="black"/>
<path d="M15.5532 11.0229H14.4609V11.4322H15.5532V11.0229Z" fill="black"/>
<g clip-path="url(#clip1_5217_69385)">
<path d="M26.7009 12.8661C26.6115 12.7061 26.7268 12.9626 26.6382 12.7642C26.6562 12.7814 26.679 12.8096 26.7001 12.8661H26.7009Z" fill="black"/>
<path d="M61.5277 33.5711C61.6602 33.4981 61.8037 33.4236 61.9449 33.3311C62.0147 33.284 62.0845 33.233 62.1426 33.1679C62.17 33.1342 62.1959 33.0981 62.21 33.0558C62.2249 33.0142 62.2225 32.9664 62.2045 32.9256C62.1669 32.8433 62.09 32.7876 62.0155 32.7421C61.9386 32.6966 61.8571 32.6621 61.7747 32.6323C61.6092 32.5727 61.4414 32.5319 61.2806 32.5044C61.2053 32.4895 61.3073 32.4762 61.1363 32.4472C60.5065 32.3594 59.5184 32.2229 58.7498 32.1256L58.7968 32.1201C58.6502 32.1013 58.469 32.1178 58.3137 32.1021C58.3129 32.0958 58.3639 32.0974 58.3286 32.0856C58.2878 32.1013 58.0463 32.0739 57.9796 32.0841C57.9184 32.0731 57.9255 32.0582 57.8463 32.0456L57.7561 32.0613C57.5051 32.0958 57.1546 32.0221 56.815 32.0315C56.8314 32.0276 56.8652 32.0253 56.8385 32.019C56.2942 32.0221 55.615 31.99 55.0064 31.9829C55.0307 31.9758 55.0535 31.9633 55.0182 31.9539C54.9876 31.9751 54.7994 31.9751 54.637 31.9751C54.5641 31.95 54.357 31.9884 54.1665 31.9711L54.1829 31.9664C54.041 31.9868 53.9735 31.9476 53.8582 31.9743L53.7688 31.9547C53.7061 31.9853 53.5649 31.9335 53.4481 31.9476L53.452 31.9547C53.3422 31.9602 53.2849 31.9437 53.183 31.9468L53.1736 31.9429C52.9344 31.9476 52.7955 31.9272 52.801 31.9523C52.7179 31.9311 53.0324 31.9468 52.9014 31.9155C52.1148 31.9296 51.3038 31.9178 50.5125 31.917C50.4223 31.9068 50.3651 31.9037 50.3455 31.8943C50.2662 31.899 50.0474 31.899 49.9761 31.9123C50.0027 31.9123 49.9251 31.8998 49.8827 31.8982C49.7384 31.8896 49.7259 31.9264 49.5675 31.9162C49.6302 31.9092 49.6514 31.9013 49.6302 31.8919C49.5628 31.9021 49.4843 31.9068 49.402 31.91C49.3612 31.9115 49.3196 31.9123 49.2781 31.9139C49.2357 31.9178 49.1934 31.9084 49.1541 31.906C49.1792 31.9053 49.2177 31.9076 49.213 31.899C49.0373 31.899 48.8985 31.8527 48.7448 31.8472L48.8036 31.8402C48.562 31.79 48.7275 31.8606 48.5181 31.819C48.5691 31.8221 48.5526 31.8135 48.562 31.8096C48.4624 31.808 48.333 31.7931 48.2044 31.7759C48.0758 31.7562 47.9479 31.7343 47.8491 31.7217C47.8609 31.7217 47.8585 31.717 47.8585 31.717C47.6444 31.6849 47.4256 31.6315 47.1903 31.5963C47.1072 31.5719 47.2248 31.5672 47.0013 31.5241C47.0021 31.539 46.9072 31.5217 46.8264 31.5076C46.7464 31.4927 46.6821 31.481 46.7441 31.5131C46.65 31.488 46.5276 31.4551 46.4139 31.4245C46.3002 31.3931 46.1943 31.3633 46.13 31.3516C46.2178 31.3633 46.0476 31.2927 46.2045 31.332L46.0908 31.2833C46.1112 31.2763 46.2115 31.3202 46.1778 31.2951C46.1386 31.2857 46.061 31.2676 45.9849 31.2488C45.9096 31.2284 45.8351 31.208 45.8006 31.1955C45.6516 31.1712 45.5096 31.1594 45.2767 31.0865C45.3896 31.1116 45.2249 31.0355 45.301 31.0551C45.1881 31.0363 45.0751 31.0135 44.9614 30.9924C44.8845 30.9657 44.9528 30.9657 44.8406 30.9296C44.8438 30.939 44.7944 30.9241 44.7583 30.9171C44.7449 30.91 44.6649 30.8802 44.5865 30.8473C44.5089 30.812 44.432 30.7728 44.4218 30.7524C44.3936 30.7281 44.5457 30.8002 44.4673 30.7547C44.3301 30.6943 44.3191 30.7022 44.1842 30.6363V30.6316C44.1395 30.6081 44.0728 30.579 44.0273 30.5634C43.9834 30.5461 43.9607 30.543 44.0046 30.5759C44.0658 30.6081 43.9889 30.5492 44.0767 30.6018C44.0062 30.5877 43.8493 30.5077 43.7168 30.4355C43.7638 30.4575 43.7622 30.4473 43.7842 30.4504C43.6901 30.4112 43.5968 30.3634 43.5011 30.314C43.4085 30.2598 43.3105 30.2065 43.2156 30.1438C43.2054 30.1532 43.2987 30.1728 43.323 30.1955C43.0917 30.0199 42.8188 29.8622 42.6595 29.674C42.6901 29.6999 42.6619 29.703 42.6627 29.6983C42.5623 29.5987 42.5796 29.5909 42.5105 29.5297C42.5129 29.5148 42.4282 29.4489 42.3631 29.3799C42.3262 29.3469 42.3505 29.3587 42.407 29.4183C42.3592 29.3728 42.2455 29.252 42.1333 29.1015C42.0227 28.9493 41.9137 28.7689 41.8572 28.6254C41.851 28.6356 41.7529 28.4646 41.7286 28.3972L41.7545 28.4168C41.7419 28.3525 41.6737 28.1933 41.6878 28.1768C41.6565 28.107 41.6988 28.2466 41.7529 28.3744C41.8078 28.5015 41.8674 28.6191 41.8188 28.5289C41.8157 28.5015 41.7796 28.4403 41.7537 28.387C41.7286 28.3337 41.7082 28.2905 41.727 28.3078C41.6784 28.1752 41.6251 28.045 41.6125 27.9094C41.6188 27.9486 41.6627 28.016 41.6361 27.9054C41.6 27.7086 41.6149 27.8513 41.5867 27.6906L41.5671 27.5894C41.5482 27.5839 41.5569 27.409 41.542 27.4859C41.5506 27.4608 41.5239 27.1918 41.5561 27.2129L41.578 27.2412C41.5796 27.1549 41.5569 27.0992 41.5529 27.0302C41.5561 27.0192 41.5623 26.9965 41.5655 27.0012C41.531 26.9839 41.5867 26.7949 41.5788 26.6898C41.6172 26.511 41.6769 26.2365 41.7231 26.1604C41.7529 26.024 41.7819 25.8985 41.847 25.7526C41.8392 25.7832 41.8243 25.8248 41.8282 25.8357C41.8721 25.7455 41.8737 25.7204 41.9027 25.6342C41.8988 25.6546 42 25.4593 42.0604 25.366C42.1121 25.2381 42.0745 25.2718 42.0698 25.2546C42.156 25.1573 42.2353 24.8993 42.3474 24.7817C42.3254 24.8248 42.258 24.9621 42.3239 24.8687C42.4188 24.7801 42.4352 24.6389 42.567 24.4821L42.5145 24.5064C42.5796 24.4421 42.6807 24.2539 42.6917 24.2891C42.7278 24.2295 42.8399 24.1088 42.8054 24.1095C42.8321 24.079 42.8595 24.046 42.8862 24.0115C42.9113 23.9754 42.938 23.9378 42.9639 23.9001C42.9897 23.8617 43.0156 23.8233 43.0415 23.7841C43.065 23.7441 43.0893 23.7049 43.1121 23.6656C43.1607 23.5888 43.2015 23.5127 43.2399 23.4468C43.2595 23.4139 43.2783 23.3841 43.2972 23.3566C43.3136 23.3292 43.3301 23.3049 43.3458 23.2845C43.3607 23.2406 43.4132 23.137 43.3897 23.1527C43.3434 23.2163 43.3552 23.2547 43.334 23.2766C43.3505 23.2382 43.3474 23.2272 43.3458 23.2217C43.3952 23.1339 43.4211 23.0594 43.4101 23.1574C43.505 22.9535 43.4532 22.9269 43.5317 22.6594C43.5403 22.6743 43.5489 22.6547 43.5654 22.5739C43.5701 22.5222 43.5677 22.4688 43.5693 22.4171C43.5858 22.3285 43.5881 22.3026 43.5983 22.3002C43.607 22.2971 43.6164 22.3167 43.6258 22.3151C43.6266 22.2665 43.6305 22.2116 43.6297 22.1638C43.6266 22.1159 43.6226 22.0751 43.6148 22.0532L43.6258 21.9936L43.6321 21.9332C43.6234 22.021 43.6124 21.854 43.6015 21.8093C43.6062 21.8242 43.6085 21.8391 43.6117 21.854C43.6211 21.8344 43.5928 21.7246 43.5803 21.6689C43.5693 21.6853 43.5905 21.7975 43.5921 21.8602C43.5811 21.8116 43.5638 21.7371 43.5434 21.6751C43.5693 21.6916 43.5199 21.5191 43.4948 21.4461C43.4689 21.3614 43.4446 21.3591 43.4368 21.3348C43.4454 21.3285 43.3795 21.203 43.4203 21.2603C43.4352 21.2869 43.4407 21.3261 43.465 21.3701C43.4525 21.3128 43.4697 21.312 43.4085 21.2062C43.3615 21.1277 43.3881 21.2422 43.3176 21.0846C43.3434 21.1222 43.3536 21.1262 43.3772 21.1536L43.3089 21.0054L43.2901 21.0085C43.2823 20.9873 43.2917 20.9999 43.2885 20.9897C43.2674 20.974 43.2336 20.9222 43.1999 20.8721C43.1631 20.8234 43.127 20.7772 43.1082 20.7685C43.0587 20.7034 43.0109 20.6258 42.9615 20.5646L42.9725 20.5748C42.9442 20.5356 42.9066 20.494 42.869 20.4548C42.8305 20.4164 42.789 20.3842 42.756 20.3591H42.7615C42.727 20.3199 42.6305 20.2399 42.5756 20.2031C42.4823 20.1074 42.5835 20.1238 42.4556 20.0454C42.3474 19.9615 42.2666 19.9411 42.3035 19.9827C42.1153 19.8258 41.8674 19.6988 41.6855 19.5615C41.6518 19.5498 41.6682 19.5647 41.6039 19.5325C41.2949 19.3466 40.9208 19.2008 40.6714 19.0549C40.7702 19.0902 40.6847 19.0415 40.6871 19.0314C40.6016 19.011 40.5977 18.9749 40.5585 18.9874C40.56 19.0055 40.5498 19.0078 40.64 19.0549C40.4393 18.9765 40.135 18.8572 40.0267 18.8023C40.0801 18.8306 40.0354 18.8188 39.9891 18.8063C40.0126 18.7874 39.8644 18.7302 39.7475 18.698L39.7264 18.7067L39.6573 18.6667C39.6118 18.6565 39.5993 18.68 39.4903 18.6282C39.4864 18.6204 39.4817 18.6125 39.4621 18.6016C39.3397 18.5741 39.1664 18.542 39.0401 18.4902L38.9405 18.4369C38.884 18.4228 38.7868 18.4086 38.8833 18.4431C38.6652 18.3655 38.5217 18.3255 38.4558 18.2879C38.059 18.229 37.4974 18.0996 37.0441 18.0079L37.0598 17.9992C36.9398 17.9647 36.9924 18.0063 36.9092 17.9828C36.9508 17.9796 36.8206 17.942 36.9194 17.9467C36.7469 17.902 36.6904 17.9247 36.5759 17.9098C36.5563 17.9216 36.6692 17.9161 36.6434 17.931C36.623 17.9326 36.4034 17.8785 36.3728 17.8965C36.3304 17.8808 36.3673 17.8698 36.3924 17.8643L36.2842 17.8589C36.1571 17.8118 36.5892 17.8589 36.4575 17.8047L36.3579 17.7922C36.2669 17.7538 36.6245 17.8071 36.3767 17.7593C36.2661 17.7514 36.1728 17.7796 36.2677 17.7985C36.0395 17.7828 36.1579 17.8424 35.9124 17.8173C35.8465 17.7977 36.1093 17.833 36.0638 17.8094C35.9501 17.7804 35.8309 17.7977 35.7289 17.7812C35.8418 17.8008 35.743 17.8142 35.6685 17.8118C35.5446 17.7891 35.7516 17.7977 35.5752 17.7789C35.5446 17.7891 35.3815 17.7773 35.5203 17.8047C35.4528 17.8259 35.3375 17.7726 35.2387 17.7828C35.1838 17.7545 35.4262 17.7585 35.234 17.7224C35.2623 17.7467 34.9909 17.7185 35.0897 17.7616C35.0144 17.7459 35.0089 17.7287 35.0662 17.724C35.0129 17.7106 34.9454 17.7114 34.8882 17.7098C34.8309 17.7067 34.7831 17.7004 34.7682 17.6777L34.7282 17.6918C34.6952 17.6793 34.6474 17.6667 34.594 17.6463C34.4991 17.6298 34.2827 17.6228 34.2968 17.593C34.2654 17.593 34.0505 17.5459 34.129 17.5844C34.2607 17.6259 34.2866 17.5985 34.3564 17.64C34.2647 17.6024 34.1611 17.6079 34.0819 17.5993L34.0717 17.5851C34.0247 17.5804 33.9188 17.5561 33.8874 17.5632C33.9243 17.5632 33.9078 17.5514 33.8709 17.5412L33.8184 17.5491C33.6286 17.5193 33.7808 17.5099 33.5972 17.4753C33.6443 17.4824 33.6913 17.4855 33.7392 17.491C33.7086 17.4871 33.649 17.4597 33.5619 17.4432C33.5243 17.451 33.4568 17.4557 33.4247 17.4612C33.3204 17.4432 33.3831 17.4314 33.2788 17.4236L33.4153 17.4361C33.4365 17.4361 33.3329 17.3875 33.1965 17.3546C33.1078 17.3389 32.9659 17.3295 33.1016 17.3718C33.0326 17.3569 32.9408 17.3177 32.9973 17.3216C32.842 17.284 33.0129 17.3444 32.8773 17.3169C32.8255 17.291 32.6616 17.2275 32.5643 17.1828L32.7102 17.1954L32.6185 17.1687C32.7439 17.1805 32.5636 17.135 32.6365 17.131C32.5753 17.1099 32.4969 17.0965 32.4357 17.0816C32.6059 17.1765 32.2169 17.0652 32.2593 17.1154C32.133 17.0793 32.1008 17.0463 32.0655 17.0189C32.0302 16.9914 31.9918 16.9695 31.8554 16.9467C31.8946 16.9711 31.7644 16.9507 31.9228 16.9985C31.7714 16.9389 31.8067 16.993 31.631 16.913C31.7699 16.9491 31.5001 16.8275 31.7001 16.8793C31.6828 16.8856 31.8044 16.9271 31.835 16.935C31.7761 16.8997 31.8593 16.9067 31.704 16.8495C31.6075 16.8173 31.4773 16.7703 31.4891 16.7938C31.486 16.8142 31.6358 16.8456 31.5675 16.8417C31.3754 16.7773 31.3573 16.7319 31.2656 16.7334C31.3848 16.7797 31.4067 16.8111 31.3997 16.8228L31.2585 16.7734H31.2907C31.0734 16.6722 31.2162 16.7671 31.0028 16.6754L30.9142 16.6064C30.9723 16.6119 31.2209 16.7475 31.1966 16.6981C31.0577 16.6401 31.0044 16.6385 30.8797 16.5695C30.9095 16.5805 30.9495 16.5962 30.9793 16.6072C30.9307 16.5836 30.9017 16.517 30.6954 16.4534C30.5903 16.4174 30.6633 16.4534 30.6546 16.4644C30.4342 16.3648 30.366 16.3405 30.2248 16.2738C30.2648 16.2676 29.9833 16.1421 30.1472 16.2001C30.2099 16.2511 30.5229 16.4072 30.6107 16.4221C30.5448 16.357 30.7809 16.5052 30.8413 16.4974C30.6656 16.4166 30.6876 16.3923 30.6687 16.3609C30.6209 16.3381 30.5707 16.3217 30.5409 16.3099C30.5127 16.317 30.5746 16.3483 30.5699 16.3679C30.3809 16.2652 30.1888 16.1852 30.0774 16.1413C30.0186 16.0982 30.0484 16.0927 30.1237 16.1319C30.0107 16.0715 29.8931 16.0095 29.7802 15.9437C29.6688 15.8754 29.559 15.8064 29.457 15.7413C29.5731 15.8527 29.2257 15.5994 29.3017 15.6794C29.4061 15.7586 29.4908 15.8362 29.4217 15.8095C29.3535 15.7633 29.4312 15.7993 29.4061 15.775C29.3096 15.7319 29.2853 15.6629 29.1857 15.6292C29.3872 15.7499 29.2445 15.6221 29.2947 15.626C29.1465 15.5445 29.3104 15.615 29.1716 15.5241C29.0978 15.4833 29.0194 15.4323 28.9378 15.3813C28.8563 15.3303 28.7747 15.2755 28.6994 15.2198C28.5253 15.0613 28.2359 14.8472 28.0798 14.7061C28.0069 14.6237 28.0798 14.6543 27.9967 14.5688C27.8955 14.4731 28.0508 14.6621 27.9104 14.51L27.9285 14.5194C27.8767 14.4833 27.6736 14.2402 27.6022 14.223L27.6689 14.248C27.6438 14.219 27.614 14.1979 27.5905 14.1759C27.5967 14.1681 27.5732 14.1288 27.6195 14.1712C27.5489 14.0637 27.4367 13.9775 27.3473 13.8716L27.392 13.9508C27.225 13.7814 27.1418 13.6434 26.9999 13.4638L27.0179 13.4591L26.9309 13.354C26.963 13.372 26.9019 13.263 26.8501 13.2104C26.927 13.3014 27.0062 13.3893 27.0869 13.4748C27.1371 13.5595 27.0062 13.4018 27.0289 13.4606C27.0477 13.5116 27.1795 13.6779 27.2156 13.6928C27.1662 13.6285 27.1607 13.6277 27.1183 13.5814C27.1215 13.5453 27.1944 13.6442 27.2462 13.6802C27.2187 13.6481 27.1866 13.5971 27.1756 13.594C27.2367 13.6512 27.2885 13.7163 27.3787 13.8214C27.3105 13.7563 27.4007 13.87 27.3716 13.8473C27.396 13.841 27.4838 13.939 27.5959 14.0677C27.6273 14.121 27.6846 14.1775 27.7528 14.2371C27.8195 14.2967 27.8948 14.3618 27.9646 14.4316C27.8908 14.3924 27.8061 14.332 27.7159 14.2512C27.7959 14.3469 27.8116 14.3516 27.8948 14.4449C27.9504 14.4747 27.9967 14.488 28.1222 14.5908L28.1183 14.608C28.2343 14.699 28.2477 14.6841 28.3865 14.808C28.5065 14.9139 28.6304 15.019 28.752 15.1115C28.8712 15.208 28.9888 15.2896 29.0876 15.3617L29.0861 15.3798C29.1504 15.4064 29.2461 15.4668 29.3465 15.5311C29.4461 15.5962 29.5496 15.666 29.6327 15.7052C29.7613 15.7931 29.908 15.8778 30.0413 15.946C30.1731 16.0174 30.2884 16.0801 30.3542 16.1264C30.8483 16.3687 31.2938 16.5483 31.8263 16.7483L31.7283 16.7373C31.8303 16.7569 31.7856 16.7726 31.8812 16.804C31.7801 16.746 32.0193 16.8315 32.0914 16.8385C32.2091 16.8864 32.3471 16.9303 32.482 16.9695C32.6177 17.0087 32.7533 17.0338 32.8631 17.0581L32.8671 17.0761C33.0922 17.1138 33.3494 17.1985 33.6231 17.2707C33.6529 17.2856 33.7 17.3106 33.7831 17.3255C33.9392 17.331 34.0176 17.3491 34.2403 17.3781C34.4019 17.4079 34.6638 17.4565 34.827 17.4942C34.9807 17.5099 35.136 17.5248 35.2913 17.5404C35.4466 17.5577 35.6018 17.5781 35.7595 17.5906C35.9163 17.6048 36.074 17.6189 36.2332 17.633L36.2991 17.6393L36.3595 17.6471L36.4794 17.6644C36.5594 17.6761 36.6394 17.6871 36.7202 17.6989L36.7634 17.7255C37.3908 17.7961 38.1374 18.0071 38.6597 18.1318L38.6009 18.149C38.7601 18.2024 38.9719 18.2455 38.9374 18.2118C39.0966 18.2675 39.346 18.3184 39.4401 18.3773C39.6024 18.4369 39.6456 18.429 39.7828 18.4722C40.1067 18.5961 40.2267 18.6416 40.5318 18.7584L40.4573 18.7255C40.4212 18.7192 40.4134 18.7302 40.4879 18.7623C40.6047 18.7992 40.8965 18.9459 40.8008 18.8627C41.1122 19.0204 41.5482 19.1953 41.8282 19.3968C41.8086 19.3733 41.8839 19.4149 41.9184 19.4282C42.1835 19.5882 42.4368 19.7945 42.6384 19.9403C42.6729 19.9764 42.5662 19.9035 42.6635 19.985C42.7231 20.0305 42.6745 19.9748 42.7474 20.0313C43.1434 20.3489 43.4517 20.7944 43.6313 21.2281C43.7991 21.6101 43.8618 22.0555 43.7968 22.4735C43.7858 22.5794 43.7583 22.6806 43.7364 22.7833C43.7215 22.8335 43.7066 22.8829 43.6917 22.9323C43.6775 22.9825 43.6611 23.0312 43.6415 23.079C43.6234 23.1268 43.6054 23.1747 43.5873 23.2225C43.5662 23.2688 43.5458 23.3151 43.5246 23.3606C43.4854 23.4539 43.436 23.5394 43.3913 23.6264L43.3889 23.6147C43.287 23.8609 43.0438 24.1197 42.9489 24.3095C42.905 24.3582 42.8062 24.4876 42.8219 24.4444C42.7168 24.6107 42.4823 24.8875 42.367 25.1542C42.3803 25.1315 42.3866 25.1173 42.3992 25.0891C42.2407 25.3338 42.149 25.5754 42.0243 25.8546C42.0313 25.824 42.051 25.7714 42.047 25.7597C41.9874 25.864 41.9788 26.0326 41.9239 26.0828C41.9043 26.1479 41.927 26.1345 41.9388 26.0945C41.8282 26.4106 41.76 26.7526 41.7459 27.0976C41.7349 27.4435 41.7765 27.7917 41.8815 28.1164C41.9459 28.3525 41.9412 28.3635 41.9286 28.3619C41.9184 28.3595 41.9066 28.3454 41.9976 28.518C42.0055 28.5493 42.0204 28.5329 42.0164 28.5407C42.0902 28.6709 42.0902 28.7689 42.1615 28.8497C42.1568 28.8011 42.2109 28.9015 42.2235 28.8968C42.2604 28.9627 42.2941 29.0128 42.3223 29.0575C42.3505 29.1015 42.3733 29.1391 42.3992 29.1721C42.4486 29.2395 42.4956 29.2991 42.5858 29.3799L42.5647 29.3744C42.7803 29.5587 43.0211 29.7822 43.2376 29.8904C43.8713 30.343 44.5849 30.6528 45.3081 30.8998C45.672 31.0198 46.0398 31.1249 46.4107 31.2182C46.7833 31.3076 47.1574 31.3923 47.537 31.4614C47.9103 31.5366 48.286 31.5963 48.6608 31.6512C48.8483 31.6786 49.0365 31.7006 49.2247 31.7257L49.2506 31.7288H49.2741L49.3455 31.728L49.489 31.7264L49.7753 31.7249C50.5392 31.7217 51.3062 31.7249 52.0866 31.7429C52.452 31.7782 52.4795 31.7774 52.881 31.7711C52.8646 31.7759 52.8395 31.7766 52.8661 31.7821C52.8865 31.757 53.1493 31.7845 53.1877 31.7602C53.7649 31.7727 54.2966 31.7845 54.8903 31.797C54.7962 31.797 54.7484 31.8166 54.8605 31.8182L54.9782 31.8049L54.997 31.8127C55.0731 31.8111 55.157 31.8009 55.0786 31.7908C56.5718 31.8174 58.0376 31.9343 59.4972 32.0739C59.8423 32.1194 60.3364 32.1688 60.7136 32.226C60.9905 32.2809 61.2602 32.3405 61.5253 32.4197C61.6579 32.4597 61.7888 32.5037 61.9183 32.5625C61.9833 32.5923 62.0477 32.6244 62.1104 32.6668C62.1724 32.7099 62.2382 32.7601 62.2861 32.8472C62.3096 32.8887 62.3245 32.9444 62.3222 32.9978C62.3214 33.0527 62.3018 33.0997 62.2814 33.1397C62.2359 33.2181 62.1778 33.2715 62.1206 33.3185C62.0037 33.4095 61.8806 33.4769 61.7551 33.5381C61.5042 33.6605 61.243 33.7585 60.9732 33.8558C60.9732 33.8558 61.0038 33.8283 61.0885 33.7797C61.1732 33.7295 61.3128 33.6605 61.5269 33.5624L61.5277 33.5711Z" fill="black"/>
<path d="M26.814 13.0533C26.8242 13.0933 26.8869 13.2062 26.8171 13.1286C26.8203 13.1114 26.7967 13.0478 26.814 13.0533Z" fill="black"/>
<path d="M29.1615 15.5846C29.1678 15.5846 29.2 15.616 29.2086 15.6246C29.1717 15.6019 29.1325 15.5885 29.1074 15.5642C29.1443 15.5877 29.1419 15.5791 29.1623 15.5854L29.1615 15.5846Z" fill="black"/>
<path d="M29.9178 16.0596C29.9092 16.0612 29.8621 16.0408 29.8041 16.0134C29.7468 15.9851 29.6809 15.9467 29.6323 15.9185C29.7264 15.9679 29.8213 16.0157 29.9178 16.0596Z" fill="black"/>
<path d="M30.6368 16.4833C30.6987 16.5226 30.6775 16.5186 30.5897 16.4778C30.5858 16.4692 30.6164 16.4802 30.6368 16.4833Z" fill="black"/>
<path d="M30.7022 16.4878C30.7663 16.5171 30.7947 16.5376 30.8224 16.5574C30.824 16.5471 30.6721 16.4957 30.7022 16.4878Z" fill="black"/>
<path d="M32.3779 17.1702C32.4195 17.1827 32.512 17.2031 32.5473 17.2251C32.5057 17.2062 32.341 17.1749 32.3779 17.1702Z" fill="black"/>
<path d="M33.1914 17.3826C33.2173 17.3896 33.2283 17.3943 33.2596 17.399C33.3067 17.4155 33.2534 17.4116 33.2126 17.403L33.1922 17.3834L33.1914 17.3826Z" fill="black"/>
<path d="M42.4385 24.6353L42.4847 24.5569L42.4863 24.5741L42.4385 24.6353Z" fill="black"/>
<path d="M43.6313 30.4084C43.7154 30.4493 43.6818 30.4509 43.6946 30.4597C43.6217 30.4181 43.7282 30.4629 43.6313 30.4084Z" fill="black"/>
<path d="M47.0331 31.5648L47.0044 31.5597L47.0196 31.5369L47.0331 31.5648Z" fill="black"/>
</g>
</g>
<defs>
<clipPath id="clip0_5217_69385">
<rect y="0.200684" width="58.7616" height="35.0273" rx="9" fill="white"/>
</clipPath>
<clipPath id="clip1_5217_69385">
<rect width="35.752" height="21.101" fill="white" transform="translate(26.5723 12.7646)"/>
</clipPath>
</defs>
</svg>
