<svg width="12" height="12" viewBox="0 0 12 12" fill="none" xmlns="http://www.w3.org/2000/svg">
<path d="M5.98406 3.42729C6.55127 3.42729 7.01109 2.96747 7.01109 2.40026C7.01109 1.83305 6.55127 1.37323 5.98406 1.37323C5.41685 1.37323 4.95703 1.83305 4.95703 2.40026C4.95703 2.96747 5.41685 3.42729 5.98406 3.42729Z" fill="#6AA5F8"/>
<path d="M5.98406 7.01097C6.55127 7.01097 7.01109 6.55115 7.01109 5.98394C7.01109 5.41673 6.55127 4.95691 5.98406 4.95691C5.41685 4.95691 4.95703 5.41673 4.95703 5.98394C4.95703 6.55115 5.41685 7.01097 5.98406 7.01097Z" fill="#6AA5F8"/>
<path d="M5.98406 10.5946C6.55127 10.5946 7.01109 10.1348 7.01109 9.56762C7.01109 9.0004 6.55127 8.54059 5.98406 8.54059C5.41685 8.54059 4.95703 9.0004 4.95703 9.56762C4.95703 10.1348 5.41685 10.5946 5.98406 10.5946Z" fill="#6AA5F8"/>
</svg>
