<svg width="24" height="23" viewBox="0 0 24 23" fill="none" xmlns="http://www.w3.org/2000/svg">
<g id="vuesax/linear/book-saved">
<g id="book-saved">
<path id="Vector" d="M21.3418 4.36119V15.6332C21.3418 16.5298 20.6134 17.3702 19.7169 17.4823L19.4087 17.5197C17.3728 17.7905 14.2349 18.8271 12.4418 19.817C12.199 19.9571 11.7975 19.9571 11.5453 19.817L11.508 19.7984C9.71489 18.8178 6.58642 17.7905 4.55988 17.5197L4.28902 17.4823C3.39249 17.3702 2.66406 16.5298 2.66406 15.6332V4.35184C2.66406 3.24052 3.56991 2.40003 4.68123 2.49342C6.6424 2.65218 9.61216 3.64212 11.2745 4.67874L11.508 4.81879C11.7788 4.98689 12.2271 4.98689 12.4979 4.81879L12.6567 4.71607C13.245 4.35186 13.9921 3.98764 14.8046 3.66078V7.47105L16.6724 6.22897L18.5402 7.47105V2.59619C18.7923 2.54949 19.0351 2.52144 19.2593 2.50277H19.3153C20.4266 2.40938 21.3418 3.24053 21.3418 4.36119Z" stroke="#171717" stroke-width="1.40083" stroke-linecap="round" stroke-linejoin="round"/>
<path id="Vector_2" d="M12 5.12695V19.1353" stroke="#171717" stroke-width="1.40083" stroke-linecap="round" stroke-linejoin="round"/>
<path id="Vector_3" d="M18.5402 2.59619V7.47106L16.6725 6.22897L14.8047 7.47106V3.66078C16.0281 3.17516 17.3916 2.78297 18.5402 2.59619Z" stroke="#171717" stroke-width="1.40083" stroke-linecap="round" stroke-linejoin="round"/>
</g>
</g>
</svg>
