<svg width="22" height="23" viewBox="0 0 22 23" fill="none" xmlns="http://www.w3.org/2000/svg">
<path d="M17.8634 19.8218L12.1209 14.0794C11.6652 14.444 11.1411 14.7326 10.5486 14.9453C9.95609 15.158 9.32564 15.2643 8.6572 15.2643C7.0013 15.2643 5.59986 14.6908 4.45289 13.5439C3.30591 12.3969 2.73242 10.9954 2.73242 9.33954C2.73242 7.68364 3.30591 6.28221 4.45289 5.13523C5.59986 3.98825 7.0013 3.41476 8.6572 3.41476C10.3131 3.41476 11.7145 3.98825 12.8615 5.13523C14.0085 6.28221 14.582 7.68364 14.582 9.33954C14.582 10.008 14.4756 10.6384 14.263 11.2309C14.0503 11.8234 13.7616 12.3475 13.397 12.8033L19.1395 18.5457L17.8634 19.8218ZM8.6572 13.4413C9.79658 13.4413 10.7651 13.0425 11.5626 12.245C12.3602 11.4474 12.759 10.4789 12.759 9.33954C12.759 8.20016 12.3602 7.23169 11.5626 6.43412C10.7651 5.63656 9.79658 5.23777 8.6572 5.23777C7.51782 5.23777 6.54935 5.63656 5.75178 6.43412C4.95421 7.23169 4.55543 8.20016 4.55543 9.33954C4.55543 10.4789 4.95421 11.4474 5.75178 12.245C6.54935 13.0425 7.51782 13.4413 8.6572 13.4413Z" fill="#A3A3A3"/>
</svg>
