<svg width="17" height="17" viewBox="0 0 17 17" fill="none" xmlns="http://www.w3.org/2000/svg">
<path d="M15.584 4.60416H11.334" stroke="#171717" stroke-width="1.2" stroke-miterlimit="10" stroke-linecap="round" stroke-linejoin="round"/>
<path d="M4.24935 4.60416H1.41602" stroke="#171717" stroke-width="1.2" stroke-miterlimit="10" stroke-linecap="round" stroke-linejoin="round"/>
<path d="M7.08268 7.08333C8.45189 7.08333 9.56185 5.97337 9.56185 4.60417C9.56185 3.23496 8.45189 2.125 7.08268 2.125C5.71348 2.125 4.60352 3.23496 4.60352 4.60417C4.60352 5.97337 5.71348 7.08333 7.08268 7.08333Z" stroke="#171717" stroke-width="1.2" stroke-miterlimit="10" stroke-linecap="round" stroke-linejoin="round"/>
<path d="M15.5833 12.3958H12.75" stroke="#171717" stroke-width="1.2" stroke-miterlimit="10" stroke-linecap="round" stroke-linejoin="round"/>
<path d="M5.66602 12.3958H1.41602" stroke="#171717" stroke-width="1.2" stroke-miterlimit="10" stroke-linecap="round" stroke-linejoin="round"/>
<path d="M9.91667 14.875C11.2859 14.875 12.3958 13.765 12.3958 12.3958C12.3958 11.0266 11.2859 9.91666 9.91667 9.91666C8.54746 9.91666 7.4375 11.0266 7.4375 12.3958C7.4375 13.765 8.54746 14.875 9.91667 14.875Z" stroke="#171717" stroke-width="1.2" stroke-miterlimit="10" stroke-linecap="round" stroke-linejoin="round"/>
</svg>
