<svg width="19" height="19" viewBox="0 0 19 19" fill="none" xmlns="http://www.w3.org/2000/svg">
<path d="M10.8694 2.77878L12.2627 5.56544C12.4527 5.95336 12.9594 6.32544 13.3869 6.39669L15.9123 6.81628C17.5273 7.08544 17.9073 8.25711 16.7436 9.41294L14.7802 11.3763C14.4477 11.7088 14.2656 12.35 14.3686 12.8092L14.9306 15.2396C15.374 17.1634 14.3527 17.9075 12.6506 16.9021L10.2836 15.5009C9.85606 15.2475 9.15147 15.2475 8.71606 15.5009L6.34897 16.9021C4.65481 17.9075 3.62564 17.1554 4.06897 15.2396L4.63106 12.8092C4.73397 12.35 4.55189 11.7088 4.21939 11.3763L2.25606 9.41294C1.10022 8.25711 1.47231 7.08544 3.08731 6.81628L5.61272 6.39669C6.03231 6.32544 6.53897 5.95336 6.72897 5.56544L8.12231 2.77878C8.88231 1.26669 10.1173 1.26669 10.8694 2.77878Z" stroke="#171717" stroke-width="1.6" stroke-linecap="round" stroke-linejoin="round"/>
</svg>