<svg xmlns="http://www.w3.org/2000/svg" width="13" height="13" viewBox="0 0 13 13" fill="none">
  <path d="M4.79208 5.87225C5.69552 5.87225 6.42791 5.13986 6.42791 4.23642C6.42791 3.33297 5.69552 2.60059 4.79208 2.60059C3.88863 2.60059 3.15625 3.33297 3.15625 4.23642C3.15625 5.13986 3.88863 5.87225 4.79208 5.87225Z" stroke="#A3A3A3" stroke-width="1.15" stroke-linecap="round" stroke-linejoin="round"/>
  <path d="M1.49219 10.4003V9.46865C1.49219 8.38531 2.36968 7.50781 3.45302 7.50781H6.38885C7.47218 7.50781 8.34969 8.38531 8.34969 9.46865V10.4003" stroke="#A3A3A3" stroke-width="1.15" stroke-linecap="round" stroke-linejoin="round"/>
  <path d="M8.87349 6.3378C9.5436 6.3378 10.0868 5.79457 10.0868 5.12446C10.0868 4.45436 9.5436 3.91113 8.87349 3.91113C8.20339 3.91113 7.66016 4.45436 7.66016 5.12446C7.66016 5.79457 8.20339 6.3378 8.87349 6.3378Z" stroke="#A3A3A3" stroke-width="1.15" stroke-linecap="round" stroke-linejoin="round"/>
  <path d="M9.2207 7.55078H10.0549C10.8565 7.55078 11.5065 8.20078 11.5065 9.00245V9.69578" stroke="#A3A3A3" stroke-width="1.15" stroke-linecap="round" stroke-linejoin="round"/>
</svg>