<svg width="13" height="12" viewBox="0 0 13 12" fill="none" xmlns="http://www.w3.org/2000/svg">
<path d="M4.7911 5.19869C5.69455 5.19869 6.42694 4.55041 6.42694 3.75071C6.42694 2.95102 5.69455 2.30273 4.7911 2.30273C3.88765 2.30273 3.15527 2.95102 3.15527 3.75071C3.15527 4.55041 3.88765 5.19869 4.7911 5.19869Z" stroke="black" stroke-width="0.5" stroke-linecap="round" stroke-linejoin="round"/>
<path d="M1.49219 9.20682V8.38214C1.49219 7.42322 2.36968 6.64648 3.45302 6.64648H6.38885C7.47218 6.64648 8.34969 7.42322 8.34969 8.38214V9.20682" stroke="black" stroke-width="0.5" stroke-linecap="round" stroke-linejoin="round"/>
<path d="M8.87447 5.61089C9.54457 5.61089 10.0878 5.13004 10.0878 4.53689C10.0878 3.94373 9.54457 3.46289 8.87447 3.46289C8.20436 3.46289 7.66113 3.94373 7.66113 4.53689C7.66113 5.13004 8.20436 5.61089 8.87447 5.61089Z" stroke="black" stroke-width="0.5" stroke-linecap="round" stroke-linejoin="round"/>
<path d="M9.2207 6.68555H10.0549C10.8565 6.68555 11.5065 7.2609 11.5065 7.97051V8.58422" stroke="black" stroke-width="0.5" stroke-linecap="round" stroke-linejoin="round"/>
</svg>
